%TF.GenerationSoftware,KiCad,Pcbnew,9.0.7*%
%TF.CreationDate,2026-01-30T14:49:52-06:00*%
%TF.ProjectId,displayboard,64697370-6c61-4796-926f-6172642e6b69,rev?*%
%TF.SameCoordinates,Original*%
%TF.FileFunction,Copper,L2,Bot*%
%TF.FilePolarity,Positive*%
%FSLAX46Y46*%
G04 Gerber Fmt 4.6, Leading zero omitted, Abs format (unit mm)*
G04 Created by KiCad (PCBNEW 9.0.7) date 2026-01-30 14:49:52*
%MOMM*%
%LPD*%
G01*
G04 APERTURE LIST*
G04 Aperture macros list*
%AMRoundRect*
0 Rectangle with rounded corners*
0 $1 Rounding radius*
0 $2 $3 $4 $5 $6 $7 $8 $9 X,Y pos of 4 corners*
0 Add a 4 corners polygon primitive as box body*
4,1,4,$2,$3,$4,$5,$6,$7,$8,$9,$2,$3,0*
0 Add four circle primitives for the rounded corners*
1,1,$1+$1,$2,$3*
1,1,$1+$1,$4,$5*
1,1,$1+$1,$6,$7*
1,1,$1+$1,$8,$9*
0 Add four rect primitives between the rounded corners*
20,1,$1+$1,$2,$3,$4,$5,0*
20,1,$1+$1,$4,$5,$6,$7,0*
20,1,$1+$1,$6,$7,$8,$9,0*
20,1,$1+$1,$8,$9,$2,$3,0*%
G04 Aperture macros list end*
%TA.AperFunction,ComponentPad*%
%ADD10R,1.700000X1.700000*%
%TD*%
%TA.AperFunction,ComponentPad*%
%ADD11C,1.700000*%
%TD*%
%TA.AperFunction,ComponentPad*%
%ADD12R,2.000000X2.000000*%
%TD*%
%TA.AperFunction,ComponentPad*%
%ADD13C,2.000000*%
%TD*%
%TA.AperFunction,ComponentPad*%
%ADD14R,2.000000X3.200000*%
%TD*%
%TA.AperFunction,ComponentPad*%
%ADD15RoundRect,0.250000X-0.600000X-0.725000X0.600000X-0.725000X0.600000X0.725000X-0.600000X0.725000X0*%
%TD*%
%TA.AperFunction,ComponentPad*%
%ADD16O,1.700000X1.950000*%
%TD*%
%TA.AperFunction,Conductor*%
%ADD17C,0.500000*%
%TD*%
G04 APERTURE END LIST*
D10*
%TO.P,REF\u002A\u002A,1*%
%TO.N,Net-(A1-GPIO20)*%
X139089000Y-70167600D03*
D11*
%TO.P,REF\u002A\u002A,2*%
%TO.N,Net-(A1-GPIO21)*%
X136549000Y-70167600D03*
%TO.P,REF\u002A\u002A,3*%
%TO.N,GND*%
X134009000Y-70167600D03*
%TO.P,REF\u002A\u002A,4*%
%TO.N,PICO_3V3*%
X131469000Y-70167600D03*
%TD*%
D12*
%TO.P,SW1,A,A*%
%TO.N,ADC0_GP26*%
X93650000Y-83000000D03*
D13*
%TO.P,SW1,B,B*%
%TO.N,ADC0_GP27*%
X88650000Y-83000000D03*
%TO.P,SW1,C,C*%
%TO.N,AGND*%
X91150000Y-83000000D03*
D14*
%TO.P,SW1,MP*%
%TO.N,N/C*%
X96750000Y-90500000D03*
X85550000Y-90500000D03*
D13*
%TO.P,SW1,S1,S1*%
%TO.N,ADC0_GP28*%
X88650000Y-97500000D03*
%TO.P,SW1,S2,S2*%
%TO.N,AGND*%
X93650000Y-97500000D03*
%TD*%
D15*
%TO.P,REF\u002A\u002A,1*%
%TO.N,GND*%
X131350000Y-113400000D03*
D16*
%TO.P,REF\u002A\u002A,2*%
%TO.N,PICO_3V3*%
X133850000Y-113400000D03*
%TO.P,REF\u002A\u002A,3*%
%TO.N,Net-(A1-GPIO21)*%
X136350000Y-113400000D03*
%TO.P,REF\u002A\u002A,4*%
%TO.N,Net-(A1-GPIO20)*%
X138850000Y-113400000D03*
%TD*%
D10*
%TO.P,REF\u002A\u002A,1*%
%TO.N,ADC0_GP26*%
X91450000Y-112370000D03*
D11*
%TO.P,REF\u002A\u002A,2*%
%TO.N,ADC0_GP27*%
X91450000Y-109830000D03*
%TO.P,REF\u002A\u002A,3*%
%TO.N,ADC0_GP28*%
X91450000Y-107290000D03*
%TO.P,REF\u002A\u002A,4*%
%TO.N,AGND*%
X91450000Y-104750000D03*
%TD*%
D17*
%TO.N,Net-(A1-GPIO20)*%
X139150800Y-70229400D02*
X139089000Y-70167600D01*
%TD*%
%TA.AperFunction,Conductor*%
%TO.N,GND*%
G36*
X192292539Y-68170185D02*
G01*
X192338294Y-68222989D01*
X192349500Y-68274500D01*
X192349500Y-115675500D01*
X192329815Y-115742539D01*
X192277011Y-115788294D01*
X192225500Y-115799500D01*
X82424500Y-115799500D01*
X82357461Y-115779815D01*
X82311706Y-115727011D01*
X82300500Y-115675500D01*
X82300500Y-104643713D01*
X90099500Y-104643713D01*
X90099500Y-104856286D01*
X90132753Y-105066239D01*
X90198444Y-105268414D01*
X90294951Y-105457820D01*
X90419890Y-105629786D01*
X90570213Y-105780109D01*
X90742182Y-105905050D01*
X90750946Y-105909516D01*
X90801742Y-105957491D01*
X90818536Y-106025312D01*
X90795998Y-106091447D01*
X90750946Y-106130484D01*
X90742182Y-106134949D01*
X90570213Y-106259890D01*
X90419890Y-106410213D01*
X90294951Y-106582179D01*
X90198444Y-106771585D01*
X90132753Y-106973760D01*
X90099500Y-107183713D01*
X90099500Y-107396286D01*
X90132753Y-107606239D01*
X90198444Y-107808414D01*
X90294951Y-107997820D01*
X90419890Y-108169786D01*
X90570213Y-108320109D01*
X90742182Y-108445050D01*
X90750946Y-108449516D01*
X90801742Y-108497491D01*
X90818536Y-108565312D01*
X90795998Y-108631447D01*
X90750946Y-108670484D01*
X90742182Y-108674949D01*
X90570213Y-108799890D01*
X90419890Y-108950213D01*
X90294951Y-109122179D01*
X90198444Y-109311585D01*
X90132753Y-109513760D01*
X90099500Y-109723713D01*
X90099500Y-109936286D01*
X90132753Y-110146239D01*
X90198444Y-110348414D01*
X90294951Y-110537820D01*
X90419890Y-110709786D01*
X90533430Y-110823326D01*
X90566915Y-110884649D01*
X90561931Y-110954341D01*
X90520059Y-111010274D01*
X90489083Y-111027189D01*
X90357669Y-111076203D01*
X90357664Y-111076206D01*
X90242455Y-111162452D01*
X90242452Y-111162455D01*
X90156206Y-111277664D01*
X90156202Y-111277671D01*
X90105908Y-111412517D01*
X90099501Y-111472116D01*
X90099501Y-111472123D01*
X90099500Y-111472135D01*
X90099500Y-113267870D01*
X90099501Y-113267876D01*
X90105908Y-113327483D01*
X90156202Y-113462328D01*
X90156206Y-113462335D01*
X90242452Y-113577544D01*
X90242455Y-113577547D01*
X90357664Y-113663793D01*
X90357671Y-113663797D01*
X90492517Y-113714091D01*
X90492516Y-113714091D01*
X90499444Y-113714835D01*
X90552127Y-113720500D01*
X92347872Y-113720499D01*
X92407483Y-113714091D01*
X92542331Y-113663796D01*
X92657546Y-113577546D01*
X92743796Y-113462331D01*
X92794091Y-113327483D01*
X92800500Y-113267873D01*
X92800500Y-113178795D01*
X100661700Y-113178795D01*
X100661700Y-113414804D01*
X100661701Y-113414820D01*
X100692506Y-113648810D01*
X100753594Y-113876793D01*
X100843914Y-114094845D01*
X100843919Y-114094856D01*
X100903205Y-114197540D01*
X100961927Y-114299250D01*
X100961929Y-114299253D01*
X100961930Y-114299254D01*
X101105606Y-114486497D01*
X101105612Y-114486504D01*
X101272495Y-114653387D01*
X101272501Y-114653392D01*
X101459750Y-114797073D01*
X101591118Y-114872918D01*
X101664143Y-114915080D01*
X101664148Y-114915082D01*
X101664151Y-114915084D01*
X101882207Y-115005406D01*
X102110186Y-115066493D01*
X102344189Y-115097300D01*
X102344196Y-115097300D01*
X102580204Y-115097300D01*
X102580211Y-115097300D01*
X102814214Y-115066493D01*
X103042193Y-115005406D01*
X103260249Y-114915084D01*
X103464650Y-114797073D01*
X103651899Y-114653392D01*
X103818792Y-114486499D01*
X103962473Y-114299250D01*
X104080484Y-114094849D01*
X104170806Y-113876793D01*
X104231893Y-113648814D01*
X104237462Y-113606508D01*
X104240630Y-113582452D01*
X104240630Y-113582451D01*
X104256443Y-113462335D01*
X104262700Y-113414811D01*
X104262700Y-113178789D01*
X104231893Y-112944786D01*
X104170806Y-112716807D01*
X104132783Y-112625013D01*
X130000000Y-112625013D01*
X130000000Y-113150000D01*
X130945854Y-113150000D01*
X130907370Y-113216657D01*
X130875000Y-113337465D01*
X130875000Y-113462535D01*
X130907370Y-113583343D01*
X130945854Y-113650000D01*
X130000001Y-113650000D01*
X130000001Y-114174986D01*
X130010494Y-114277697D01*
X130065641Y-114444119D01*
X130065643Y-114444124D01*
X130157684Y-114593345D01*
X130281654Y-114717315D01*
X130430875Y-114809356D01*
X130430880Y-114809358D01*
X130597302Y-114864505D01*
X130597309Y-114864506D01*
X130700019Y-114874999D01*
X131099999Y-114874999D01*
X131100000Y-114874998D01*
X131100000Y-113804145D01*
X131166657Y-113842630D01*
X131287465Y-113875000D01*
X131412535Y-113875000D01*
X131533343Y-113842630D01*
X131600000Y-113804145D01*
X131600000Y-114874999D01*
X131999972Y-114874999D01*
X131999986Y-114874998D01*
X132102697Y-114864505D01*
X132269119Y-114809358D01*
X132269124Y-114809356D01*
X132418345Y-114717315D01*
X132542317Y-114593343D01*
X132637815Y-114438516D01*
X132689763Y-114391791D01*
X132758725Y-114380568D01*
X132822808Y-114408412D01*
X132831035Y-114415931D01*
X132970213Y-114555109D01*
X133142179Y-114680048D01*
X133142181Y-114680049D01*
X133142184Y-114680051D01*
X133331588Y-114776557D01*
X133533757Y-114842246D01*
X133743713Y-114875500D01*
X133743714Y-114875500D01*
X133956286Y-114875500D01*
X133956287Y-114875500D01*
X134166243Y-114842246D01*
X134368412Y-114776557D01*
X134557816Y-114680051D01*
X134594516Y-114653387D01*
X134729786Y-114555109D01*
X134729788Y-114555106D01*
X134729792Y-114555104D01*
X134880104Y-114404792D01*
X134999683Y-114240204D01*
X135055011Y-114197540D01*
X135124624Y-114191561D01*
X135186420Y-114224166D01*
X135200313Y-114240199D01*
X135227557Y-114277697D01*
X135319896Y-114404792D01*
X135470213Y-114555109D01*
X135642179Y-114680048D01*
X135642181Y-114680049D01*
X135642184Y-114680051D01*
X135831588Y-114776557D01*
X136033757Y-114842246D01*
X136243713Y-114875500D01*
X136243714Y-114875500D01*
X136456286Y-114875500D01*
X136456287Y-114875500D01*
X136666243Y-114842246D01*
X136868412Y-114776557D01*
X137057816Y-114680051D01*
X137094516Y-114653387D01*
X137229786Y-114555109D01*
X137229788Y-114555106D01*
X137229792Y-114555104D01*
X137380104Y-114404792D01*
X137499683Y-114240204D01*
X137555011Y-114197540D01*
X137624624Y-114191561D01*
X137686420Y-114224166D01*
X137700313Y-114240199D01*
X137727557Y-114277697D01*
X137819896Y-114404792D01*
X137970213Y-114555109D01*
X138142179Y-114680048D01*
X138142181Y-114680049D01*
X138142184Y-114680051D01*
X138331588Y-114776557D01*
X138533757Y-114842246D01*
X138743713Y-114875500D01*
X138743714Y-114875500D01*
X138956286Y-114875500D01*
X138956287Y-114875500D01*
X139166243Y-114842246D01*
X139368412Y-114776557D01*
X139557816Y-114680051D01*
X139594516Y-114653387D01*
X139729786Y-114555109D01*
X139729788Y-114555106D01*
X139729792Y-114555104D01*
X139880104Y-114404792D01*
X139880106Y-114404788D01*
X139880109Y-114404786D01*
X140005048Y-114232820D01*
X140005047Y-114232820D01*
X140005051Y-114232816D01*
X140101557Y-114043412D01*
X140167246Y-113841243D01*
X140200500Y-113631287D01*
X140200500Y-113178795D01*
X166142900Y-113178795D01*
X166142900Y-113414804D01*
X166142901Y-113414820D01*
X166173706Y-113648810D01*
X166234794Y-113876793D01*
X166325114Y-114094845D01*
X166325119Y-114094856D01*
X166384405Y-114197540D01*
X166443127Y-114299250D01*
X166443129Y-114299253D01*
X166443130Y-114299254D01*
X166586806Y-114486497D01*
X166586812Y-114486504D01*
X166753695Y-114653387D01*
X166753701Y-114653392D01*
X166940950Y-114797073D01*
X167072318Y-114872918D01*
X167145343Y-114915080D01*
X167145348Y-114915082D01*
X167145351Y-114915084D01*
X167363407Y-115005406D01*
X167591386Y-115066493D01*
X167825389Y-115097300D01*
X167825396Y-115097300D01*
X168061404Y-115097300D01*
X168061411Y-115097300D01*
X168295414Y-115066493D01*
X168523393Y-115005406D01*
X168741449Y-114915084D01*
X168945850Y-114797073D01*
X169133099Y-114653392D01*
X169299992Y-114486499D01*
X169443673Y-114299250D01*
X169561684Y-114094849D01*
X169652006Y-113876793D01*
X169713093Y-113648814D01*
X169743900Y-113414811D01*
X169743900Y-113178789D01*
X169713093Y-112944786D01*
X169652006Y-112716807D01*
X169561684Y-112498751D01*
X169561682Y-112498748D01*
X169561680Y-112498743D01*
X169487752Y-112370697D01*
X169443673Y-112294350D01*
X169299992Y-112107101D01*
X169299987Y-112107095D01*
X169133104Y-111940212D01*
X169133097Y-111940206D01*
X168945854Y-111796530D01*
X168945853Y-111796529D01*
X168945850Y-111796527D01*
X168864357Y-111749477D01*
X168741456Y-111678519D01*
X168741445Y-111678514D01*
X168523393Y-111588194D01*
X168295410Y-111527106D01*
X168061420Y-111496301D01*
X168061417Y-111496300D01*
X168061411Y-111496300D01*
X167825389Y-111496300D01*
X167825383Y-111496300D01*
X167825379Y-111496301D01*
X167591389Y-111527106D01*
X167363406Y-111588194D01*
X167145354Y-111678514D01*
X167145343Y-111678519D01*
X166940945Y-111796530D01*
X166753702Y-111940206D01*
X166753695Y-111940212D01*
X166586812Y-112107095D01*
X166586806Y-112107102D01*
X166443130Y-112294345D01*
X166325119Y-112498743D01*
X166325114Y-112498754D01*
X166234794Y-112716806D01*
X166173706Y-112944789D01*
X166142901Y-113178779D01*
X166142900Y-113178795D01*
X140200500Y-113178795D01*
X140200500Y-113168713D01*
X140167246Y-112958757D01*
X140101557Y-112756588D01*
X140005051Y-112567184D01*
X140005049Y-112567181D01*
X140005048Y-112567179D01*
X139880109Y-112395213D01*
X139729786Y-112244890D01*
X139557820Y-112119951D01*
X139368414Y-112023444D01*
X139368413Y-112023443D01*
X139368412Y-112023443D01*
X139166243Y-111957754D01*
X139166241Y-111957753D01*
X139166240Y-111957753D01*
X139004957Y-111932208D01*
X138956287Y-111924500D01*
X138743713Y-111924500D01*
X138695042Y-111932208D01*
X138533760Y-111957753D01*
X138331585Y-112023444D01*
X138142179Y-112119951D01*
X137970213Y-112244890D01*
X137819894Y-112395209D01*
X137819890Y-112395214D01*
X137700318Y-112559793D01*
X137644989Y-112602459D01*
X137575375Y-112608438D01*
X137513580Y-112575833D01*
X137499682Y-112559793D01*
X137380109Y-112395214D01*
X137380105Y-112395209D01*
X137229786Y-112244890D01*
X137057820Y-112119951D01*
X136868414Y-112023444D01*
X136868413Y-112023443D01*
X136868412Y-112023443D01*
X136666243Y-111957754D01*
X136666241Y-111957753D01*
X136666240Y-111957753D01*
X136504957Y-111932208D01*
X136456287Y-111924500D01*
X136243713Y-111924500D01*
X136195042Y-111932208D01*
X136033760Y-111957753D01*
X135831585Y-112023444D01*
X135642179Y-112119951D01*
X135470213Y-112244890D01*
X135319894Y-112395209D01*
X135319890Y-112395214D01*
X135200318Y-112559793D01*
X135144989Y-112602459D01*
X135075375Y-112608438D01*
X135013580Y-112575833D01*
X134999682Y-112559793D01*
X134880109Y-112395214D01*
X134880105Y-112395209D01*
X134729786Y-112244890D01*
X134557820Y-112119951D01*
X134368414Y-112023444D01*
X134368413Y-112023443D01*
X134368412Y-112023443D01*
X134166243Y-111957754D01*
X134166241Y-111957753D01*
X134166240Y-111957753D01*
X134004957Y-111932208D01*
X133956287Y-111924500D01*
X133743713Y-111924500D01*
X133695042Y-111932208D01*
X133533760Y-111957753D01*
X133331585Y-112023444D01*
X133142179Y-112119951D01*
X132970215Y-112244889D01*
X132831035Y-112384069D01*
X132769712Y-112417553D01*
X132700020Y-112412569D01*
X132644087Y-112370697D01*
X132637815Y-112361484D01*
X132542315Y-112206654D01*
X132418345Y-112082684D01*
X132269124Y-111990643D01*
X132269119Y-111990641D01*
X132102697Y-111935494D01*
X132102690Y-111935493D01*
X131999986Y-111925000D01*
X131600000Y-111925000D01*
X131600000Y-112995854D01*
X131533343Y-112957370D01*
X131412535Y-112925000D01*
X131287465Y-112925000D01*
X131166657Y-112957370D01*
X131100000Y-112995854D01*
X131100000Y-111925000D01*
X130700028Y-111925000D01*
X130700012Y-111925001D01*
X130597302Y-111935494D01*
X130430880Y-111990641D01*
X130430875Y-111990643D01*
X130281654Y-112082684D01*
X130157684Y-112206654D01*
X130065643Y-112355875D01*
X130065641Y-112355880D01*
X130010494Y-112522302D01*
X130010493Y-112522309D01*
X130000000Y-112625013D01*
X104132783Y-112625013D01*
X104123441Y-112602459D01*
X104080485Y-112498754D01*
X104080480Y-112498743D01*
X104006552Y-112370697D01*
X103962473Y-112294350D01*
X103818792Y-112107101D01*
X103818787Y-112107095D01*
X103651904Y-111940212D01*
X103651897Y-111940206D01*
X103464654Y-111796530D01*
X103464653Y-111796529D01*
X103464650Y-111796527D01*
X103383157Y-111749477D01*
X103260256Y-111678519D01*
X103260245Y-111678514D01*
X103042193Y-111588194D01*
X102814210Y-111527106D01*
X102580220Y-111496301D01*
X102580217Y-111496300D01*
X102580211Y-111496300D01*
X102344189Y-111496300D01*
X102344183Y-111496300D01*
X102344179Y-111496301D01*
X102110189Y-111527106D01*
X101882206Y-111588194D01*
X101664154Y-111678514D01*
X101664143Y-111678519D01*
X101459745Y-111796530D01*
X101272502Y-111940206D01*
X101272495Y-111940212D01*
X101105612Y-112107095D01*
X101105606Y-112107102D01*
X100961930Y-112294345D01*
X100843919Y-112498743D01*
X100843914Y-112498754D01*
X100753594Y-112716806D01*
X100692506Y-112944789D01*
X100661701Y-113178779D01*
X100661700Y-113178795D01*
X92800500Y-113178795D01*
X92800499Y-112361484D01*
X92800499Y-111472129D01*
X92800498Y-111472123D01*
X92800497Y-111472116D01*
X92794091Y-111412517D01*
X92743796Y-111277669D01*
X92743795Y-111277668D01*
X92743793Y-111277664D01*
X92657547Y-111162455D01*
X92657544Y-111162452D01*
X92542335Y-111076206D01*
X92542328Y-111076202D01*
X92410917Y-111027189D01*
X92354983Y-110985318D01*
X92330566Y-110919853D01*
X92345418Y-110851580D01*
X92366563Y-110823332D01*
X92480104Y-110709792D01*
X92605051Y-110537816D01*
X92701557Y-110348412D01*
X92767246Y-110146243D01*
X92800500Y-109936287D01*
X92800500Y-109723713D01*
X92767246Y-109513757D01*
X92701557Y-109311588D01*
X92605051Y-109122184D01*
X92605049Y-109122181D01*
X92605048Y-109122179D01*
X92480109Y-108950213D01*
X92329786Y-108799890D01*
X92157820Y-108674951D01*
X92157115Y-108674591D01*
X92149054Y-108670485D01*
X92098259Y-108622512D01*
X92081463Y-108554692D01*
X92103999Y-108488556D01*
X92149054Y-108449515D01*
X92157816Y-108445051D01*
X92191847Y-108420326D01*
X92329786Y-108320109D01*
X92329788Y-108320106D01*
X92329792Y-108320104D01*
X92480104Y-108169792D01*
X92480106Y-108169788D01*
X92480109Y-108169786D01*
X92605048Y-107997820D01*
X92605047Y-107997820D01*
X92605051Y-107997816D01*
X92701557Y-107808412D01*
X92767246Y-107606243D01*
X92800500Y-107396287D01*
X92800500Y-107183713D01*
X92767246Y-106973757D01*
X92701557Y-106771588D01*
X92605051Y-106582184D01*
X92605049Y-106582181D01*
X92605048Y-106582179D01*
X92480109Y-106410213D01*
X92329786Y-106259890D01*
X92157820Y-106134951D01*
X92157115Y-106134591D01*
X92149054Y-106130485D01*
X92098259Y-106082512D01*
X92081463Y-106014692D01*
X92103999Y-105948556D01*
X92149054Y-105909515D01*
X92157816Y-105905051D01*
X92179789Y-105889086D01*
X92329786Y-105780109D01*
X92329788Y-105780106D01*
X92329792Y-105780104D01*
X92480104Y-105629792D01*
X92480106Y-105629788D01*
X92480109Y-105629786D01*
X92605048Y-105457820D01*
X92605047Y-105457820D01*
X92605051Y-105457816D01*
X92701557Y-105268412D01*
X92767246Y-105066243D01*
X92800500Y-104856287D01*
X92800500Y-104643713D01*
X92767246Y-104433757D01*
X92701557Y-104231588D01*
X92605051Y-104042184D01*
X92605049Y-104042181D01*
X92605048Y-104042179D01*
X92480109Y-103870213D01*
X92329786Y-103719890D01*
X92157820Y-103594951D01*
X91968414Y-103498444D01*
X91968413Y-103498443D01*
X91968412Y-103498443D01*
X91766243Y-103432754D01*
X91766241Y-103432753D01*
X91766240Y-103432753D01*
X91604957Y-103407208D01*
X91556287Y-103399500D01*
X91343713Y-103399500D01*
X91295042Y-103407208D01*
X91133760Y-103432753D01*
X90931585Y-103498444D01*
X90742179Y-103594951D01*
X90570213Y-103719890D01*
X90419890Y-103870213D01*
X90294951Y-104042179D01*
X90198444Y-104231585D01*
X90132753Y-104433760D01*
X90099500Y-104643713D01*
X82300500Y-104643713D01*
X82300500Y-102825602D01*
X173018000Y-102825602D01*
X173018000Y-103374398D01*
X173032456Y-103594949D01*
X173053893Y-103922027D01*
X173125525Y-104466119D01*
X173125527Y-104466131D01*
X173232584Y-105004349D01*
X173232590Y-105004375D01*
X173374627Y-105534464D01*
X173374631Y-105534479D01*
X173551033Y-106054139D01*
X173551037Y-106054150D01*
X173761054Y-106561173D01*
X174003775Y-107053364D01*
X174278168Y-107528627D01*
X174278184Y-107528652D01*
X174583069Y-107984944D01*
X174917150Y-108420326D01*
X174917155Y-108420331D01*
X174917156Y-108420333D01*
X175279002Y-108832940D01*
X175667060Y-109220998D01*
X176000892Y-109513760D01*
X176079673Y-109582849D01*
X176515055Y-109916930D01*
X176971347Y-110221815D01*
X176971372Y-110221831D01*
X177446635Y-110496224D01*
X177938826Y-110738945D01*
X177938831Y-110738947D01*
X177938837Y-110738950D01*
X178445858Y-110948966D01*
X178774520Y-111060531D01*
X178965520Y-111125368D01*
X178965525Y-111125369D01*
X178965530Y-111125371D01*
X179495627Y-111267410D01*
X179495636Y-111267411D01*
X179495650Y-111267415D01*
X180033868Y-111374472D01*
X180033873Y-111374472D01*
X180033879Y-111374474D01*
X180577980Y-111446107D01*
X181125602Y-111482000D01*
X181125613Y-111482000D01*
X181674387Y-111482000D01*
X181674398Y-111482000D01*
X182222020Y-111446107D01*
X182766121Y-111374474D01*
X182790867Y-111369551D01*
X183304349Y-111267415D01*
X183304356Y-111267413D01*
X183304373Y-111267410D01*
X183834470Y-111125371D01*
X184354142Y-110948966D01*
X184861163Y-110738950D01*
X185353364Y-110496224D01*
X185828636Y-110221826D01*
X186284943Y-109916931D01*
X186720333Y-109582844D01*
X187132940Y-109220998D01*
X187520998Y-108832940D01*
X187882844Y-108420333D01*
X188216931Y-107984943D01*
X188521826Y-107528636D01*
X188796224Y-107053364D01*
X189038950Y-106561163D01*
X189248966Y-106054142D01*
X189425371Y-105534470D01*
X189567410Y-105004373D01*
X189674474Y-104466121D01*
X189746107Y-103922020D01*
X189782000Y-103374398D01*
X189782000Y-102825602D01*
X189746107Y-102277980D01*
X189674474Y-101733879D01*
X189567410Y-101195627D01*
X189425371Y-100665530D01*
X189248966Y-100145858D01*
X189038950Y-99638837D01*
X188796224Y-99146636D01*
X188796224Y-99146635D01*
X188521831Y-98671372D01*
X188521815Y-98671347D01*
X188216930Y-98215055D01*
X187882849Y-97779673D01*
X187741151Y-97618097D01*
X187520998Y-97367060D01*
X187132940Y-96979002D01*
X186720333Y-96617156D01*
X186720331Y-96617155D01*
X186720326Y-96617150D01*
X186284944Y-96283069D01*
X185828652Y-95978184D01*
X185828627Y-95978168D01*
X185353364Y-95703775D01*
X184861173Y-95461054D01*
X184354150Y-95251037D01*
X184354139Y-95251033D01*
X183834479Y-95074631D01*
X183834464Y-95074627D01*
X183304375Y-94932590D01*
X183304349Y-94932584D01*
X182766131Y-94825527D01*
X182766119Y-94825525D01*
X182222027Y-94753893D01*
X182009055Y-94739934D01*
X181674398Y-94718000D01*
X181125602Y-94718000D01*
X180808557Y-94738780D01*
X180577972Y-94753893D01*
X180033880Y-94825525D01*
X180033868Y-94825527D01*
X179495650Y-94932584D01*
X179495624Y-94932590D01*
X178965535Y-95074627D01*
X178965520Y-95074631D01*
X178445860Y-95251033D01*
X178445849Y-95251037D01*
X177938826Y-95461054D01*
X177446635Y-95703775D01*
X176971372Y-95978168D01*
X176971347Y-95978184D01*
X176515055Y-96283069D01*
X176079673Y-96617150D01*
X175667055Y-96979006D01*
X175279006Y-97367055D01*
X174917150Y-97779673D01*
X174583069Y-98215055D01*
X174278184Y-98671347D01*
X174278168Y-98671372D01*
X174003775Y-99146635D01*
X173761054Y-99638826D01*
X173551037Y-100145849D01*
X173551033Y-100145860D01*
X173374631Y-100665520D01*
X173374627Y-100665535D01*
X173232590Y-101195624D01*
X173232584Y-101195650D01*
X173125527Y-101733868D01*
X173125525Y-101733880D01*
X173053893Y-102277972D01*
X173038780Y-102508557D01*
X173018000Y-102825602D01*
X82300500Y-102825602D01*
X82300500Y-97381902D01*
X87149500Y-97381902D01*
X87149500Y-97618097D01*
X87186446Y-97851368D01*
X87259433Y-98075996D01*
X87330288Y-98215055D01*
X87366657Y-98286433D01*
X87505483Y-98477510D01*
X87672490Y-98644517D01*
X87863567Y-98783343D01*
X87962991Y-98834002D01*
X88074003Y-98890566D01*
X88074005Y-98890566D01*
X88074008Y-98890568D01*
X88194412Y-98929689D01*
X88298631Y-98963553D01*
X88531903Y-99000500D01*
X88531908Y-99000500D01*
X88768097Y-99000500D01*
X89001368Y-98963553D01*
X89225992Y-98890568D01*
X89436433Y-98783343D01*
X89627510Y-98644517D01*
X89794517Y-98477510D01*
X89933343Y-98286433D01*
X90040568Y-98075992D01*
X90113553Y-97851368D01*
X90150500Y-97618097D01*
X90150500Y-97381902D01*
X92149500Y-97381902D01*
X92149500Y-97618097D01*
X92186446Y-97851368D01*
X92259433Y-98075996D01*
X92330288Y-98215055D01*
X92366657Y-98286433D01*
X92505483Y-98477510D01*
X92672490Y-98644517D01*
X92863567Y-98783343D01*
X92962991Y-98834002D01*
X93074003Y-98890566D01*
X93074005Y-98890566D01*
X93074008Y-98890568D01*
X93194412Y-98929689D01*
X93298631Y-98963553D01*
X93531903Y-99000500D01*
X93531908Y-99000500D01*
X93768097Y-99000500D01*
X94001368Y-98963553D01*
X94225992Y-98890568D01*
X94436433Y-98783343D01*
X94627510Y-98644517D01*
X94794517Y-98477510D01*
X94933343Y-98286433D01*
X95040568Y-98075992D01*
X95113553Y-97851368D01*
X95150500Y-97618097D01*
X95150500Y-97381902D01*
X95113553Y-97148631D01*
X95058438Y-96979006D01*
X95040568Y-96924008D01*
X95040566Y-96924005D01*
X95040566Y-96924003D01*
X94933342Y-96713566D01*
X94794517Y-96522490D01*
X94627510Y-96355483D01*
X94436433Y-96216657D01*
X94225996Y-96109433D01*
X94001368Y-96036446D01*
X93768097Y-95999500D01*
X93768092Y-95999500D01*
X93531908Y-95999500D01*
X93531903Y-95999500D01*
X93298631Y-96036446D01*
X93074003Y-96109433D01*
X92863566Y-96216657D01*
X92772159Y-96283069D01*
X92672490Y-96355483D01*
X92672488Y-96355485D01*
X92672487Y-96355485D01*
X92505485Y-96522487D01*
X92505485Y-96522488D01*
X92505483Y-96522490D01*
X92445862Y-96604550D01*
X92366657Y-96713566D01*
X92259433Y-96924003D01*
X92186446Y-97148631D01*
X92149500Y-97381902D01*
X90150500Y-97381902D01*
X90113553Y-97148631D01*
X90058438Y-96979006D01*
X90040568Y-96924008D01*
X90040566Y-96924005D01*
X90040566Y-96924003D01*
X89933342Y-96713566D01*
X89794517Y-96522490D01*
X89627510Y-96355483D01*
X89436433Y-96216657D01*
X89225996Y-96109433D01*
X89001368Y-96036446D01*
X88768097Y-95999500D01*
X88768092Y-95999500D01*
X88531908Y-95999500D01*
X88531903Y-95999500D01*
X88298631Y-96036446D01*
X88074003Y-96109433D01*
X87863566Y-96216657D01*
X87772159Y-96283069D01*
X87672490Y-96355483D01*
X87672488Y-96355485D01*
X87672487Y-96355485D01*
X87505485Y-96522487D01*
X87505485Y-96522488D01*
X87505483Y-96522490D01*
X87445862Y-96604550D01*
X87366657Y-96713566D01*
X87259433Y-96924003D01*
X87186446Y-97148631D01*
X87149500Y-97381902D01*
X82300500Y-97381902D01*
X82300500Y-88852135D01*
X84049500Y-88852135D01*
X84049500Y-92147870D01*
X84049501Y-92147876D01*
X84055908Y-92207483D01*
X84106202Y-92342328D01*
X84106206Y-92342335D01*
X84192452Y-92457544D01*
X84192455Y-92457547D01*
X84307664Y-92543793D01*
X84307671Y-92543797D01*
X84442517Y-92594091D01*
X84442516Y-92594091D01*
X84449444Y-92594835D01*
X84502127Y-92600500D01*
X86597872Y-92600499D01*
X86657483Y-92594091D01*
X86792331Y-92543796D01*
X86907546Y-92457546D01*
X86993796Y-92342331D01*
X87044091Y-92207483D01*
X87050500Y-92147873D01*
X87050499Y-88852135D01*
X95249500Y-88852135D01*
X95249500Y-92147870D01*
X95249501Y-92147876D01*
X95255908Y-92207483D01*
X95306202Y-92342328D01*
X95306206Y-92342335D01*
X95392452Y-92457544D01*
X95392455Y-92457547D01*
X95507664Y-92543793D01*
X95507671Y-92543797D01*
X95642517Y-92594091D01*
X95642516Y-92594091D01*
X95649444Y-92594835D01*
X95702127Y-92600500D01*
X97797872Y-92600499D01*
X97857483Y-92594091D01*
X97992331Y-92543796D01*
X98107546Y-92457546D01*
X98193796Y-92342331D01*
X98244091Y-92207483D01*
X98250500Y-92147873D01*
X98250499Y-88852128D01*
X98244091Y-88792517D01*
X98193796Y-88657669D01*
X98193795Y-88657668D01*
X98193793Y-88657664D01*
X98107547Y-88542455D01*
X98107544Y-88542452D01*
X97992335Y-88456206D01*
X97992328Y-88456202D01*
X97857482Y-88405908D01*
X97857483Y-88405908D01*
X97797883Y-88399501D01*
X97797881Y-88399500D01*
X97797873Y-88399500D01*
X97797864Y-88399500D01*
X95702129Y-88399500D01*
X95702123Y-88399501D01*
X95642516Y-88405908D01*
X95507671Y-88456202D01*
X95507664Y-88456206D01*
X95392455Y-88542452D01*
X95392452Y-88542455D01*
X95306206Y-88657664D01*
X95306202Y-88657671D01*
X95255908Y-88792517D01*
X95249501Y-88852116D01*
X95249501Y-88852123D01*
X95249500Y-88852135D01*
X87050499Y-88852135D01*
X87050499Y-88852128D01*
X87044091Y-88792517D01*
X86993796Y-88657669D01*
X86993795Y-88657668D01*
X86993793Y-88657664D01*
X86907547Y-88542455D01*
X86907544Y-88542452D01*
X86792335Y-88456206D01*
X86792328Y-88456202D01*
X86657482Y-88405908D01*
X86657483Y-88405908D01*
X86597883Y-88399501D01*
X86597881Y-88399500D01*
X86597873Y-88399500D01*
X86597864Y-88399500D01*
X84502129Y-88399500D01*
X84502123Y-88399501D01*
X84442516Y-88405908D01*
X84307671Y-88456202D01*
X84307664Y-88456206D01*
X84192455Y-88542452D01*
X84192452Y-88542455D01*
X84106206Y-88657664D01*
X84106202Y-88657671D01*
X84055908Y-88792517D01*
X84049501Y-88852116D01*
X84049501Y-88852123D01*
X84049500Y-88852135D01*
X82300500Y-88852135D01*
X82300500Y-82881902D01*
X87149500Y-82881902D01*
X87149500Y-83118097D01*
X87186446Y-83351368D01*
X87259433Y-83575996D01*
X87366657Y-83786433D01*
X87505483Y-83977510D01*
X87672490Y-84144517D01*
X87863567Y-84283343D01*
X87962991Y-84334002D01*
X88074003Y-84390566D01*
X88074005Y-84390566D01*
X88074008Y-84390568D01*
X88194412Y-84429689D01*
X88298631Y-84463553D01*
X88531903Y-84500500D01*
X88531908Y-84500500D01*
X88768097Y-84500500D01*
X89001368Y-84463553D01*
X89225992Y-84390568D01*
X89436433Y-84283343D01*
X89627510Y-84144517D01*
X89794517Y-83977510D01*
X89799682Y-83970401D01*
X89855012Y-83927735D01*
X89924625Y-83921756D01*
X89986420Y-83954362D01*
X90000318Y-83970401D01*
X90005483Y-83977510D01*
X90172490Y-84144517D01*
X90363567Y-84283343D01*
X90462991Y-84334002D01*
X90574003Y-84390566D01*
X90574005Y-84390566D01*
X90574008Y-84390568D01*
X90694412Y-84429689D01*
X90798631Y-84463553D01*
X91031903Y-84500500D01*
X91031908Y-84500500D01*
X91268097Y-84500500D01*
X91501368Y-84463553D01*
X91725992Y-84390568D01*
X91936433Y-84283343D01*
X92032157Y-84213794D01*
X92097963Y-84190314D01*
X92166017Y-84206139D01*
X92204309Y-84239801D01*
X92292452Y-84357544D01*
X92292455Y-84357547D01*
X92407664Y-84443793D01*
X92407671Y-84443797D01*
X92542517Y-84494091D01*
X92542516Y-84494091D01*
X92549444Y-84494835D01*
X92602127Y-84500500D01*
X94697872Y-84500499D01*
X94757483Y-84494091D01*
X94892331Y-84443796D01*
X95007546Y-84357546D01*
X95093796Y-84242331D01*
X95144091Y-84107483D01*
X95150500Y-84047873D01*
X95150499Y-81952128D01*
X95144091Y-81892517D01*
X95130278Y-81855483D01*
X95093797Y-81757671D01*
X95093793Y-81757664D01*
X95007547Y-81642455D01*
X95007544Y-81642452D01*
X94892335Y-81556206D01*
X94892328Y-81556202D01*
X94757482Y-81505908D01*
X94757483Y-81505908D01*
X94697883Y-81499501D01*
X94697881Y-81499500D01*
X94697873Y-81499500D01*
X94697864Y-81499500D01*
X92602129Y-81499500D01*
X92602123Y-81499501D01*
X92542516Y-81505908D01*
X92407671Y-81556202D01*
X92407664Y-81556206D01*
X92292455Y-81642452D01*
X92204309Y-81760199D01*
X92148375Y-81802069D01*
X92078683Y-81807053D01*
X92032157Y-81786205D01*
X91936433Y-81716657D01*
X91725996Y-81609433D01*
X91501368Y-81536446D01*
X91268097Y-81499500D01*
X91268092Y-81499500D01*
X91031908Y-81499500D01*
X91031903Y-81499500D01*
X90798631Y-81536446D01*
X90574003Y-81609433D01*
X90363566Y-81716657D01*
X90267843Y-81786205D01*
X90172490Y-81855483D01*
X90172488Y-81855485D01*
X90172487Y-81855485D01*
X90005482Y-82022490D01*
X90000315Y-82029603D01*
X89944983Y-82072266D01*
X89875370Y-82078242D01*
X89813576Y-82045634D01*
X89799685Y-82029603D01*
X89794517Y-82022490D01*
X89627512Y-81855485D01*
X89627510Y-81855483D01*
X89436433Y-81716657D01*
X89225996Y-81609433D01*
X89001368Y-81536446D01*
X88768097Y-81499500D01*
X88768092Y-81499500D01*
X88531908Y-81499500D01*
X88531903Y-81499500D01*
X88298631Y-81536446D01*
X88074003Y-81609433D01*
X87863566Y-81716657D01*
X87767843Y-81786205D01*
X87672490Y-81855483D01*
X87672488Y-81855485D01*
X87672487Y-81855485D01*
X87505485Y-82022487D01*
X87505485Y-82022488D01*
X87505483Y-82022490D01*
X87488668Y-82045634D01*
X87366657Y-82213566D01*
X87259433Y-82424003D01*
X87186446Y-82648631D01*
X87149500Y-82881902D01*
X82300500Y-82881902D01*
X82300500Y-79790280D01*
X82300504Y-79789248D01*
X82300618Y-79775602D01*
X173018000Y-79775602D01*
X173018000Y-80324398D01*
X173040669Y-80670264D01*
X173053893Y-80872027D01*
X173125525Y-81416119D01*
X173125527Y-81416131D01*
X173232584Y-81954349D01*
X173232590Y-81954375D01*
X173374627Y-82484464D01*
X173374631Y-82484479D01*
X173551033Y-83004139D01*
X173551037Y-83004150D01*
X173761054Y-83511173D01*
X174003775Y-84003364D01*
X174278168Y-84478627D01*
X174278184Y-84478652D01*
X174583069Y-84934944D01*
X174917150Y-85370326D01*
X174917155Y-85370331D01*
X174917156Y-85370333D01*
X175279002Y-85782940D01*
X175667060Y-86170998D01*
X176079667Y-86532844D01*
X176079673Y-86532849D01*
X176515055Y-86866930D01*
X176971347Y-87171815D01*
X176971372Y-87171831D01*
X177446635Y-87446224D01*
X177938826Y-87688945D01*
X177938831Y-87688947D01*
X177938837Y-87688950D01*
X178445858Y-87898966D01*
X178774520Y-88010531D01*
X178965520Y-88075368D01*
X178965525Y-88075369D01*
X178965530Y-88075371D01*
X179495627Y-88217410D01*
X179495636Y-88217411D01*
X179495650Y-88217415D01*
X180033868Y-88324472D01*
X180033873Y-88324472D01*
X180033879Y-88324474D01*
X180577980Y-88396107D01*
X181125602Y-88432000D01*
X181125613Y-88432000D01*
X181674387Y-88432000D01*
X181674398Y-88432000D01*
X182222020Y-88396107D01*
X182766121Y-88324474D01*
X182790867Y-88319551D01*
X183304349Y-88217415D01*
X183304356Y-88217413D01*
X183304373Y-88217410D01*
X183834470Y-88075371D01*
X184354142Y-87898966D01*
X184861163Y-87688950D01*
X185353364Y-87446224D01*
X185828636Y-87171826D01*
X186284943Y-86866931D01*
X186720333Y-86532844D01*
X187132940Y-86170998D01*
X187520998Y-85782940D01*
X187882844Y-85370333D01*
X188216931Y-84934943D01*
X188521826Y-84478636D01*
X188796224Y-84003364D01*
X189038950Y-83511163D01*
X189248966Y-83004142D01*
X189425371Y-82484470D01*
X189567410Y-81954373D01*
X189567857Y-81952129D01*
X189674472Y-81416131D01*
X189674474Y-81416119D01*
X189746106Y-80872027D01*
X189746107Y-80872020D01*
X189782000Y-80324398D01*
X189782000Y-79775602D01*
X189746107Y-79227980D01*
X189674474Y-78683879D01*
X189567410Y-78145627D01*
X189425371Y-77615530D01*
X189248966Y-77095858D01*
X189038950Y-76588837D01*
X188796224Y-76096636D01*
X188796224Y-76096635D01*
X188521831Y-75621372D01*
X188521815Y-75621347D01*
X188216930Y-75165055D01*
X187882849Y-74729673D01*
X187882844Y-74729667D01*
X187520998Y-74317060D01*
X187132940Y-73929002D01*
X186720333Y-73567156D01*
X186720331Y-73567155D01*
X186720326Y-73567150D01*
X186284944Y-73233069D01*
X185828652Y-72928184D01*
X185828627Y-72928168D01*
X185353364Y-72653775D01*
X184861173Y-72411054D01*
X184354150Y-72201037D01*
X184354139Y-72201033D01*
X183834479Y-72024631D01*
X183834464Y-72024627D01*
X183304375Y-71882590D01*
X183304349Y-71882584D01*
X182766131Y-71775527D01*
X182766119Y-71775525D01*
X182222027Y-71703893D01*
X182009055Y-71689934D01*
X181674398Y-71668000D01*
X181125602Y-71668000D01*
X180808557Y-71688780D01*
X180577972Y-71703893D01*
X180033880Y-71775525D01*
X180033868Y-71775527D01*
X179495650Y-71882584D01*
X179495624Y-71882590D01*
X178965535Y-72024627D01*
X178965520Y-72024631D01*
X178445860Y-72201033D01*
X178445849Y-72201037D01*
X177938826Y-72411054D01*
X177446635Y-72653775D01*
X176971372Y-72928168D01*
X176971347Y-72928184D01*
X176515055Y-73233069D01*
X176079673Y-73567150D01*
X175667055Y-73929006D01*
X175279006Y-74317055D01*
X174917150Y-74729673D01*
X174583069Y-75165055D01*
X174278184Y-75621347D01*
X174278168Y-75621372D01*
X174003775Y-76096635D01*
X173761054Y-76588826D01*
X173551037Y-77095849D01*
X173551033Y-77095860D01*
X173374631Y-77615520D01*
X173374627Y-77615535D01*
X173232590Y-78145624D01*
X173232584Y-78145650D01*
X173125527Y-78683868D01*
X173125525Y-78683880D01*
X173053893Y-79227972D01*
X173038780Y-79458557D01*
X173018000Y-79775602D01*
X82300618Y-79775602D01*
X82300643Y-79772541D01*
X82300643Y-79772540D01*
X82357442Y-72928168D01*
X82380277Y-70176595D01*
X100661700Y-70176595D01*
X100661700Y-70412604D01*
X100661701Y-70412620D01*
X100692506Y-70646610D01*
X100753594Y-70874593D01*
X100843914Y-71092645D01*
X100843919Y-71092656D01*
X100904570Y-71197705D01*
X100961927Y-71297050D01*
X100961929Y-71297053D01*
X100961930Y-71297054D01*
X101105606Y-71484297D01*
X101105612Y-71484304D01*
X101272495Y-71651187D01*
X101272502Y-71651193D01*
X101341182Y-71703893D01*
X101459750Y-71794873D01*
X101591118Y-71870718D01*
X101664143Y-71912880D01*
X101664148Y-71912882D01*
X101664151Y-71912884D01*
X101882207Y-72003206D01*
X102110186Y-72064293D01*
X102344189Y-72095100D01*
X102344196Y-72095100D01*
X102580204Y-72095100D01*
X102580211Y-72095100D01*
X102814214Y-72064293D01*
X103042193Y-72003206D01*
X103260249Y-71912884D01*
X103464650Y-71794873D01*
X103651899Y-71651192D01*
X103818792Y-71484299D01*
X103962473Y-71297050D01*
X104080484Y-71092649D01*
X104170806Y-70874593D01*
X104231893Y-70646614D01*
X104262700Y-70412611D01*
X104262700Y-70176589D01*
X104247524Y-70061313D01*
X130118500Y-70061313D01*
X130118500Y-70273887D01*
X130151754Y-70483843D01*
X130204640Y-70646610D01*
X130217444Y-70686014D01*
X130313951Y-70875420D01*
X130438890Y-71047386D01*
X130589213Y-71197709D01*
X130761179Y-71322648D01*
X130761181Y-71322649D01*
X130761184Y-71322651D01*
X130950588Y-71419157D01*
X131152757Y-71484846D01*
X131362713Y-71518100D01*
X131362714Y-71518100D01*
X131575286Y-71518100D01*
X131575287Y-71518100D01*
X131785243Y-71484846D01*
X131987412Y-71419157D01*
X132176816Y-71322651D01*
X132198789Y-71306686D01*
X132348786Y-71197709D01*
X132348788Y-71197706D01*
X132348792Y-71197704D01*
X132499104Y-71047392D01*
X132499106Y-71047388D01*
X132499109Y-71047386D01*
X132584890Y-70929317D01*
X132624051Y-70875416D01*
X132628793Y-70866108D01*
X132676763Y-70815311D01*
X132744583Y-70798511D01*
X132810719Y-70821045D01*
X132849763Y-70866100D01*
X132854373Y-70875147D01*
X132893728Y-70929316D01*
X133526037Y-70297008D01*
X133543075Y-70360593D01*
X133608901Y-70474607D01*
X133701993Y-70567699D01*
X133816007Y-70633525D01*
X133879590Y-70650562D01*
X133247282Y-71282869D01*
X133247282Y-71282870D01*
X133301449Y-71322224D01*
X133490782Y-71418695D01*
X133692870Y-71484357D01*
X133902754Y-71517600D01*
X134115246Y-71517600D01*
X134325127Y-71484357D01*
X134325130Y-71484357D01*
X134527217Y-71418695D01*
X134716554Y-71322222D01*
X134770716Y-71282870D01*
X134770717Y-71282870D01*
X134138408Y-70650562D01*
X134201993Y-70633525D01*
X134316007Y-70567699D01*
X134409099Y-70474607D01*
X134474925Y-70360593D01*
X134491962Y-70297008D01*
X135124270Y-70929317D01*
X135124270Y-70929316D01*
X135163622Y-70875155D01*
X135168232Y-70866107D01*
X135216205Y-70815309D01*
X135284025Y-70798512D01*
X135350161Y-70821047D01*
X135389204Y-70866104D01*
X135393949Y-70875417D01*
X135518890Y-71047386D01*
X135669213Y-71197709D01*
X135841179Y-71322648D01*
X135841181Y-71322649D01*
X135841184Y-71322651D01*
X136030588Y-71419157D01*
X136232757Y-71484846D01*
X136442713Y-71518100D01*
X136442714Y-71518100D01*
X136655286Y-71518100D01*
X136655287Y-71518100D01*
X136865243Y-71484846D01*
X137067412Y-71419157D01*
X137256816Y-71322651D01*
X137428792Y-71197704D01*
X137542329Y-71084166D01*
X137603648Y-71050684D01*
X137673340Y-71055668D01*
X137729274Y-71097539D01*
X137746189Y-71128517D01*
X137795202Y-71259928D01*
X137795206Y-71259935D01*
X137881452Y-71375144D01*
X137881455Y-71375147D01*
X137996664Y-71461393D01*
X137996671Y-71461397D01*
X138131517Y-71511691D01*
X138131516Y-71511691D01*
X138138444Y-71512435D01*
X138191127Y-71518100D01*
X139986872Y-71518099D01*
X140046483Y-71511691D01*
X140181331Y-71461396D01*
X140296546Y-71375146D01*
X140382796Y-71259931D01*
X140433091Y-71125083D01*
X140439500Y-71065473D01*
X140439499Y-70176595D01*
X166142900Y-70176595D01*
X166142900Y-70412604D01*
X166142901Y-70412620D01*
X166173706Y-70646610D01*
X166234794Y-70874593D01*
X166325114Y-71092645D01*
X166325119Y-71092656D01*
X166385770Y-71197705D01*
X166443127Y-71297050D01*
X166443129Y-71297053D01*
X166443130Y-71297054D01*
X166586806Y-71484297D01*
X166586812Y-71484304D01*
X166753695Y-71651187D01*
X166753702Y-71651193D01*
X166822382Y-71703893D01*
X166940950Y-71794873D01*
X167072318Y-71870718D01*
X167145343Y-71912880D01*
X167145348Y-71912882D01*
X167145351Y-71912884D01*
X167363407Y-72003206D01*
X167591386Y-72064293D01*
X167825389Y-72095100D01*
X167825396Y-72095100D01*
X168061404Y-72095100D01*
X168061411Y-72095100D01*
X168295414Y-72064293D01*
X168523393Y-72003206D01*
X168741449Y-71912884D01*
X168945850Y-71794873D01*
X169133099Y-71651192D01*
X169299992Y-71484299D01*
X169443673Y-71297050D01*
X169561684Y-71092649D01*
X169652006Y-70874593D01*
X169713093Y-70646614D01*
X169743900Y-70412611D01*
X169743900Y-70176589D01*
X169713093Y-69942586D01*
X169652006Y-69714607D01*
X169561684Y-69496551D01*
X169561682Y-69496548D01*
X169561680Y-69496543D01*
X169509336Y-69405882D01*
X169443673Y-69292150D01*
X169325003Y-69137496D01*
X169299993Y-69104902D01*
X169299987Y-69104895D01*
X169133104Y-68938012D01*
X169133097Y-68938006D01*
X168945854Y-68794330D01*
X168945853Y-68794329D01*
X168945850Y-68794327D01*
X168864357Y-68747277D01*
X168741456Y-68676319D01*
X168741445Y-68676314D01*
X168523393Y-68585994D01*
X168295410Y-68524906D01*
X168061420Y-68494101D01*
X168061417Y-68494100D01*
X168061411Y-68494100D01*
X167825389Y-68494100D01*
X167825383Y-68494100D01*
X167825379Y-68494101D01*
X167591389Y-68524906D01*
X167363406Y-68585994D01*
X167145354Y-68676314D01*
X167145343Y-68676319D01*
X166940945Y-68794330D01*
X166753702Y-68938006D01*
X166753695Y-68938012D01*
X166586812Y-69104895D01*
X166586806Y-69104902D01*
X166443130Y-69292145D01*
X166325119Y-69496543D01*
X166325114Y-69496554D01*
X166234794Y-69714606D01*
X166173706Y-69942589D01*
X166142901Y-70176579D01*
X166142900Y-70176595D01*
X140439499Y-70176595D01*
X140439499Y-70167600D01*
X140439499Y-69269729D01*
X140439498Y-69269723D01*
X140433091Y-69210116D01*
X140382797Y-69075271D01*
X140382793Y-69075264D01*
X140296547Y-68960055D01*
X140296544Y-68960052D01*
X140181335Y-68873806D01*
X140181328Y-68873802D01*
X140046482Y-68823508D01*
X140046483Y-68823508D01*
X139986883Y-68817101D01*
X139986881Y-68817100D01*
X139986873Y-68817100D01*
X139986864Y-68817100D01*
X138191129Y-68817100D01*
X138191123Y-68817101D01*
X138131516Y-68823508D01*
X137996671Y-68873802D01*
X137996664Y-68873806D01*
X137881455Y-68960052D01*
X137881452Y-68960055D01*
X137795206Y-69075264D01*
X137795203Y-69075269D01*
X137746189Y-69206683D01*
X137704317Y-69262616D01*
X137638853Y-69287033D01*
X137570580Y-69272181D01*
X137542326Y-69251030D01*
X137428786Y-69137490D01*
X137256820Y-69012551D01*
X137067414Y-68916044D01*
X137067413Y-68916043D01*
X137067412Y-68916043D01*
X136865243Y-68850354D01*
X136865241Y-68850353D01*
X136865240Y-68850353D01*
X136703957Y-68824808D01*
X136655287Y-68817100D01*
X136442713Y-68817100D01*
X136394042Y-68824808D01*
X136232760Y-68850353D01*
X136030585Y-68916044D01*
X135841179Y-69012551D01*
X135669213Y-69137490D01*
X135518890Y-69287813D01*
X135393949Y-69459782D01*
X135389202Y-69469099D01*
X135341227Y-69519893D01*
X135273405Y-69536687D01*
X135207271Y-69514148D01*
X135168234Y-69469095D01*
X135163626Y-69460052D01*
X135124270Y-69405882D01*
X135124269Y-69405882D01*
X134491962Y-70038190D01*
X134474925Y-69974607D01*
X134409099Y-69860593D01*
X134316007Y-69767501D01*
X134201993Y-69701675D01*
X134138409Y-69684637D01*
X134770716Y-69052328D01*
X134716550Y-69012975D01*
X134527217Y-68916504D01*
X134325129Y-68850842D01*
X134115246Y-68817600D01*
X133902754Y-68817600D01*
X133692872Y-68850842D01*
X133692869Y-68850842D01*
X133490782Y-68916504D01*
X133301439Y-69012980D01*
X133247282Y-69052327D01*
X133247282Y-69052328D01*
X133879591Y-69684637D01*
X133816007Y-69701675D01*
X133701993Y-69767501D01*
X133608901Y-69860593D01*
X133543075Y-69974607D01*
X133526037Y-70038191D01*
X132893728Y-69405882D01*
X132893727Y-69405882D01*
X132854380Y-69460040D01*
X132854376Y-69460046D01*
X132849760Y-69469105D01*
X132801781Y-69519897D01*
X132733959Y-69536687D01*
X132667826Y-69514143D01*
X132628794Y-69469093D01*
X132624051Y-69459784D01*
X132624049Y-69459781D01*
X132624048Y-69459779D01*
X132499109Y-69287813D01*
X132348786Y-69137490D01*
X132176820Y-69012551D01*
X131987414Y-68916044D01*
X131987413Y-68916043D01*
X131987412Y-68916043D01*
X131785243Y-68850354D01*
X131785241Y-68850353D01*
X131785240Y-68850353D01*
X131623957Y-68824808D01*
X131575287Y-68817100D01*
X131362713Y-68817100D01*
X131314042Y-68824808D01*
X131152760Y-68850353D01*
X130950585Y-68916044D01*
X130761179Y-69012551D01*
X130589213Y-69137490D01*
X130438890Y-69287813D01*
X130313951Y-69459779D01*
X130217444Y-69649185D01*
X130151753Y-69851360D01*
X130137304Y-69942589D01*
X130118500Y-70061313D01*
X104247524Y-70061313D01*
X104231893Y-69942586D01*
X104170806Y-69714607D01*
X104080484Y-69496551D01*
X104080482Y-69496548D01*
X104080480Y-69496543D01*
X104028136Y-69405882D01*
X103962473Y-69292150D01*
X103843803Y-69137496D01*
X103818793Y-69104902D01*
X103818787Y-69104895D01*
X103651904Y-68938012D01*
X103651897Y-68938006D01*
X103464654Y-68794330D01*
X103464653Y-68794329D01*
X103464650Y-68794327D01*
X103383157Y-68747277D01*
X103260256Y-68676319D01*
X103260245Y-68676314D01*
X103042193Y-68585994D01*
X102814210Y-68524906D01*
X102580220Y-68494101D01*
X102580217Y-68494100D01*
X102580211Y-68494100D01*
X102344189Y-68494100D01*
X102344183Y-68494100D01*
X102344179Y-68494101D01*
X102110189Y-68524906D01*
X101882206Y-68585994D01*
X101664154Y-68676314D01*
X101664143Y-68676319D01*
X101459745Y-68794330D01*
X101272502Y-68938006D01*
X101272495Y-68938012D01*
X101105612Y-69104895D01*
X101105606Y-69104902D01*
X100961930Y-69292145D01*
X100843919Y-69496543D01*
X100843914Y-69496554D01*
X100753594Y-69714606D01*
X100692506Y-69942589D01*
X100661701Y-70176579D01*
X100661700Y-70176595D01*
X82380277Y-70176595D01*
X82396070Y-68273468D01*
X82416310Y-68206597D01*
X82469492Y-68161282D01*
X82520066Y-68150500D01*
X192225500Y-68150500D01*
X192292539Y-68170185D01*
G37*
%TD.AperFunction*%
%TD*%
M02*
