%TF.GenerationSoftware,KiCad,Pcbnew,9.0.6*%
%TF.CreationDate,2026-01-21T14:54:26-06:00*%
%TF.ProjectId,buckboard,6275636b-626f-4617-9264-2e6b69636164,rev?*%
%TF.SameCoordinates,Original*%
%TF.FileFunction,Copper,L2,Bot*%
%TF.FilePolarity,Positive*%
%FSLAX46Y46*%
G04 Gerber Fmt 4.6, Leading zero omitted, Abs format (unit mm)*
G04 Created by KiCad (PCBNEW 9.0.6) date 2026-01-21 14:54:26*
%MOMM*%
%LPD*%
G01*
G04 APERTURE LIST*
%TA.AperFunction,ComponentPad*%
%ADD10C,3.000000*%
%TD*%
%TA.AperFunction,ComponentPad*%
%ADD11R,1.700000X1.700000*%
%TD*%
%TA.AperFunction,ComponentPad*%
%ADD12C,1.700000*%
%TD*%
%TA.AperFunction,ComponentPad*%
%ADD13R,2.800000X2.800000*%
%TD*%
%TA.AperFunction,ComponentPad*%
%ADD14C,2.800000*%
%TD*%
%TA.AperFunction,ViaPad*%
%ADD15C,2.500000*%
%TD*%
%TA.AperFunction,Conductor*%
%ADD16C,2.000000*%
%TD*%
%TA.AperFunction,Conductor*%
%ADD17C,5.000000*%
%TD*%
G04 APERTURE END LIST*
D10*
%TO.P,REF\u002A\u002A,1*%
%TO.N,VIN*%
X125700000Y-87850000D03*
%TO.P,REF\u002A\u002A,2*%
X125700000Y-65350000D03*
%TD*%
D11*
%TO.P,REF\u002A\u002A,1*%
%TO.N,12V3*%
X215750200Y-78026812D03*
D12*
%TO.P,REF\u002A\u002A,2*%
X215750200Y-75486812D03*
%TO.P,REF\u002A\u002A,3*%
%TO.N,GND*%
X218290200Y-78026812D03*
%TO.P,REF\u002A\u002A,4*%
X218290200Y-75486812D03*
%TO.P,REF\u002A\u002A,5*%
X220830200Y-78026812D03*
%TO.P,REF\u002A\u002A,6*%
X220830200Y-75486812D03*
%TO.P,REF\u002A\u002A,7*%
%TO.N,VIN*%
X223370200Y-78026812D03*
%TO.P,REF\u002A\u002A,8*%
X223370200Y-75486812D03*
%TD*%
D10*
%TO.P,REF\u002A\u002A,1*%
%TO.N,VIN*%
X183000000Y-61800000D03*
%TO.P,REF\u002A\u002A,2*%
X183000000Y-39300000D03*
%TD*%
D11*
%TO.P,REF\u002A\u002A,1*%
%TO.N,12V2*%
X186182866Y-94821800D03*
D12*
%TO.P,REF\u002A\u002A,2*%
X186182866Y-92281800D03*
%TO.P,REF\u002A\u002A,3*%
%TO.N,GND*%
X188722866Y-94821800D03*
%TO.P,REF\u002A\u002A,4*%
X188722866Y-92281800D03*
%TO.P,REF\u002A\u002A,5*%
X191262866Y-94821800D03*
%TO.P,REF\u002A\u002A,6*%
X191262866Y-92281800D03*
%TO.P,REF\u002A\u002A,7*%
%TO.N,VIN*%
X193802866Y-94821800D03*
%TO.P,REF\u002A\u002A,8*%
X193802866Y-92281800D03*
%TD*%
D11*
%TO.P,REF\u002A\u002A,1*%
%TO.N,GND*%
X184040000Y-66100000D03*
D12*
%TO.P,REF\u002A\u002A,2*%
%TO.N,9V*%
X181500000Y-66100000D03*
%TD*%
D11*
%TO.P,REF\u002A\u002A,1*%
%TO.N,GND*%
X188824466Y-107521800D03*
D12*
%TO.P,REF\u002A\u002A,2*%
%TO.N,12V2*%
X186284466Y-107521800D03*
%TD*%
D10*
%TO.P,REF\u002A\u002A,1*%
%TO.N,VIN*%
X106900000Y-87700000D03*
%TO.P,REF\u002A\u002A,2*%
X106900000Y-65200000D03*
%TD*%
D11*
%TO.P,REF\u002A\u002A,1*%
%TO.N,GND*%
X218315600Y-85723012D03*
D12*
%TO.P,REF\u002A\u002A,2*%
%TO.N,12V3*%
X215775600Y-85723012D03*
%TD*%
D11*
%TO.P,REF\u002A\u002A,1*%
%TO.N,GND*%
X91290000Y-125646400D03*
D12*
%TO.P,REF\u002A\u002A,2*%
%TO.N,5V*%
X88750000Y-125646400D03*
%TD*%
D10*
%TO.P,REF\u002A\u002A,1*%
%TO.N,VIN*%
X175000000Y-78600000D03*
%TO.P,REF\u002A\u002A,2*%
X152500000Y-78600000D03*
%TD*%
D11*
%TO.P,REF\u002A\u002A,1*%
%TO.N,12V1*%
X158100000Y-108740000D03*
D12*
%TO.P,REF\u002A\u002A,2*%
X158100000Y-106200000D03*
%TO.P,REF\u002A\u002A,3*%
%TO.N,GND*%
X160640000Y-108740000D03*
%TO.P,REF\u002A\u002A,4*%
X160640000Y-106200000D03*
%TO.P,REF\u002A\u002A,5*%
X163180000Y-108740000D03*
%TO.P,REF\u002A\u002A,6*%
X163180000Y-106200000D03*
%TO.P,REF\u002A\u002A,7*%
%TO.N,VIN*%
X165720000Y-108740000D03*
%TO.P,REF\u002A\u002A,8*%
X165720000Y-106200000D03*
%TD*%
D11*
%TO.P,REF\u002A\u002A,1*%
%TO.N,GND*%
X160767000Y-113515200D03*
D12*
%TO.P,REF\u002A\u002A,2*%
%TO.N,12V1*%
X158227000Y-113515200D03*
%TD*%
D11*
%TO.P,REF\u002A\u002A,1*%
%TO.N,GND*%
X120600000Y-121000000D03*
D12*
%TO.P,REF\u002A\u002A,2*%
%TO.N,5V2*%
X118060000Y-121000000D03*
%TD*%
D13*
%TO.P,REF\u002A\u002A,1*%
%TO.N,GND*%
X85801200Y-71399400D03*
D14*
%TO.P,REF\u002A\u002A,2*%
%TO.N,VIN*%
X85801200Y-66319400D03*
%TD*%
D10*
%TO.P,REF\u002A\u002A,1*%
%TO.N,VIN*%
X174700000Y-37500000D03*
%TO.P,REF\u002A\u002A,2*%
X152200000Y-37500000D03*
%TD*%
D11*
%TO.P,REF\u002A\u002A,1*%
%TO.N,5V*%
X88750000Y-121430000D03*
D12*
%TO.P,REF\u002A\u002A,2*%
X88750000Y-118890000D03*
%TO.P,REF\u002A\u002A,3*%
%TO.N,GND*%
X91290000Y-121430000D03*
%TO.P,REF\u002A\u002A,4*%
X91290000Y-118890000D03*
%TO.P,REF\u002A\u002A,5*%
X93830000Y-121430000D03*
%TO.P,REF\u002A\u002A,6*%
X93830000Y-118890000D03*
%TO.P,REF\u002A\u002A,7*%
%TO.N,VIN*%
X96370000Y-121430000D03*
%TO.P,REF\u002A\u002A,8*%
X96370000Y-118890000D03*
%TD*%
D11*
%TO.P,REF\u002A\u002A,1*%
%TO.N,9V*%
X158112700Y-67957800D03*
D12*
%TO.P,REF\u002A\u002A,2*%
X158112700Y-65417800D03*
%TO.P,REF\u002A\u002A,3*%
%TO.N,GND*%
X160652700Y-67957800D03*
%TO.P,REF\u002A\u002A,4*%
X160652700Y-65417800D03*
%TO.P,REF\u002A\u002A,5*%
X163192700Y-67957800D03*
%TO.P,REF\u002A\u002A,6*%
X163192700Y-65417800D03*
%TO.P,REF\u002A\u002A,7*%
%TO.N,VIN*%
X165732700Y-67957800D03*
%TO.P,REF\u002A\u002A,8*%
X165732700Y-65417800D03*
%TD*%
D10*
%TO.P,REF\u002A\u002A,1*%
%TO.N,VIN*%
X193700000Y-68600000D03*
%TO.P,REF\u002A\u002A,2*%
X193700000Y-46100000D03*
%TD*%
D11*
%TO.P,REF\u002A\u002A,1*%
%TO.N,5V2*%
X117982866Y-117045600D03*
D12*
%TO.P,REF\u002A\u002A,2*%
X117982866Y-114505600D03*
%TO.P,REF\u002A\u002A,3*%
%TO.N,GND*%
X120522866Y-117045600D03*
%TO.P,REF\u002A\u002A,4*%
X120522866Y-114505600D03*
%TO.P,REF\u002A\u002A,5*%
X123062866Y-117045600D03*
%TO.P,REF\u002A\u002A,6*%
X123062866Y-114505600D03*
%TO.P,REF\u002A\u002A,7*%
%TO.N,VIN*%
X125602866Y-117045600D03*
%TO.P,REF\u002A\u002A,8*%
X125602866Y-114505600D03*
%TD*%
D15*
%TO.N,VIN*%
X165600000Y-59100000D03*
X165600000Y-47100000D03*
%TD*%
D16*
%TO.N,VIN*%
X125700000Y-114408466D02*
X125602866Y-114505600D01*
X193802866Y-87402866D02*
X193802866Y-92281800D01*
D17*
X169300000Y-53000000D02*
X186800000Y-53000000D01*
X152300000Y-44300000D02*
X152200000Y-44200000D01*
D16*
X165700000Y-93700000D02*
X165720000Y-93720000D01*
X165720000Y-108740000D02*
X165720000Y-106200000D01*
D17*
X169300000Y-53000000D02*
X145090800Y-53000000D01*
X132000000Y-65000000D02*
X152300000Y-44700000D01*
D16*
X165600000Y-46600000D02*
X165600000Y-47100000D01*
X188300000Y-65900000D02*
X188300000Y-81900000D01*
X106900000Y-87700000D02*
X96370000Y-98230000D01*
D17*
X132000000Y-65000000D02*
X145600000Y-78600000D01*
D16*
X183000000Y-61800000D02*
X184200000Y-61800000D01*
X223370200Y-74284731D02*
X223370200Y-75486812D01*
D17*
X85801200Y-66319400D02*
X85801200Y-66198800D01*
D16*
X184200000Y-61800000D02*
X188300000Y-65900000D01*
X96370000Y-121430000D02*
X96370000Y-118890000D01*
D17*
X87000000Y-65000000D02*
X132000000Y-65000000D01*
D16*
X165720000Y-93720000D02*
X165720000Y-106200000D01*
X165800000Y-93600000D02*
X165700000Y-93700000D01*
D17*
X145600000Y-78600000D02*
X152500000Y-78600000D01*
D16*
X125700000Y-87850000D02*
X125700000Y-114408466D01*
D17*
X186800000Y-53000000D02*
X193700000Y-46100000D01*
X152200000Y-44200000D02*
X152200000Y-37500000D01*
D16*
X188300000Y-81900000D02*
X193802866Y-87402866D01*
X165600000Y-59100000D02*
X165600000Y-65417800D01*
X223370200Y-75486812D02*
X223370200Y-78026812D01*
X165732700Y-67957800D02*
X165732700Y-65417800D01*
X175000000Y-78600000D02*
X165800000Y-87800000D01*
X193700000Y-68600000D02*
X217685469Y-68600000D01*
D17*
X183000000Y-39300000D02*
X169300000Y-53000000D01*
D16*
X174700000Y-37500000D02*
X165600000Y-46600000D01*
X96370000Y-98230000D02*
X96370000Y-118890000D01*
X217685469Y-68600000D02*
X223370200Y-74284731D01*
X125602866Y-114505600D02*
X125602866Y-117045600D01*
D17*
X152300000Y-44700000D02*
X152300000Y-44300000D01*
X85801200Y-66198800D02*
X87000000Y-65000000D01*
D16*
X165800000Y-87800000D02*
X165800000Y-93600000D01*
X193802866Y-92281800D02*
X193802866Y-94821800D01*
%TO.N,12V3*%
X215750200Y-75486812D02*
X215750200Y-78026812D01*
X215750200Y-85697612D02*
X215775600Y-85723012D01*
X215750200Y-78026812D02*
X215750200Y-85697612D01*
%TO.N,12V2*%
X186182866Y-92281800D02*
X186182866Y-94821800D01*
X186182866Y-107420200D02*
X186284466Y-107521800D01*
X186182866Y-94821800D02*
X186182866Y-107420200D01*
%TO.N,12V1*%
X158100000Y-113388200D02*
X158227000Y-113515200D01*
X158100000Y-108740000D02*
X158100000Y-106200000D01*
X158100000Y-108740000D02*
X158100000Y-113388200D01*
%TO.N,9V*%
X175000000Y-72600000D02*
X181500000Y-66100000D01*
X158112700Y-67957800D02*
X158112700Y-70807800D01*
X175000000Y-72900000D02*
X175000000Y-72600000D01*
X158112700Y-65417800D02*
X158112700Y-67957800D01*
X158112700Y-70807800D02*
X160204900Y-72900000D01*
X160204900Y-72900000D02*
X175000000Y-72900000D01*
%TO.N,5V*%
X88750000Y-121430000D02*
X88750000Y-125646400D01*
X88750000Y-118890000D02*
X88750000Y-121430000D01*
%TO.N,5V2*%
X117982866Y-117045600D02*
X117982866Y-120922866D01*
X117982866Y-117045600D02*
X117982866Y-114505600D01*
X117982866Y-120922866D02*
X118060000Y-121000000D01*
%TD*%
%TA.AperFunction,Conductor*%
%TO.N,GND*%
G36*
X90824075Y-119082993D02*
G01*
X90889901Y-119197007D01*
X90982993Y-119290099D01*
X91097007Y-119355925D01*
X91160591Y-119372962D01*
X90559971Y-119973581D01*
X90638711Y-120090895D01*
X90639920Y-120094729D01*
X90642844Y-120097491D01*
X90650343Y-120127778D01*
X90659727Y-120157529D01*
X90658671Y-120161408D01*
X90659638Y-120165312D01*
X90649573Y-120194844D01*
X90641383Y-120224947D01*
X90638397Y-120227640D01*
X90637100Y-120231447D01*
X90592051Y-120270483D01*
X90582440Y-120275380D01*
X90528282Y-120314727D01*
X90528282Y-120314728D01*
X91160591Y-120947037D01*
X91097007Y-120964075D01*
X90982993Y-121029901D01*
X90889901Y-121122993D01*
X90824075Y-121237007D01*
X90807037Y-121300591D01*
X90174728Y-120668282D01*
X90174727Y-120668282D01*
X90149819Y-120702567D01*
X90094489Y-120745233D01*
X90024876Y-120751212D01*
X89963080Y-120718607D01*
X89928723Y-120657769D01*
X89925500Y-120629682D01*
X89925500Y-119690315D01*
X89945185Y-119623276D01*
X89997989Y-119577521D01*
X90067147Y-119567577D01*
X90130703Y-119596602D01*
X90149819Y-119617431D01*
X90174728Y-119651716D01*
X90807037Y-119019408D01*
X90824075Y-119082993D01*
G37*
%TD.AperFunction*%
%TA.AperFunction,Conductor*%
G36*
X93364075Y-119082993D02*
G01*
X93429901Y-119197007D01*
X93522993Y-119290099D01*
X93637007Y-119355925D01*
X93700590Y-119372962D01*
X93068282Y-120005269D01*
X93068282Y-120005270D01*
X93122452Y-120044626D01*
X93132048Y-120049516D01*
X93182844Y-120097491D01*
X93199638Y-120165312D01*
X93177100Y-120231447D01*
X93132051Y-120270483D01*
X93122440Y-120275380D01*
X93068282Y-120314727D01*
X93068282Y-120314728D01*
X93700591Y-120947037D01*
X93637007Y-120964075D01*
X93522993Y-121029901D01*
X93429901Y-121122993D01*
X93364075Y-121237007D01*
X93347037Y-121300591D01*
X92714728Y-120668282D01*
X92714727Y-120668282D01*
X92675380Y-120722440D01*
X92670483Y-120732051D01*
X92622506Y-120782845D01*
X92554684Y-120799638D01*
X92488550Y-120777098D01*
X92449516Y-120732048D01*
X92444626Y-120722452D01*
X92405270Y-120668282D01*
X92405269Y-120668282D01*
X91772962Y-121300590D01*
X91755925Y-121237007D01*
X91690099Y-121122993D01*
X91597007Y-121029901D01*
X91482993Y-120964075D01*
X91419409Y-120947037D01*
X92051716Y-120314728D01*
X91997550Y-120275375D01*
X91987954Y-120270486D01*
X91937157Y-120222512D01*
X91920361Y-120154692D01*
X91941288Y-120090895D01*
X92020027Y-119973581D01*
X91419408Y-119372962D01*
X91482993Y-119355925D01*
X91597007Y-119290099D01*
X91690099Y-119197007D01*
X91755925Y-119082993D01*
X91772962Y-119019408D01*
X92405270Y-119651717D01*
X92405270Y-119651716D01*
X92444622Y-119597554D01*
X92449514Y-119587954D01*
X92497488Y-119537157D01*
X92565308Y-119520361D01*
X92631444Y-119542897D01*
X92670486Y-119587954D01*
X92675375Y-119597550D01*
X92714728Y-119651716D01*
X93347037Y-119019408D01*
X93364075Y-119082993D01*
G37*
%TD.AperFunction*%
%TA.AperFunction,Conductor*%
G36*
X94945270Y-119651717D02*
G01*
X94945270Y-119651716D01*
X94970182Y-119617430D01*
X95025512Y-119574765D01*
X95095126Y-119568786D01*
X95156921Y-119601392D01*
X95191278Y-119662231D01*
X95194500Y-119690316D01*
X95194500Y-120629684D01*
X95174815Y-120696723D01*
X95122011Y-120742478D01*
X95052853Y-120752422D01*
X94989297Y-120723397D01*
X94970182Y-120702569D01*
X94945271Y-120668282D01*
X94945269Y-120668282D01*
X94312962Y-121300590D01*
X94295925Y-121237007D01*
X94230099Y-121122993D01*
X94137007Y-121029901D01*
X94022993Y-120964075D01*
X93959409Y-120947037D01*
X94591716Y-120314728D01*
X94537550Y-120275375D01*
X94527954Y-120270486D01*
X94477157Y-120222512D01*
X94460361Y-120154692D01*
X94482897Y-120088556D01*
X94527954Y-120049514D01*
X94537554Y-120044622D01*
X94591716Y-120005270D01*
X94591717Y-120005270D01*
X93959408Y-119372962D01*
X94022993Y-119355925D01*
X94137007Y-119290099D01*
X94230099Y-119197007D01*
X94295925Y-119082993D01*
X94312962Y-119019408D01*
X94945270Y-119651717D01*
G37*
%TD.AperFunction*%
%TA.AperFunction,Conductor*%
G36*
X120056941Y-114698593D02*
G01*
X120122767Y-114812607D01*
X120215859Y-114905699D01*
X120329873Y-114971525D01*
X120393457Y-114988562D01*
X119792837Y-115589181D01*
X119871577Y-115706495D01*
X119872786Y-115710329D01*
X119875710Y-115713091D01*
X119883209Y-115743378D01*
X119892593Y-115773129D01*
X119891537Y-115777008D01*
X119892504Y-115780912D01*
X119882439Y-115810444D01*
X119874249Y-115840547D01*
X119871263Y-115843240D01*
X119869966Y-115847047D01*
X119824917Y-115886083D01*
X119815306Y-115890980D01*
X119761148Y-115930327D01*
X119761148Y-115930328D01*
X120393457Y-116562637D01*
X120329873Y-116579675D01*
X120215859Y-116645501D01*
X120122767Y-116738593D01*
X120056941Y-116852607D01*
X120039903Y-116916191D01*
X119407594Y-116283882D01*
X119407593Y-116283882D01*
X119382685Y-116318167D01*
X119327355Y-116360833D01*
X119257742Y-116366812D01*
X119195946Y-116334207D01*
X119161589Y-116273369D01*
X119158366Y-116245282D01*
X119158366Y-115305915D01*
X119178051Y-115238876D01*
X119230855Y-115193121D01*
X119300013Y-115183177D01*
X119363569Y-115212202D01*
X119382685Y-115233031D01*
X119407594Y-115267316D01*
X120039903Y-114635008D01*
X120056941Y-114698593D01*
G37*
%TD.AperFunction*%
%TA.AperFunction,Conductor*%
G36*
X122596941Y-114698593D02*
G01*
X122662767Y-114812607D01*
X122755859Y-114905699D01*
X122869873Y-114971525D01*
X122933456Y-114988562D01*
X122301148Y-115620869D01*
X122301148Y-115620870D01*
X122355318Y-115660226D01*
X122364914Y-115665116D01*
X122415710Y-115713091D01*
X122432504Y-115780912D01*
X122409966Y-115847047D01*
X122364917Y-115886083D01*
X122355306Y-115890980D01*
X122301148Y-115930327D01*
X122301148Y-115930328D01*
X122933457Y-116562637D01*
X122869873Y-116579675D01*
X122755859Y-116645501D01*
X122662767Y-116738593D01*
X122596941Y-116852607D01*
X122579903Y-116916191D01*
X121947594Y-116283882D01*
X121947593Y-116283882D01*
X121908246Y-116338040D01*
X121903349Y-116347651D01*
X121855372Y-116398445D01*
X121787550Y-116415238D01*
X121721416Y-116392698D01*
X121682382Y-116347648D01*
X121677492Y-116338052D01*
X121638136Y-116283882D01*
X121638135Y-116283882D01*
X121005828Y-116916190D01*
X120988791Y-116852607D01*
X120922965Y-116738593D01*
X120829873Y-116645501D01*
X120715859Y-116579675D01*
X120652275Y-116562637D01*
X121284582Y-115930328D01*
X121230416Y-115890975D01*
X121220820Y-115886086D01*
X121170023Y-115838112D01*
X121153227Y-115770292D01*
X121174154Y-115706495D01*
X121252893Y-115589181D01*
X120652274Y-114988562D01*
X120715859Y-114971525D01*
X120829873Y-114905699D01*
X120922965Y-114812607D01*
X120988791Y-114698593D01*
X121005828Y-114635009D01*
X121638136Y-115267317D01*
X121638136Y-115267316D01*
X121677488Y-115213154D01*
X121682380Y-115203554D01*
X121730354Y-115152757D01*
X121798174Y-115135961D01*
X121864310Y-115158497D01*
X121903352Y-115203554D01*
X121908241Y-115213150D01*
X121947594Y-115267316D01*
X122579903Y-114635008D01*
X122596941Y-114698593D01*
G37*
%TD.AperFunction*%
%TA.AperFunction,Conductor*%
G36*
X124178136Y-115267317D02*
G01*
X124178136Y-115267316D01*
X124203048Y-115233030D01*
X124258378Y-115190365D01*
X124327992Y-115184386D01*
X124389787Y-115216992D01*
X124424144Y-115277831D01*
X124427366Y-115305916D01*
X124427366Y-116245284D01*
X124407681Y-116312323D01*
X124354877Y-116358078D01*
X124285719Y-116368022D01*
X124222163Y-116338997D01*
X124203048Y-116318169D01*
X124178137Y-116283882D01*
X124178135Y-116283882D01*
X123545828Y-116916190D01*
X123528791Y-116852607D01*
X123462965Y-116738593D01*
X123369873Y-116645501D01*
X123255859Y-116579675D01*
X123192275Y-116562637D01*
X123824582Y-115930328D01*
X123770416Y-115890975D01*
X123760820Y-115886086D01*
X123710023Y-115838112D01*
X123693227Y-115770292D01*
X123715763Y-115704156D01*
X123760820Y-115665114D01*
X123770420Y-115660222D01*
X123824582Y-115620870D01*
X123824583Y-115620870D01*
X123192274Y-114988562D01*
X123255859Y-114971525D01*
X123369873Y-114905699D01*
X123462965Y-114812607D01*
X123528791Y-114698593D01*
X123545828Y-114635008D01*
X124178136Y-115267317D01*
G37*
%TD.AperFunction*%
%TA.AperFunction,Conductor*%
G36*
X160174075Y-106392993D02*
G01*
X160239901Y-106507007D01*
X160332993Y-106600099D01*
X160447007Y-106665925D01*
X160510591Y-106682962D01*
X159909971Y-107283581D01*
X159988711Y-107400895D01*
X159989920Y-107404729D01*
X159992844Y-107407491D01*
X160000343Y-107437778D01*
X160009727Y-107467529D01*
X160008671Y-107471408D01*
X160009638Y-107475312D01*
X159999573Y-107504844D01*
X159991383Y-107534947D01*
X159988397Y-107537640D01*
X159987100Y-107541447D01*
X159942051Y-107580483D01*
X159932440Y-107585380D01*
X159878282Y-107624727D01*
X159878282Y-107624728D01*
X160510591Y-108257037D01*
X160447007Y-108274075D01*
X160332993Y-108339901D01*
X160239901Y-108432993D01*
X160174075Y-108547007D01*
X160157037Y-108610591D01*
X159524728Y-107978282D01*
X159524727Y-107978282D01*
X159499819Y-108012567D01*
X159444489Y-108055233D01*
X159374876Y-108061212D01*
X159313080Y-108028607D01*
X159278723Y-107967769D01*
X159275500Y-107939682D01*
X159275500Y-107000315D01*
X159295185Y-106933276D01*
X159347989Y-106887521D01*
X159417147Y-106877577D01*
X159480703Y-106906602D01*
X159499819Y-106927431D01*
X159524728Y-106961716D01*
X160157037Y-106329408D01*
X160174075Y-106392993D01*
G37*
%TD.AperFunction*%
%TA.AperFunction,Conductor*%
G36*
X162714075Y-106392993D02*
G01*
X162779901Y-106507007D01*
X162872993Y-106600099D01*
X162987007Y-106665925D01*
X163050590Y-106682962D01*
X162418282Y-107315269D01*
X162418282Y-107315270D01*
X162472452Y-107354626D01*
X162482048Y-107359516D01*
X162532844Y-107407491D01*
X162549638Y-107475312D01*
X162527100Y-107541447D01*
X162482051Y-107580483D01*
X162472440Y-107585380D01*
X162418282Y-107624727D01*
X162418282Y-107624728D01*
X163050591Y-108257037D01*
X162987007Y-108274075D01*
X162872993Y-108339901D01*
X162779901Y-108432993D01*
X162714075Y-108547007D01*
X162697037Y-108610591D01*
X162064728Y-107978282D01*
X162064727Y-107978282D01*
X162025380Y-108032440D01*
X162020483Y-108042051D01*
X161972506Y-108092845D01*
X161904684Y-108109638D01*
X161838550Y-108087098D01*
X161799516Y-108042048D01*
X161794626Y-108032452D01*
X161755270Y-107978282D01*
X161755269Y-107978282D01*
X161122962Y-108610590D01*
X161105925Y-108547007D01*
X161040099Y-108432993D01*
X160947007Y-108339901D01*
X160832993Y-108274075D01*
X160769409Y-108257037D01*
X161401716Y-107624728D01*
X161347550Y-107585375D01*
X161337954Y-107580486D01*
X161287157Y-107532512D01*
X161270361Y-107464692D01*
X161291288Y-107400895D01*
X161370027Y-107283581D01*
X160769408Y-106682962D01*
X160832993Y-106665925D01*
X160947007Y-106600099D01*
X161040099Y-106507007D01*
X161105925Y-106392993D01*
X161122962Y-106329408D01*
X161755270Y-106961717D01*
X161755270Y-106961716D01*
X161794622Y-106907554D01*
X161799514Y-106897954D01*
X161847488Y-106847157D01*
X161915308Y-106830361D01*
X161981444Y-106852897D01*
X162020486Y-106897954D01*
X162025375Y-106907550D01*
X162064728Y-106961716D01*
X162697037Y-106329408D01*
X162714075Y-106392993D01*
G37*
%TD.AperFunction*%
%TA.AperFunction,Conductor*%
G36*
X164295270Y-106961717D02*
G01*
X164295270Y-106961716D01*
X164320182Y-106927430D01*
X164375512Y-106884765D01*
X164445126Y-106878786D01*
X164506921Y-106911392D01*
X164541278Y-106972231D01*
X164544500Y-107000316D01*
X164544500Y-107939684D01*
X164524815Y-108006723D01*
X164472011Y-108052478D01*
X164402853Y-108062422D01*
X164339297Y-108033397D01*
X164320182Y-108012569D01*
X164295271Y-107978282D01*
X164295269Y-107978282D01*
X163662962Y-108610590D01*
X163645925Y-108547007D01*
X163580099Y-108432993D01*
X163487007Y-108339901D01*
X163372993Y-108274075D01*
X163309409Y-108257037D01*
X163941716Y-107624728D01*
X163887550Y-107585375D01*
X163877954Y-107580486D01*
X163827157Y-107532512D01*
X163810361Y-107464692D01*
X163832897Y-107398556D01*
X163877954Y-107359514D01*
X163887554Y-107354622D01*
X163941716Y-107315270D01*
X163941717Y-107315270D01*
X163309408Y-106682962D01*
X163372993Y-106665925D01*
X163487007Y-106600099D01*
X163580099Y-106507007D01*
X163645925Y-106392993D01*
X163662962Y-106329408D01*
X164295270Y-106961717D01*
G37*
%TD.AperFunction*%
%TA.AperFunction,Conductor*%
G36*
X190796941Y-92474793D02*
G01*
X190862767Y-92588807D01*
X190955859Y-92681899D01*
X191069873Y-92747725D01*
X191133456Y-92764762D01*
X190501148Y-93397069D01*
X190501148Y-93397070D01*
X190555318Y-93436426D01*
X190564914Y-93441316D01*
X190615710Y-93489291D01*
X190632504Y-93557112D01*
X190609966Y-93623247D01*
X190564917Y-93662283D01*
X190555306Y-93667180D01*
X190501148Y-93706527D01*
X190501148Y-93706528D01*
X191133457Y-94338837D01*
X191069873Y-94355875D01*
X190955859Y-94421701D01*
X190862767Y-94514793D01*
X190796941Y-94628807D01*
X190779903Y-94692391D01*
X190147594Y-94060082D01*
X190147593Y-94060082D01*
X190108246Y-94114240D01*
X190103349Y-94123851D01*
X190055372Y-94174645D01*
X189987550Y-94191438D01*
X189921416Y-94168898D01*
X189882382Y-94123848D01*
X189877492Y-94114252D01*
X189838136Y-94060082D01*
X189838135Y-94060082D01*
X189205828Y-94692390D01*
X189188791Y-94628807D01*
X189122965Y-94514793D01*
X189029873Y-94421701D01*
X188915859Y-94355875D01*
X188852275Y-94338837D01*
X189484582Y-93706528D01*
X189430416Y-93667175D01*
X189420820Y-93662286D01*
X189370023Y-93614312D01*
X189353227Y-93546492D01*
X189374154Y-93482695D01*
X189452893Y-93365381D01*
X188852274Y-92764762D01*
X188915859Y-92747725D01*
X189029873Y-92681899D01*
X189122965Y-92588807D01*
X189188791Y-92474793D01*
X189205828Y-92411208D01*
X189838136Y-93043517D01*
X189838136Y-93043516D01*
X189877488Y-92989354D01*
X189882380Y-92979754D01*
X189930354Y-92928957D01*
X189998174Y-92912161D01*
X190064310Y-92934697D01*
X190103352Y-92979754D01*
X190108241Y-92989350D01*
X190147594Y-93043516D01*
X190779903Y-92411208D01*
X190796941Y-92474793D01*
G37*
%TD.AperFunction*%
%TA.AperFunction,Conductor*%
G36*
X188256941Y-92474793D02*
G01*
X188322767Y-92588807D01*
X188415859Y-92681899D01*
X188529873Y-92747725D01*
X188593457Y-92764762D01*
X187992837Y-93365381D01*
X188071577Y-93482695D01*
X188072786Y-93486529D01*
X188075710Y-93489291D01*
X188083209Y-93519578D01*
X188092593Y-93549329D01*
X188091537Y-93553208D01*
X188092504Y-93557112D01*
X188082439Y-93586644D01*
X188074249Y-93616747D01*
X188071263Y-93619440D01*
X188069966Y-93623247D01*
X188024917Y-93662283D01*
X188015306Y-93667180D01*
X187961148Y-93706527D01*
X187961148Y-93706528D01*
X188593457Y-94338837D01*
X188529873Y-94355875D01*
X188415859Y-94421701D01*
X188322767Y-94514793D01*
X188256941Y-94628807D01*
X188239903Y-94692390D01*
X187607594Y-94060082D01*
X187607593Y-94060082D01*
X187582685Y-94094367D01*
X187527355Y-94137033D01*
X187457742Y-94143012D01*
X187395946Y-94110407D01*
X187361589Y-94049569D01*
X187358366Y-94021482D01*
X187358366Y-93082115D01*
X187378051Y-93015076D01*
X187430855Y-92969321D01*
X187500013Y-92959377D01*
X187563569Y-92988402D01*
X187582685Y-93009231D01*
X187607594Y-93043516D01*
X188239903Y-92411208D01*
X188256941Y-92474793D01*
G37*
%TD.AperFunction*%
%TA.AperFunction,Conductor*%
G36*
X192378136Y-93043517D02*
G01*
X192378136Y-93043516D01*
X192403048Y-93009230D01*
X192458378Y-92966565D01*
X192527992Y-92960586D01*
X192589787Y-92993192D01*
X192624144Y-93054031D01*
X192627366Y-93082116D01*
X192627366Y-94021484D01*
X192607681Y-94088523D01*
X192554877Y-94134278D01*
X192485719Y-94144222D01*
X192422163Y-94115197D01*
X192403048Y-94094369D01*
X192378137Y-94060082D01*
X192378135Y-94060082D01*
X191745828Y-94692390D01*
X191728791Y-94628807D01*
X191662965Y-94514793D01*
X191569873Y-94421701D01*
X191455859Y-94355875D01*
X191392275Y-94338837D01*
X192024582Y-93706528D01*
X191970416Y-93667175D01*
X191960820Y-93662286D01*
X191910023Y-93614312D01*
X191893227Y-93546492D01*
X191915763Y-93480356D01*
X191960820Y-93441314D01*
X191970420Y-93436422D01*
X192024582Y-93397070D01*
X192024583Y-93397070D01*
X191392274Y-92764762D01*
X191455859Y-92747725D01*
X191569873Y-92681899D01*
X191662965Y-92588807D01*
X191728791Y-92474793D01*
X191745828Y-92411208D01*
X192378136Y-93043517D01*
G37*
%TD.AperFunction*%
%TA.AperFunction,Conductor*%
G36*
X217824275Y-75679805D02*
G01*
X217890101Y-75793819D01*
X217983193Y-75886911D01*
X218097207Y-75952737D01*
X218160791Y-75969774D01*
X217560171Y-76570393D01*
X217638911Y-76687707D01*
X217640120Y-76691541D01*
X217643044Y-76694303D01*
X217650543Y-76724590D01*
X217659927Y-76754341D01*
X217658871Y-76758220D01*
X217659838Y-76762124D01*
X217649773Y-76791656D01*
X217641583Y-76821759D01*
X217638597Y-76824452D01*
X217637300Y-76828259D01*
X217592251Y-76867295D01*
X217582640Y-76872192D01*
X217528482Y-76911539D01*
X217528482Y-76911540D01*
X218160791Y-77543849D01*
X218097207Y-77560887D01*
X217983193Y-77626713D01*
X217890101Y-77719805D01*
X217824275Y-77833819D01*
X217807237Y-77897403D01*
X217174928Y-77265094D01*
X217174927Y-77265094D01*
X217150019Y-77299379D01*
X217094689Y-77342045D01*
X217025076Y-77348024D01*
X216963280Y-77315419D01*
X216928923Y-77254581D01*
X216925700Y-77226494D01*
X216925700Y-76287127D01*
X216945385Y-76220088D01*
X216998189Y-76174333D01*
X217067347Y-76164389D01*
X217130903Y-76193414D01*
X217150019Y-76214243D01*
X217174928Y-76248528D01*
X217807237Y-75616220D01*
X217824275Y-75679805D01*
G37*
%TD.AperFunction*%
%TA.AperFunction,Conductor*%
G36*
X220364275Y-75679805D02*
G01*
X220430101Y-75793819D01*
X220523193Y-75886911D01*
X220637207Y-75952737D01*
X220700790Y-75969774D01*
X220068482Y-76602081D01*
X220068482Y-76602082D01*
X220122652Y-76641438D01*
X220132248Y-76646328D01*
X220183044Y-76694303D01*
X220199838Y-76762124D01*
X220177300Y-76828259D01*
X220132251Y-76867295D01*
X220122640Y-76872192D01*
X220068482Y-76911539D01*
X220068482Y-76911540D01*
X220700791Y-77543849D01*
X220637207Y-77560887D01*
X220523193Y-77626713D01*
X220430101Y-77719805D01*
X220364275Y-77833819D01*
X220347237Y-77897403D01*
X219714928Y-77265094D01*
X219714927Y-77265094D01*
X219675580Y-77319252D01*
X219670683Y-77328863D01*
X219622706Y-77379657D01*
X219554884Y-77396450D01*
X219488750Y-77373910D01*
X219449716Y-77328860D01*
X219444826Y-77319264D01*
X219405470Y-77265094D01*
X219405469Y-77265094D01*
X218773162Y-77897402D01*
X218756125Y-77833819D01*
X218690299Y-77719805D01*
X218597207Y-77626713D01*
X218483193Y-77560887D01*
X218419609Y-77543849D01*
X219051916Y-76911540D01*
X218997750Y-76872187D01*
X218988154Y-76867298D01*
X218937357Y-76819324D01*
X218920561Y-76751504D01*
X218941488Y-76687707D01*
X219020227Y-76570393D01*
X218419608Y-75969774D01*
X218483193Y-75952737D01*
X218597207Y-75886911D01*
X218690299Y-75793819D01*
X218756125Y-75679805D01*
X218773162Y-75616220D01*
X219405470Y-76248529D01*
X219405470Y-76248528D01*
X219444822Y-76194366D01*
X219449714Y-76184766D01*
X219497688Y-76133969D01*
X219565508Y-76117173D01*
X219631644Y-76139709D01*
X219670686Y-76184766D01*
X219675575Y-76194362D01*
X219714928Y-76248528D01*
X220347237Y-75616220D01*
X220364275Y-75679805D01*
G37*
%TD.AperFunction*%
%TA.AperFunction,Conductor*%
G36*
X221945470Y-76248529D02*
G01*
X221945470Y-76248528D01*
X221970382Y-76214242D01*
X222025712Y-76171577D01*
X222095326Y-76165598D01*
X222157121Y-76198204D01*
X222191478Y-76259043D01*
X222194700Y-76287128D01*
X222194700Y-77226496D01*
X222175015Y-77293535D01*
X222122211Y-77339290D01*
X222053053Y-77349234D01*
X221989497Y-77320209D01*
X221970382Y-77299381D01*
X221945471Y-77265094D01*
X221945469Y-77265094D01*
X221313162Y-77897402D01*
X221296125Y-77833819D01*
X221230299Y-77719805D01*
X221137207Y-77626713D01*
X221023193Y-77560887D01*
X220959609Y-77543849D01*
X221591916Y-76911540D01*
X221537750Y-76872187D01*
X221528154Y-76867298D01*
X221477357Y-76819324D01*
X221460561Y-76751504D01*
X221483097Y-76685368D01*
X221528154Y-76646326D01*
X221537754Y-76641434D01*
X221591916Y-76602082D01*
X221591917Y-76602082D01*
X220959608Y-75969774D01*
X221023193Y-75952737D01*
X221137207Y-75886911D01*
X221230299Y-75793819D01*
X221296125Y-75679805D01*
X221313162Y-75616220D01*
X221945470Y-76248529D01*
G37*
%TD.AperFunction*%
%TA.AperFunction,Conductor*%
G36*
X160186775Y-65610793D02*
G01*
X160252601Y-65724807D01*
X160345693Y-65817899D01*
X160459707Y-65883725D01*
X160523291Y-65900762D01*
X159922671Y-66501381D01*
X160001411Y-66618695D01*
X160002620Y-66622529D01*
X160005544Y-66625291D01*
X160013043Y-66655578D01*
X160022427Y-66685329D01*
X160021371Y-66689208D01*
X160022338Y-66693112D01*
X160012273Y-66722644D01*
X160004083Y-66752747D01*
X160001097Y-66755440D01*
X159999800Y-66759247D01*
X159954751Y-66798283D01*
X159945140Y-66803180D01*
X159890982Y-66842527D01*
X159890982Y-66842528D01*
X160523291Y-67474837D01*
X160459707Y-67491875D01*
X160345693Y-67557701D01*
X160252601Y-67650793D01*
X160186775Y-67764807D01*
X160169737Y-67828391D01*
X159537428Y-67196082D01*
X159537427Y-67196082D01*
X159512519Y-67230367D01*
X159457189Y-67273033D01*
X159387576Y-67279012D01*
X159325780Y-67246407D01*
X159291423Y-67185569D01*
X159288200Y-67157482D01*
X159288200Y-66218115D01*
X159307885Y-66151076D01*
X159360689Y-66105321D01*
X159429847Y-66095377D01*
X159493403Y-66124402D01*
X159512519Y-66145231D01*
X159537428Y-66179516D01*
X160169737Y-65547208D01*
X160186775Y-65610793D01*
G37*
%TD.AperFunction*%
%TA.AperFunction,Conductor*%
G36*
X162726775Y-65610793D02*
G01*
X162792601Y-65724807D01*
X162885693Y-65817899D01*
X162999707Y-65883725D01*
X163063290Y-65900762D01*
X162430982Y-66533069D01*
X162430982Y-66533070D01*
X162485152Y-66572426D01*
X162494748Y-66577316D01*
X162545544Y-66625291D01*
X162562338Y-66693112D01*
X162539800Y-66759247D01*
X162494751Y-66798283D01*
X162485140Y-66803180D01*
X162430982Y-66842527D01*
X162430982Y-66842528D01*
X163063291Y-67474837D01*
X162999707Y-67491875D01*
X162885693Y-67557701D01*
X162792601Y-67650793D01*
X162726775Y-67764807D01*
X162709737Y-67828391D01*
X162077428Y-67196082D01*
X162077427Y-67196082D01*
X162038080Y-67250240D01*
X162033183Y-67259851D01*
X161985206Y-67310645D01*
X161917384Y-67327438D01*
X161851250Y-67304898D01*
X161812216Y-67259848D01*
X161807326Y-67250252D01*
X161767970Y-67196082D01*
X161767969Y-67196082D01*
X161135662Y-67828390D01*
X161118625Y-67764807D01*
X161052799Y-67650793D01*
X160959707Y-67557701D01*
X160845693Y-67491875D01*
X160782109Y-67474837D01*
X161414416Y-66842528D01*
X161360250Y-66803175D01*
X161350654Y-66798286D01*
X161299857Y-66750312D01*
X161283061Y-66682492D01*
X161303988Y-66618695D01*
X161382727Y-66501381D01*
X160782108Y-65900762D01*
X160845693Y-65883725D01*
X160959707Y-65817899D01*
X161052799Y-65724807D01*
X161118625Y-65610793D01*
X161135662Y-65547209D01*
X161767970Y-66179517D01*
X161767970Y-66179516D01*
X161807322Y-66125354D01*
X161812214Y-66115754D01*
X161860188Y-66064957D01*
X161928008Y-66048161D01*
X161994144Y-66070697D01*
X162033186Y-66115754D01*
X162038075Y-66125350D01*
X162077428Y-66179516D01*
X162709737Y-65547208D01*
X162726775Y-65610793D01*
G37*
%TD.AperFunction*%
%TA.AperFunction,Conductor*%
G36*
X164307970Y-66179517D02*
G01*
X164307970Y-66179516D01*
X164332882Y-66145230D01*
X164388212Y-66102565D01*
X164457826Y-66096586D01*
X164519621Y-66129192D01*
X164553978Y-66190031D01*
X164557200Y-66218116D01*
X164557200Y-67157484D01*
X164537515Y-67224523D01*
X164484711Y-67270278D01*
X164415553Y-67280222D01*
X164351997Y-67251197D01*
X164332882Y-67230369D01*
X164307971Y-67196082D01*
X164307969Y-67196082D01*
X163675662Y-67828390D01*
X163658625Y-67764807D01*
X163592799Y-67650793D01*
X163499707Y-67557701D01*
X163385693Y-67491875D01*
X163322109Y-67474837D01*
X163954416Y-66842528D01*
X163900250Y-66803175D01*
X163890654Y-66798286D01*
X163839857Y-66750312D01*
X163823061Y-66682492D01*
X163845597Y-66616356D01*
X163890654Y-66577314D01*
X163900254Y-66572422D01*
X163954416Y-66533070D01*
X163954417Y-66533070D01*
X163322108Y-65900762D01*
X163385693Y-65883725D01*
X163499707Y-65817899D01*
X163592799Y-65724807D01*
X163658625Y-65610793D01*
X163675662Y-65547208D01*
X164307970Y-66179517D01*
G37*
%TD.AperFunction*%
%TA.AperFunction,Conductor*%
G36*
X178228270Y-32620185D02*
G01*
X178228630Y-32620416D01*
X181937216Y-35024262D01*
X194945711Y-43456158D01*
X194991259Y-43509140D01*
X195000933Y-43578336D01*
X194971661Y-43641778D01*
X194912736Y-43679323D01*
X194842867Y-43679051D01*
X194824463Y-43671931D01*
X194725486Y-43624266D01*
X194441852Y-43525017D01*
X194441840Y-43525013D01*
X194215738Y-43473407D01*
X194148870Y-43458145D01*
X194148866Y-43458144D01*
X194148857Y-43458143D01*
X193850257Y-43424499D01*
X193850253Y-43424499D01*
X193549748Y-43424499D01*
X193549743Y-43424499D01*
X193251143Y-43458143D01*
X193251131Y-43458145D01*
X192958160Y-43525013D01*
X192958148Y-43525017D01*
X192674513Y-43624266D01*
X192674505Y-43624269D01*
X192403776Y-43754645D01*
X192149327Y-43914528D01*
X191914381Y-44101890D01*
X185728091Y-50288181D01*
X185666768Y-50321666D01*
X185640410Y-50324500D01*
X176058590Y-50324500D01*
X175991551Y-50304815D01*
X175945796Y-50252011D01*
X175935852Y-50182853D01*
X175964877Y-50119297D01*
X175970909Y-50112819D01*
X180432598Y-45651130D01*
X184998109Y-41085619D01*
X185185471Y-40850674D01*
X185345351Y-40596229D01*
X185475735Y-40325483D01*
X185574985Y-40041840D01*
X185641855Y-39748869D01*
X185675501Y-39450252D01*
X185675501Y-39149747D01*
X185641855Y-38851131D01*
X185574985Y-38558159D01*
X185475735Y-38274517D01*
X185475732Y-38274510D01*
X185345354Y-38003776D01*
X185234639Y-37827575D01*
X185185471Y-37749325D01*
X184998109Y-37514381D01*
X184785619Y-37301891D01*
X184550675Y-37114529D01*
X184416450Y-37030189D01*
X184296223Y-36954645D01*
X184025489Y-36824267D01*
X184025485Y-36824265D01*
X183741842Y-36725015D01*
X183741840Y-36725014D01*
X183515738Y-36673407D01*
X183448869Y-36658145D01*
X183448865Y-36658144D01*
X183448856Y-36658143D01*
X183150257Y-36624499D01*
X183150253Y-36624499D01*
X182849748Y-36624499D01*
X182849743Y-36624499D01*
X182551143Y-36658143D01*
X182551131Y-36658145D01*
X182258160Y-36725014D01*
X182258158Y-36725015D01*
X181974514Y-36824265D01*
X181974510Y-36824267D01*
X181703776Y-36954645D01*
X181449327Y-37114528D01*
X181214381Y-37301890D01*
X168228091Y-50288181D01*
X168166768Y-50321666D01*
X168140410Y-50324500D01*
X150758591Y-50324500D01*
X150691552Y-50304815D01*
X150645797Y-50252011D01*
X150635853Y-50182853D01*
X150664878Y-50119297D01*
X150670910Y-50112819D01*
X153795924Y-46987805D01*
X164174500Y-46987805D01*
X164174500Y-47212194D01*
X164209599Y-47433805D01*
X164278938Y-47647206D01*
X164380805Y-47847128D01*
X164512683Y-48028644D01*
X164512687Y-48028649D01*
X164671350Y-48187312D01*
X164671355Y-48187316D01*
X164829683Y-48302347D01*
X164852875Y-48319197D01*
X164980264Y-48384105D01*
X165052793Y-48421061D01*
X165052795Y-48421061D01*
X165052798Y-48421063D01*
X165167184Y-48458229D01*
X165266194Y-48490400D01*
X165487806Y-48525500D01*
X165487811Y-48525500D01*
X165712194Y-48525500D01*
X165933805Y-48490400D01*
X166147202Y-48421063D01*
X166347125Y-48319197D01*
X166528651Y-48187311D01*
X166687311Y-48028651D01*
X166819197Y-47847125D01*
X166921063Y-47647202D01*
X166990400Y-47433805D01*
X166996352Y-47396223D01*
X167025500Y-47212194D01*
X167025500Y-46987813D01*
X167025499Y-46987805D01*
X167014750Y-46919940D01*
X167023704Y-46850650D01*
X167049539Y-46812867D01*
X174650589Y-39211819D01*
X174711912Y-39178334D01*
X174738270Y-39175500D01*
X174809811Y-39175500D01*
X174809818Y-39175500D01*
X175027575Y-39146832D01*
X175239727Y-39089986D01*
X175442645Y-39005935D01*
X175632855Y-38896116D01*
X175807104Y-38762410D01*
X175962410Y-38607104D01*
X176096116Y-38432855D01*
X176205935Y-38242645D01*
X176289986Y-38039727D01*
X176346832Y-37827575D01*
X176375500Y-37609818D01*
X176375500Y-37390182D01*
X176346832Y-37172425D01*
X176289986Y-36960273D01*
X176287656Y-36954649D01*
X176205936Y-36757358D01*
X176205935Y-36757355D01*
X176096116Y-36567145D01*
X175962410Y-36392896D01*
X175962405Y-36392890D01*
X175807109Y-36237594D01*
X175807102Y-36237588D01*
X175632863Y-36103890D01*
X175632861Y-36103889D01*
X175632855Y-36103884D01*
X175442645Y-35994065D01*
X175442641Y-35994063D01*
X175239729Y-35910014D01*
X175027573Y-35853167D01*
X174809828Y-35824501D01*
X174809823Y-35824500D01*
X174809818Y-35824500D01*
X174590182Y-35824500D01*
X174590176Y-35824500D01*
X174590171Y-35824501D01*
X174372426Y-35853167D01*
X174160270Y-35910014D01*
X173957358Y-35994063D01*
X173957354Y-35994065D01*
X173767145Y-36103884D01*
X173767136Y-36103890D01*
X173592897Y-36237588D01*
X173592890Y-36237594D01*
X173437594Y-36392890D01*
X173437588Y-36392897D01*
X173303890Y-36567136D01*
X173303884Y-36567145D01*
X173194065Y-36757354D01*
X173194063Y-36757358D01*
X173110014Y-36960270D01*
X173053167Y-37172426D01*
X173024501Y-37390171D01*
X173024500Y-37390188D01*
X173024500Y-37461730D01*
X173004815Y-37528769D01*
X172988181Y-37549411D01*
X164703381Y-45834210D01*
X164703381Y-45834211D01*
X164703379Y-45834213D01*
X164656672Y-45898499D01*
X164594622Y-45983903D01*
X164510620Y-46148763D01*
X164501741Y-46176092D01*
X164484129Y-46210657D01*
X164380805Y-46352871D01*
X164278938Y-46552793D01*
X164209599Y-46766194D01*
X164174500Y-46987805D01*
X153795924Y-46987805D01*
X153888471Y-46895258D01*
X154017535Y-46766194D01*
X154298109Y-46485620D01*
X154344398Y-46427575D01*
X154485472Y-46250675D01*
X154589183Y-46085619D01*
X154645351Y-45996229D01*
X154775735Y-45725483D01*
X154781293Y-45709600D01*
X154874986Y-45441841D01*
X154924368Y-45225483D01*
X154941855Y-45148869D01*
X154975500Y-44850253D01*
X154975500Y-44549748D01*
X154975500Y-44149747D01*
X154964233Y-44049748D01*
X154948998Y-43914528D01*
X154941857Y-43851143D01*
X154941855Y-43851138D01*
X154941855Y-43851130D01*
X154904995Y-43689639D01*
X154902640Y-43679323D01*
X154878609Y-43574032D01*
X154875500Y-43546440D01*
X154875500Y-37349744D01*
X154875499Y-37349742D01*
X154870107Y-37301890D01*
X154841854Y-37051131D01*
X154774986Y-36758159D01*
X154774704Y-36757354D01*
X154675737Y-36474523D01*
X154675735Y-36474517D01*
X154545350Y-36203771D01*
X154385472Y-35949325D01*
X154198109Y-35714380D01*
X153985620Y-35501891D01*
X153750675Y-35314528D01*
X153496229Y-35154650D01*
X153496226Y-35154648D01*
X153225490Y-35024268D01*
X153225476Y-35024262D01*
X152941852Y-34925017D01*
X152941840Y-34925013D01*
X152648862Y-34858144D01*
X152648863Y-34858144D01*
X152350257Y-34824500D01*
X152350253Y-34824500D01*
X152049747Y-34824500D01*
X152049742Y-34824500D01*
X151751137Y-34858144D01*
X151458159Y-34925013D01*
X151458147Y-34925017D01*
X151174523Y-35024262D01*
X151174509Y-35024268D01*
X150903773Y-35154648D01*
X150649326Y-35314527D01*
X150414380Y-35501890D01*
X150201890Y-35714380D01*
X150014527Y-35949326D01*
X149854648Y-36203773D01*
X149724268Y-36474509D01*
X149724262Y-36474523D01*
X149625017Y-36758147D01*
X149625013Y-36758159D01*
X149558144Y-37051137D01*
X149524500Y-37349742D01*
X149524500Y-43640409D01*
X149504815Y-43707448D01*
X149488181Y-43728090D01*
X130928091Y-62288181D01*
X130866768Y-62321666D01*
X130840410Y-62324500D01*
X86849740Y-62324500D01*
X86551144Y-62358142D01*
X86551131Y-62358145D01*
X86404645Y-62391580D01*
X86404644Y-62391580D01*
X86258159Y-62425013D01*
X86258147Y-62425017D01*
X85974523Y-62524262D01*
X85974501Y-62524271D01*
X85703776Y-62654645D01*
X85579308Y-62732855D01*
X85449326Y-62814527D01*
X85214380Y-63001890D01*
X83803090Y-64413180D01*
X83615727Y-64648126D01*
X83542868Y-64764082D01*
X83455845Y-64902576D01*
X83336572Y-65150253D01*
X83336571Y-65150256D01*
X83325468Y-65173309D01*
X83325462Y-65173323D01*
X83226217Y-65456947D01*
X83226213Y-65456959D01*
X83212099Y-65518802D01*
X83212099Y-65518803D01*
X83159343Y-65749936D01*
X83141699Y-65906550D01*
X83141699Y-65906551D01*
X83125700Y-66048542D01*
X83125700Y-66469657D01*
X83159344Y-66768262D01*
X83226213Y-67061240D01*
X83226217Y-67061252D01*
X83325462Y-67344876D01*
X83325468Y-67344890D01*
X83455848Y-67615626D01*
X83455850Y-67615629D01*
X83615728Y-67870075D01*
X83803091Y-68105020D01*
X84015580Y-68317509D01*
X84250525Y-68504872D01*
X84504971Y-68664750D01*
X84775717Y-68795135D01*
X84775723Y-68795137D01*
X85059347Y-68894382D01*
X85059359Y-68894386D01*
X85352331Y-68961254D01*
X85352334Y-68961254D01*
X85352337Y-68961255D01*
X85352336Y-68961255D01*
X85501639Y-68978077D01*
X85650943Y-68994899D01*
X85650944Y-68994900D01*
X85650947Y-68994900D01*
X85951456Y-68994900D01*
X85951456Y-68994899D01*
X86167111Y-68970601D01*
X86250062Y-68961255D01*
X86250063Y-68961254D01*
X86250069Y-68961254D01*
X86543041Y-68894386D01*
X86826683Y-68795135D01*
X87097429Y-68664750D01*
X87351875Y-68504872D01*
X87586820Y-68317509D01*
X87799309Y-68105020D01*
X87986672Y-67870075D01*
X88072470Y-67733528D01*
X88124805Y-67687237D01*
X88177464Y-67675500D01*
X130840410Y-67675500D01*
X130907449Y-67695185D01*
X130928090Y-67711818D01*
X143601890Y-80385619D01*
X143601891Y-80385620D01*
X143814380Y-80598109D01*
X144049325Y-80785472D01*
X144146133Y-80846300D01*
X144245185Y-80908539D01*
X144303771Y-80945352D01*
X144303775Y-80945354D01*
X144574505Y-81075730D01*
X144574512Y-81075732D01*
X144574517Y-81075735D01*
X144787534Y-81150273D01*
X144858147Y-81174982D01*
X144858162Y-81174987D01*
X144906428Y-81186003D01*
X144989639Y-81204995D01*
X145151130Y-81241855D01*
X145151138Y-81241855D01*
X145151143Y-81241857D01*
X145365227Y-81265977D01*
X145449741Y-81275499D01*
X145449744Y-81275500D01*
X145449747Y-81275500D01*
X152650256Y-81275500D01*
X152650256Y-81275499D01*
X152865911Y-81251201D01*
X152948862Y-81241855D01*
X152948863Y-81241854D01*
X152948869Y-81241854D01*
X153241841Y-81174986D01*
X153525483Y-81075735D01*
X153796229Y-80945350D01*
X154050675Y-80785472D01*
X154285620Y-80598109D01*
X154498109Y-80385620D01*
X154685472Y-80150675D01*
X154845350Y-79896229D01*
X154975735Y-79625483D01*
X155074986Y-79341841D01*
X155141854Y-79048869D01*
X155143734Y-79032189D01*
X155151201Y-78965911D01*
X155175500Y-78750253D01*
X155175500Y-78449747D01*
X155141854Y-78151131D01*
X155074986Y-77858159D01*
X155074704Y-77857354D01*
X154975737Y-77574523D01*
X154975735Y-77574517D01*
X154845350Y-77303771D01*
X154685472Y-77049325D01*
X154498109Y-76814380D01*
X154285620Y-76601891D01*
X154050675Y-76414528D01*
X153847916Y-76287127D01*
X153796226Y-76254648D01*
X153525490Y-76124268D01*
X153525476Y-76124262D01*
X153241852Y-76025017D01*
X153241840Y-76025013D01*
X152948862Y-75958144D01*
X152948863Y-75958144D01*
X152650257Y-75924500D01*
X152650253Y-75924500D01*
X146759591Y-75924500D01*
X146692552Y-75904815D01*
X146671910Y-75888181D01*
X137745177Y-66961448D01*
X152621200Y-66961448D01*
X152621200Y-67166151D01*
X152653222Y-67368334D01*
X152716481Y-67563023D01*
X152809415Y-67745413D01*
X152929728Y-67911013D01*
X153074486Y-68055771D01*
X153229449Y-68168356D01*
X153240090Y-68176087D01*
X153356307Y-68235303D01*
X153422476Y-68269018D01*
X153422478Y-68269018D01*
X153422481Y-68269020D01*
X153526837Y-68302927D01*
X153617165Y-68332277D01*
X153718257Y-68348288D01*
X153819348Y-68364300D01*
X153819349Y-68364300D01*
X154024051Y-68364300D01*
X154024052Y-68364300D01*
X154226234Y-68332277D01*
X154420919Y-68269020D01*
X154603310Y-68176087D01*
X154762716Y-68060273D01*
X154768913Y-68055771D01*
X154768915Y-68055768D01*
X154768919Y-68055766D01*
X154913666Y-67911019D01*
X154913668Y-67911015D01*
X154913671Y-67911013D01*
X155019894Y-67764807D01*
X155033987Y-67745410D01*
X155126920Y-67563019D01*
X155190177Y-67368334D01*
X155222200Y-67166152D01*
X155222200Y-66961448D01*
X155203365Y-66842528D01*
X155190177Y-66759265D01*
X155129469Y-66572426D01*
X155126920Y-66564581D01*
X155126918Y-66564578D01*
X155126918Y-66564576D01*
X155093203Y-66498407D01*
X155033987Y-66382190D01*
X155010600Y-66350000D01*
X154913671Y-66216586D01*
X154768913Y-66071828D01*
X154603313Y-65951515D01*
X154603312Y-65951514D01*
X154603310Y-65951513D01*
X154537145Y-65917800D01*
X154420923Y-65858581D01*
X154226234Y-65795322D01*
X154051695Y-65767678D01*
X154024052Y-65763300D01*
X153819348Y-65763300D01*
X153795029Y-65767151D01*
X153617165Y-65795322D01*
X153422476Y-65858581D01*
X153240086Y-65951515D01*
X153074486Y-66071828D01*
X152929728Y-66216586D01*
X152809415Y-66382186D01*
X152716481Y-66564576D01*
X152653222Y-66759265D01*
X152621200Y-66961448D01*
X137745177Y-66961448D01*
X136109015Y-65325286D01*
X156937200Y-65325286D01*
X156937200Y-70900313D01*
X156966145Y-71083065D01*
X157023319Y-71259033D01*
X157023320Y-71259036D01*
X157107322Y-71423896D01*
X157216079Y-71573587D01*
X159439114Y-73796622D01*
X159588804Y-73905378D01*
X159602358Y-73912284D01*
X159753659Y-73989377D01*
X159753661Y-73989377D01*
X159753664Y-73989379D01*
X159929636Y-74046556D01*
X160087399Y-74071542D01*
X160112386Y-74075500D01*
X175092513Y-74075500D01*
X175092514Y-74075500D01*
X175275264Y-74046555D01*
X175451235Y-73989379D01*
X175616096Y-73905378D01*
X175765787Y-73796621D01*
X175896621Y-73665787D01*
X176005378Y-73516096D01*
X176089379Y-73351235D01*
X176146555Y-73175264D01*
X176148641Y-73162088D01*
X176151433Y-73144465D01*
X176181362Y-73081330D01*
X176186207Y-73076199D01*
X182396621Y-66865787D01*
X182465683Y-66770730D01*
X182521012Y-66728067D01*
X182590625Y-66722088D01*
X182652420Y-66754694D01*
X182686778Y-66815533D01*
X182690000Y-66843618D01*
X182690000Y-66997844D01*
X182696401Y-67057372D01*
X182696403Y-67057379D01*
X182746645Y-67192086D01*
X182746649Y-67192093D01*
X182832809Y-67307187D01*
X182832812Y-67307190D01*
X182947906Y-67393350D01*
X182947913Y-67393354D01*
X183082620Y-67443596D01*
X183082627Y-67443598D01*
X183142155Y-67449999D01*
X183142172Y-67450000D01*
X183790000Y-67450000D01*
X183790000Y-66533012D01*
X183847007Y-66565925D01*
X183974174Y-66600000D01*
X184105826Y-66600000D01*
X184232993Y-66565925D01*
X184290000Y-66533012D01*
X184290000Y-67450000D01*
X184937828Y-67450000D01*
X184937844Y-67449999D01*
X184997372Y-67443598D01*
X184997379Y-67443596D01*
X185132086Y-67393354D01*
X185132093Y-67393350D01*
X185247187Y-67307190D01*
X185247190Y-67307187D01*
X185333350Y-67192093D01*
X185333354Y-67192086D01*
X185383596Y-67057379D01*
X185383598Y-67057372D01*
X185389999Y-66997844D01*
X185390000Y-66997827D01*
X185390000Y-66350000D01*
X184473012Y-66350000D01*
X184505925Y-66292993D01*
X184540000Y-66165826D01*
X184540000Y-66034174D01*
X184505925Y-65907007D01*
X184473012Y-65850000D01*
X185390000Y-65850000D01*
X185390000Y-65202172D01*
X185389999Y-65202155D01*
X185383598Y-65142627D01*
X185383596Y-65142620D01*
X185333354Y-65007913D01*
X185333350Y-65007906D01*
X185247190Y-64892812D01*
X185247187Y-64892809D01*
X185132093Y-64806649D01*
X185132086Y-64806645D01*
X184997379Y-64756403D01*
X184997372Y-64756401D01*
X184937844Y-64750000D01*
X184290000Y-64750000D01*
X184290000Y-65666988D01*
X184232993Y-65634075D01*
X184105826Y-65600000D01*
X183974174Y-65600000D01*
X183847007Y-65634075D01*
X183790000Y-65666988D01*
X183790000Y-64750000D01*
X183142155Y-64750000D01*
X183082627Y-64756401D01*
X183082620Y-64756403D01*
X182947913Y-64806645D01*
X182947906Y-64806649D01*
X182832812Y-64892809D01*
X182832809Y-64892812D01*
X182746649Y-65007906D01*
X182746645Y-65007913D01*
X182696403Y-65142620D01*
X182696401Y-65142627D01*
X182690000Y-65202155D01*
X182690000Y-65356381D01*
X182670315Y-65423420D01*
X182617511Y-65469175D01*
X182548353Y-65479119D01*
X182484797Y-65450094D01*
X182465682Y-65429267D01*
X182409525Y-65351974D01*
X182396621Y-65334213D01*
X182265787Y-65203379D01*
X182116096Y-65094622D01*
X181951238Y-65010623D01*
X181951237Y-65010622D01*
X181951236Y-65010622D01*
X181775264Y-64953445D01*
X181775262Y-64953444D01*
X181775261Y-64953444D01*
X181634876Y-64931209D01*
X181592513Y-64924500D01*
X181407486Y-64924500D01*
X181365122Y-64931209D01*
X181224739Y-64953444D01*
X181048761Y-65010623D01*
X180883903Y-65094622D01*
X180807330Y-65150256D01*
X180734213Y-65203379D01*
X180734211Y-65203381D01*
X180734210Y-65203381D01*
X174249411Y-71688181D01*
X174188088Y-71721666D01*
X174161730Y-71724500D01*
X160743170Y-71724500D01*
X160676131Y-71704815D01*
X160655489Y-71688181D01*
X159324519Y-70357211D01*
X159291034Y-70295888D01*
X159288200Y-70269530D01*
X159288200Y-68758115D01*
X159307885Y-68691076D01*
X159360689Y-68645321D01*
X159429847Y-68635377D01*
X159493403Y-68664402D01*
X159512519Y-68685231D01*
X159537428Y-68719516D01*
X160169737Y-68087208D01*
X160186775Y-68150793D01*
X160252601Y-68264807D01*
X160345693Y-68357899D01*
X160459707Y-68423725D01*
X160523290Y-68440762D01*
X159890982Y-69073069D01*
X159890982Y-69073070D01*
X159945149Y-69112424D01*
X160134482Y-69208895D01*
X160336570Y-69274557D01*
X160546454Y-69307800D01*
X160758946Y-69307800D01*
X160968827Y-69274557D01*
X160968830Y-69274557D01*
X161170917Y-69208895D01*
X161360254Y-69112422D01*
X161414416Y-69073070D01*
X161414417Y-69073070D01*
X160782108Y-68440762D01*
X160845693Y-68423725D01*
X160959707Y-68357899D01*
X161052799Y-68264807D01*
X161118625Y-68150793D01*
X161135662Y-68087208D01*
X161767970Y-68719517D01*
X161767970Y-68719516D01*
X161807322Y-68665354D01*
X161812214Y-68655754D01*
X161860188Y-68604957D01*
X161928008Y-68588161D01*
X161994144Y-68610697D01*
X162033186Y-68655754D01*
X162038075Y-68665350D01*
X162077428Y-68719516D01*
X162709737Y-68087208D01*
X162726775Y-68150793D01*
X162792601Y-68264807D01*
X162885693Y-68357899D01*
X162999707Y-68423725D01*
X163063290Y-68440762D01*
X162430982Y-69073069D01*
X162430982Y-69073070D01*
X162485149Y-69112424D01*
X162674482Y-69208895D01*
X162876570Y-69274557D01*
X163086454Y-69307800D01*
X163298946Y-69307800D01*
X163508827Y-69274557D01*
X163508830Y-69274557D01*
X163710917Y-69208895D01*
X163900254Y-69112422D01*
X163954416Y-69073070D01*
X163954417Y-69073070D01*
X163322108Y-68440762D01*
X163385693Y-68423725D01*
X163499707Y-68357899D01*
X163592799Y-68264807D01*
X163658625Y-68150793D01*
X163675662Y-68087208D01*
X164307970Y-68719517D01*
X164307970Y-68719516D01*
X164347322Y-68665354D01*
X164443791Y-68476025D01*
X164445632Y-68471581D01*
X164489471Y-68417176D01*
X164555764Y-68395107D01*
X164623464Y-68412383D01*
X164670681Y-68462733D01*
X164692152Y-68504872D01*
X164727322Y-68573896D01*
X164836079Y-68723587D01*
X164966913Y-68854421D01*
X165116604Y-68963178D01*
X165178481Y-68994706D01*
X165281464Y-69047179D01*
X165281467Y-69047180D01*
X165307979Y-69055794D01*
X165457436Y-69104355D01*
X165640186Y-69133300D01*
X165640187Y-69133300D01*
X165825213Y-69133300D01*
X165825214Y-69133300D01*
X166007964Y-69104355D01*
X166183935Y-69047179D01*
X166348796Y-68963178D01*
X166498487Y-68854421D01*
X166629321Y-68723587D01*
X166738078Y-68573896D01*
X166822079Y-68409035D01*
X166879255Y-68233064D01*
X166908200Y-68050314D01*
X166908200Y-66961448D01*
X173703200Y-66961448D01*
X173703200Y-67166151D01*
X173735222Y-67368334D01*
X173798481Y-67563023D01*
X173891415Y-67745413D01*
X174011728Y-67911013D01*
X174156486Y-68055771D01*
X174311449Y-68168356D01*
X174322090Y-68176087D01*
X174438307Y-68235303D01*
X174504476Y-68269018D01*
X174504478Y-68269018D01*
X174504481Y-68269020D01*
X174608837Y-68302927D01*
X174699165Y-68332277D01*
X174800257Y-68348288D01*
X174901348Y-68364300D01*
X174901349Y-68364300D01*
X175106051Y-68364300D01*
X175106052Y-68364300D01*
X175308234Y-68332277D01*
X175502919Y-68269020D01*
X175685310Y-68176087D01*
X175844716Y-68060273D01*
X175850913Y-68055771D01*
X175850915Y-68055768D01*
X175850919Y-68055766D01*
X175995666Y-67911019D01*
X175995668Y-67911015D01*
X175995671Y-67911013D01*
X176101894Y-67764807D01*
X176115987Y-67745410D01*
X176208920Y-67563019D01*
X176272177Y-67368334D01*
X176304200Y-67166152D01*
X176304200Y-66961448D01*
X176285365Y-66842528D01*
X176272177Y-66759265D01*
X176211469Y-66572426D01*
X176208920Y-66564581D01*
X176208918Y-66564578D01*
X176208918Y-66564576D01*
X176175203Y-66498407D01*
X176115987Y-66382190D01*
X176092600Y-66350000D01*
X175995671Y-66216586D01*
X175850913Y-66071828D01*
X175685313Y-65951515D01*
X175685312Y-65951514D01*
X175685310Y-65951513D01*
X175619145Y-65917800D01*
X175502923Y-65858581D01*
X175308234Y-65795322D01*
X175133695Y-65767678D01*
X175106052Y-65763300D01*
X174901348Y-65763300D01*
X174877029Y-65767151D01*
X174699165Y-65795322D01*
X174504476Y-65858581D01*
X174322086Y-65951515D01*
X174156486Y-66071828D01*
X174011728Y-66216586D01*
X173891415Y-66382186D01*
X173798481Y-66564576D01*
X173735222Y-66759265D01*
X173703200Y-66961448D01*
X166908200Y-66961448D01*
X166908200Y-65325286D01*
X166879255Y-65142536D01*
X166850667Y-65054550D01*
X166822080Y-64966567D01*
X166822076Y-64966559D01*
X166789015Y-64901671D01*
X166775500Y-64845377D01*
X166775500Y-61690188D01*
X181324500Y-61690188D01*
X181324500Y-61909811D01*
X181324501Y-61909828D01*
X181353167Y-62127573D01*
X181410014Y-62339729D01*
X181486454Y-62524271D01*
X181494065Y-62542645D01*
X181603884Y-62732855D01*
X181603889Y-62732861D01*
X181603890Y-62732863D01*
X181737588Y-62907102D01*
X181737594Y-62907109D01*
X181892890Y-63062405D01*
X181892896Y-63062410D01*
X182067145Y-63196116D01*
X182257355Y-63305935D01*
X182358814Y-63347960D01*
X182460270Y-63389985D01*
X182460271Y-63389985D01*
X182460273Y-63389986D01*
X182672425Y-63446832D01*
X182890182Y-63475500D01*
X182890189Y-63475500D01*
X183109811Y-63475500D01*
X183109818Y-63475500D01*
X183327575Y-63446832D01*
X183539727Y-63389986D01*
X183742645Y-63305935D01*
X183742652Y-63305930D01*
X183742656Y-63305929D01*
X183850994Y-63243379D01*
X183918894Y-63226905D01*
X183984921Y-63249757D01*
X184000676Y-63263084D01*
X187088181Y-66350589D01*
X187121666Y-66411912D01*
X187124500Y-66438270D01*
X187124500Y-81992513D01*
X187153445Y-82175265D01*
X187210619Y-82351233D01*
X187210620Y-82351236D01*
X187294622Y-82516096D01*
X187403379Y-82665787D01*
X187403381Y-82665789D01*
X192591047Y-87853455D01*
X192624532Y-87914778D01*
X192627366Y-87941136D01*
X192627366Y-91481484D01*
X192607681Y-91548523D01*
X192554877Y-91594278D01*
X192485719Y-91604222D01*
X192422163Y-91575197D01*
X192403048Y-91554369D01*
X192378137Y-91520082D01*
X192378135Y-91520082D01*
X191745828Y-92152390D01*
X191728791Y-92088807D01*
X191662965Y-91974793D01*
X191569873Y-91881701D01*
X191455859Y-91815875D01*
X191392275Y-91798837D01*
X192024582Y-91166528D01*
X191970416Y-91127175D01*
X191781083Y-91030704D01*
X191578995Y-90965042D01*
X191369112Y-90931800D01*
X191156620Y-90931800D01*
X190946738Y-90965042D01*
X190946735Y-90965042D01*
X190744648Y-91030704D01*
X190555305Y-91127180D01*
X190501148Y-91166527D01*
X190501148Y-91166528D01*
X191133457Y-91798837D01*
X191069873Y-91815875D01*
X190955859Y-91881701D01*
X190862767Y-91974793D01*
X190796941Y-92088807D01*
X190779903Y-92152391D01*
X190147594Y-91520082D01*
X190147593Y-91520082D01*
X190108246Y-91574240D01*
X190103349Y-91583851D01*
X190055372Y-91634645D01*
X189987550Y-91651438D01*
X189921416Y-91628898D01*
X189882382Y-91583848D01*
X189877492Y-91574252D01*
X189838136Y-91520082D01*
X189838135Y-91520082D01*
X189205828Y-92152390D01*
X189188791Y-92088807D01*
X189122965Y-91974793D01*
X189029873Y-91881701D01*
X188915859Y-91815875D01*
X188852275Y-91798837D01*
X189484582Y-91166528D01*
X189430416Y-91127175D01*
X189241083Y-91030704D01*
X189038995Y-90965042D01*
X188829112Y-90931800D01*
X188616620Y-90931800D01*
X188406738Y-90965042D01*
X188406735Y-90965042D01*
X188204648Y-91030704D01*
X188015305Y-91127180D01*
X187961148Y-91166527D01*
X187961148Y-91166528D01*
X188593457Y-91798837D01*
X188529873Y-91815875D01*
X188415859Y-91881701D01*
X188322767Y-91974793D01*
X188256941Y-92088807D01*
X188239903Y-92152390D01*
X187607594Y-91520082D01*
X187607593Y-91520082D01*
X187568246Y-91574239D01*
X187471766Y-91763590D01*
X187469926Y-91768033D01*
X187426081Y-91822433D01*
X187359785Y-91844492D01*
X187292087Y-91827208D01*
X187244884Y-91776866D01*
X187188243Y-91665703D01*
X187165678Y-91634645D01*
X187079487Y-91516013D01*
X186948653Y-91385179D01*
X186798962Y-91276422D01*
X186634101Y-91192420D01*
X186634098Y-91192419D01*
X186458131Y-91135245D01*
X186366755Y-91120772D01*
X186275380Y-91106300D01*
X186090352Y-91106300D01*
X186029435Y-91115948D01*
X185907600Y-91135245D01*
X185731633Y-91192419D01*
X185731630Y-91192420D01*
X185566769Y-91276422D01*
X185506802Y-91319991D01*
X185417079Y-91385179D01*
X185417077Y-91385181D01*
X185417076Y-91385181D01*
X185286247Y-91516010D01*
X185286247Y-91516011D01*
X185286245Y-91516013D01*
X185283289Y-91520082D01*
X185177488Y-91665703D01*
X185093486Y-91830564D01*
X185093485Y-91830567D01*
X185036311Y-92006534D01*
X185036311Y-92006536D01*
X185007366Y-92189286D01*
X185007366Y-94729286D01*
X185007366Y-107327686D01*
X185007366Y-107512714D01*
X185018875Y-107585380D01*
X185036311Y-107695465D01*
X185093485Y-107871433D01*
X185093486Y-107871436D01*
X185162420Y-108006723D01*
X185177488Y-108036296D01*
X185286245Y-108185987D01*
X185518679Y-108418421D01*
X185668370Y-108527178D01*
X185749228Y-108568377D01*
X185833229Y-108611179D01*
X185833232Y-108611180D01*
X185921216Y-108639767D01*
X186009202Y-108668355D01*
X186191952Y-108697300D01*
X186191953Y-108697300D01*
X186376979Y-108697300D01*
X186376980Y-108697300D01*
X186559730Y-108668355D01*
X186735702Y-108611179D01*
X186900562Y-108527178D01*
X187050253Y-108418421D01*
X187181087Y-108287587D01*
X187250149Y-108192530D01*
X187305478Y-108149867D01*
X187375091Y-108143888D01*
X187436886Y-108176494D01*
X187471244Y-108237333D01*
X187474466Y-108265418D01*
X187474466Y-108419644D01*
X187480867Y-108479172D01*
X187480869Y-108479179D01*
X187531111Y-108613886D01*
X187531115Y-108613893D01*
X187617275Y-108728987D01*
X187617278Y-108728990D01*
X187732372Y-108815150D01*
X187732379Y-108815154D01*
X187867086Y-108865396D01*
X187867093Y-108865398D01*
X187926621Y-108871799D01*
X187926638Y-108871800D01*
X188574466Y-108871800D01*
X188574466Y-107954812D01*
X188631473Y-107987725D01*
X188758640Y-108021800D01*
X188890292Y-108021800D01*
X189017459Y-107987725D01*
X189074466Y-107954812D01*
X189074466Y-108871800D01*
X189722294Y-108871800D01*
X189722310Y-108871799D01*
X189781838Y-108865398D01*
X189781845Y-108865396D01*
X189916552Y-108815154D01*
X189916559Y-108815150D01*
X190031653Y-108728990D01*
X190031656Y-108728987D01*
X190117816Y-108613893D01*
X190117820Y-108613886D01*
X190168062Y-108479179D01*
X190168064Y-108479172D01*
X190174465Y-108419644D01*
X190174466Y-108419627D01*
X190174466Y-107771800D01*
X189257478Y-107771800D01*
X189290391Y-107714793D01*
X189324466Y-107587626D01*
X189324466Y-107455974D01*
X189290391Y-107328807D01*
X189257478Y-107271800D01*
X190174466Y-107271800D01*
X190174466Y-106623972D01*
X190174465Y-106623955D01*
X190168064Y-106564427D01*
X190168062Y-106564420D01*
X190117820Y-106429713D01*
X190117816Y-106429706D01*
X190031656Y-106314612D01*
X190031653Y-106314609D01*
X189916559Y-106228449D01*
X189916552Y-106228445D01*
X189781845Y-106178203D01*
X189781838Y-106178201D01*
X189722310Y-106171800D01*
X189074466Y-106171800D01*
X189074466Y-107088788D01*
X189017459Y-107055875D01*
X188890292Y-107021800D01*
X188758640Y-107021800D01*
X188631473Y-107055875D01*
X188574466Y-107088788D01*
X188574466Y-106171800D01*
X187926621Y-106171800D01*
X187867093Y-106178201D01*
X187867086Y-106178203D01*
X187732379Y-106228445D01*
X187732372Y-106228449D01*
X187617278Y-106314609D01*
X187581632Y-106362226D01*
X187525698Y-106404096D01*
X187456006Y-106409080D01*
X187394683Y-106375594D01*
X187361199Y-106314270D01*
X187358366Y-106287914D01*
X187358366Y-95622115D01*
X187378051Y-95555076D01*
X187430855Y-95509321D01*
X187500013Y-95499377D01*
X187563569Y-95528402D01*
X187582685Y-95549231D01*
X187607594Y-95583516D01*
X188239903Y-94951208D01*
X188256941Y-95014793D01*
X188322767Y-95128807D01*
X188415859Y-95221899D01*
X188529873Y-95287725D01*
X188593456Y-95304762D01*
X187961148Y-95937069D01*
X187961148Y-95937070D01*
X188015315Y-95976424D01*
X188204648Y-96072895D01*
X188406736Y-96138557D01*
X188616620Y-96171800D01*
X188829112Y-96171800D01*
X189038993Y-96138557D01*
X189038996Y-96138557D01*
X189241083Y-96072895D01*
X189430420Y-95976422D01*
X189484582Y-95937070D01*
X189484583Y-95937070D01*
X188852274Y-95304762D01*
X188915859Y-95287725D01*
X189029873Y-95221899D01*
X189122965Y-95128807D01*
X189188791Y-95014793D01*
X189205828Y-94951208D01*
X189838136Y-95583517D01*
X189838136Y-95583516D01*
X189877488Y-95529354D01*
X189882380Y-95519754D01*
X189930354Y-95468957D01*
X189998174Y-95452161D01*
X190064310Y-95474697D01*
X190103352Y-95519754D01*
X190108241Y-95529350D01*
X190147594Y-95583516D01*
X190779903Y-94951208D01*
X190796941Y-95014793D01*
X190862767Y-95128807D01*
X190955859Y-95221899D01*
X191069873Y-95287725D01*
X191133456Y-95304762D01*
X190501148Y-95937069D01*
X190501148Y-95937070D01*
X190555315Y-95976424D01*
X190744648Y-96072895D01*
X190946736Y-96138557D01*
X191156620Y-96171800D01*
X191369112Y-96171800D01*
X191578993Y-96138557D01*
X191578996Y-96138557D01*
X191781083Y-96072895D01*
X191970420Y-95976422D01*
X192024582Y-95937070D01*
X192024583Y-95937070D01*
X191392274Y-95304762D01*
X191455859Y-95287725D01*
X191569873Y-95221899D01*
X191662965Y-95128807D01*
X191728791Y-95014793D01*
X191745828Y-94951208D01*
X192378136Y-95583517D01*
X192378136Y-95583516D01*
X192417488Y-95529354D01*
X192513957Y-95340025D01*
X192515798Y-95335581D01*
X192559637Y-95281176D01*
X192625930Y-95259107D01*
X192693630Y-95276383D01*
X192740847Y-95326733D01*
X192747620Y-95340025D01*
X192797488Y-95437896D01*
X192906245Y-95587587D01*
X193037079Y-95718421D01*
X193186770Y-95827178D01*
X193267629Y-95868377D01*
X193351630Y-95911179D01*
X193351633Y-95911180D01*
X193431313Y-95937069D01*
X193527602Y-95968355D01*
X193710352Y-95997300D01*
X193710353Y-95997300D01*
X193895379Y-95997300D01*
X193895380Y-95997300D01*
X194078130Y-95968355D01*
X194254101Y-95911179D01*
X194418962Y-95827178D01*
X194568653Y-95718421D01*
X194699487Y-95587587D01*
X194808244Y-95437896D01*
X194892245Y-95273035D01*
X194949421Y-95097064D01*
X194978366Y-94914314D01*
X194978366Y-93830448D01*
X201773366Y-93830448D01*
X201773366Y-94035152D01*
X201776040Y-94052035D01*
X201805388Y-94237334D01*
X201868647Y-94432023D01*
X201961581Y-94614413D01*
X202081894Y-94780013D01*
X202226652Y-94924771D01*
X202381615Y-95037356D01*
X202392256Y-95045087D01*
X202508473Y-95104303D01*
X202574642Y-95138018D01*
X202574644Y-95138018D01*
X202574647Y-95138020D01*
X202679003Y-95171927D01*
X202769331Y-95201277D01*
X202870423Y-95217288D01*
X202971514Y-95233300D01*
X202971515Y-95233300D01*
X203176217Y-95233300D01*
X203176218Y-95233300D01*
X203378400Y-95201277D01*
X203573085Y-95138020D01*
X203755476Y-95045087D01*
X203855869Y-94972148D01*
X203921079Y-94924771D01*
X203921081Y-94924768D01*
X203921085Y-94924766D01*
X204065832Y-94780019D01*
X204065834Y-94780015D01*
X204065837Y-94780013D01*
X204118598Y-94707390D01*
X204186153Y-94614410D01*
X204279086Y-94432019D01*
X204342343Y-94237334D01*
X204374366Y-94035152D01*
X204374366Y-93830448D01*
X204352519Y-93692513D01*
X204342343Y-93628265D01*
X204281599Y-93441316D01*
X204279086Y-93433581D01*
X204279084Y-93433578D01*
X204279084Y-93433576D01*
X204244336Y-93365381D01*
X204186153Y-93251190D01*
X204142971Y-93191754D01*
X204065837Y-93085586D01*
X203921079Y-92940828D01*
X203755479Y-92820515D01*
X203755478Y-92820514D01*
X203755476Y-92820513D01*
X203679498Y-92781800D01*
X203573089Y-92727581D01*
X203378400Y-92664322D01*
X203195500Y-92635354D01*
X203176218Y-92632300D01*
X202971514Y-92632300D01*
X202952232Y-92635354D01*
X202769331Y-92664322D01*
X202574642Y-92727581D01*
X202392252Y-92820515D01*
X202226652Y-92940828D01*
X202081894Y-93085586D01*
X201961581Y-93251186D01*
X201868647Y-93433576D01*
X201805388Y-93628265D01*
X201779374Y-93792514D01*
X201773366Y-93830448D01*
X194978366Y-93830448D01*
X194978366Y-92189286D01*
X194978366Y-87310352D01*
X194949421Y-87127602D01*
X194940051Y-87098763D01*
X194913278Y-87016362D01*
X194892247Y-86951634D01*
X194853613Y-86875811D01*
X194808244Y-86786770D01*
X194699487Y-86637079D01*
X189511819Y-81449411D01*
X189478334Y-81388088D01*
X189475500Y-81361730D01*
X189475500Y-77035460D01*
X210258700Y-77035460D01*
X210258700Y-77240164D01*
X210262649Y-77265094D01*
X210290722Y-77442346D01*
X210353981Y-77637035D01*
X210446915Y-77819425D01*
X210567228Y-77985025D01*
X210711986Y-78129783D01*
X210866949Y-78242368D01*
X210877590Y-78250099D01*
X210993807Y-78309315D01*
X211059976Y-78343030D01*
X211059978Y-78343030D01*
X211059981Y-78343032D01*
X211164337Y-78376939D01*
X211254665Y-78406289D01*
X211355757Y-78422300D01*
X211456848Y-78438312D01*
X211456849Y-78438312D01*
X211661551Y-78438312D01*
X211661552Y-78438312D01*
X211863734Y-78406289D01*
X212058419Y-78343032D01*
X212240810Y-78250099D01*
X212377029Y-78151131D01*
X212406413Y-78129783D01*
X212406415Y-78129780D01*
X212406419Y-78129778D01*
X212551166Y-77985031D01*
X212551168Y-77985027D01*
X212551171Y-77985025D01*
X212643343Y-77858159D01*
X212671487Y-77819422D01*
X212764420Y-77637031D01*
X212827677Y-77442346D01*
X212859700Y-77240164D01*
X212859700Y-77035460D01*
X212840073Y-76911539D01*
X212827677Y-76833277D01*
X212766933Y-76646328D01*
X212764420Y-76638593D01*
X212764418Y-76638590D01*
X212764418Y-76638588D01*
X212729670Y-76570393D01*
X212671487Y-76456202D01*
X212663756Y-76445561D01*
X212551171Y-76290598D01*
X212406413Y-76145840D01*
X212240813Y-76025527D01*
X212240812Y-76025526D01*
X212240810Y-76025525D01*
X212164832Y-75986812D01*
X212058423Y-75932593D01*
X211863734Y-75869334D01*
X211680834Y-75840366D01*
X211661552Y-75837312D01*
X211456848Y-75837312D01*
X211437566Y-75840366D01*
X211254665Y-75869334D01*
X211059976Y-75932593D01*
X210877586Y-76025527D01*
X210711986Y-76145840D01*
X210567228Y-76290598D01*
X210446915Y-76456198D01*
X210353981Y-76638588D01*
X210290722Y-76833277D01*
X210276274Y-76924501D01*
X210258700Y-77035460D01*
X189475500Y-77035460D01*
X189475500Y-72697648D01*
X201798766Y-72697648D01*
X201798766Y-72902351D01*
X201830788Y-73104534D01*
X201894047Y-73299223D01*
X201986981Y-73481613D01*
X202107294Y-73647213D01*
X202252052Y-73791971D01*
X202407015Y-73904556D01*
X202417656Y-73912287D01*
X202533873Y-73971503D01*
X202600042Y-74005218D01*
X202600044Y-74005218D01*
X202600047Y-74005220D01*
X202645154Y-74019876D01*
X202794731Y-74068477D01*
X202875054Y-74081199D01*
X202996914Y-74100500D01*
X202996915Y-74100500D01*
X203201617Y-74100500D01*
X203201618Y-74100500D01*
X203403800Y-74068477D01*
X203598485Y-74005220D01*
X203780876Y-73912287D01*
X203888122Y-73834369D01*
X203946479Y-73791971D01*
X203946481Y-73791968D01*
X203946485Y-73791966D01*
X204091232Y-73647219D01*
X204091234Y-73647215D01*
X204091237Y-73647213D01*
X204143998Y-73574590D01*
X204211553Y-73481610D01*
X204304486Y-73299219D01*
X204367743Y-73104534D01*
X204399766Y-72902352D01*
X204399766Y-72697648D01*
X204384055Y-72598456D01*
X204367743Y-72495465D01*
X204307289Y-72309408D01*
X204304486Y-72300781D01*
X204304484Y-72300778D01*
X204304484Y-72300776D01*
X204240303Y-72174815D01*
X204211553Y-72118390D01*
X204182976Y-72079057D01*
X204091237Y-71952786D01*
X203946479Y-71808028D01*
X203780879Y-71687715D01*
X203780878Y-71687714D01*
X203780876Y-71687713D01*
X203705683Y-71649400D01*
X203598489Y-71594781D01*
X203403800Y-71531522D01*
X203229261Y-71503878D01*
X203201618Y-71499500D01*
X202996914Y-71499500D01*
X202972595Y-71503351D01*
X202794731Y-71531522D01*
X202600042Y-71594781D01*
X202417652Y-71687715D01*
X202252052Y-71808028D01*
X202107294Y-71952786D01*
X201986981Y-72118386D01*
X201894047Y-72300776D01*
X201830788Y-72495465D01*
X201798766Y-72697648D01*
X189475500Y-72697648D01*
X189475500Y-68490188D01*
X192024500Y-68490188D01*
X192024500Y-68709811D01*
X192024501Y-68709828D01*
X192053167Y-68927573D01*
X192110014Y-69139729D01*
X192194063Y-69342641D01*
X192194065Y-69342645D01*
X192303884Y-69532855D01*
X192303889Y-69532861D01*
X192303890Y-69532863D01*
X192437588Y-69707102D01*
X192437594Y-69707109D01*
X192592890Y-69862405D01*
X192592897Y-69862411D01*
X192709072Y-69951555D01*
X192767145Y-69996116D01*
X192957355Y-70105935D01*
X193058814Y-70147960D01*
X193160270Y-70189985D01*
X193160271Y-70189985D01*
X193160273Y-70189986D01*
X193372425Y-70246832D01*
X193590182Y-70275500D01*
X193590189Y-70275500D01*
X193809811Y-70275500D01*
X193809818Y-70275500D01*
X194027575Y-70246832D01*
X194239727Y-70189986D01*
X194442645Y-70105935D01*
X194632855Y-69996116D01*
X194807104Y-69862410D01*
X194857694Y-69811820D01*
X194919017Y-69778334D01*
X194945376Y-69775500D01*
X217147199Y-69775500D01*
X217214238Y-69795185D01*
X217234880Y-69811819D01*
X221442937Y-74019876D01*
X221476422Y-74081199D01*
X221471438Y-74150891D01*
X221429566Y-74206824D01*
X221364102Y-74231241D01*
X221316938Y-74225488D01*
X221146329Y-74170054D01*
X220936446Y-74136812D01*
X220723954Y-74136812D01*
X220514072Y-74170054D01*
X220514069Y-74170054D01*
X220311982Y-74235716D01*
X220122639Y-74332192D01*
X220068482Y-74371539D01*
X220068482Y-74371540D01*
X220700791Y-75003849D01*
X220637207Y-75020887D01*
X220523193Y-75086713D01*
X220430101Y-75179805D01*
X220364275Y-75293819D01*
X220347237Y-75357403D01*
X219714928Y-74725094D01*
X219714927Y-74725094D01*
X219675580Y-74779252D01*
X219670683Y-74788863D01*
X219622706Y-74839657D01*
X219554884Y-74856450D01*
X219488750Y-74833910D01*
X219449716Y-74788860D01*
X219444826Y-74779264D01*
X219405470Y-74725094D01*
X219405469Y-74725094D01*
X218773162Y-75357402D01*
X218756125Y-75293819D01*
X218690299Y-75179805D01*
X218597207Y-75086713D01*
X218483193Y-75020887D01*
X218419609Y-75003849D01*
X219051916Y-74371540D01*
X218997750Y-74332187D01*
X218808417Y-74235716D01*
X218606329Y-74170054D01*
X218396446Y-74136812D01*
X218183954Y-74136812D01*
X217974072Y-74170054D01*
X217974069Y-74170054D01*
X217771982Y-74235716D01*
X217582639Y-74332192D01*
X217528482Y-74371539D01*
X217528482Y-74371540D01*
X218160791Y-75003849D01*
X218097207Y-75020887D01*
X217983193Y-75086713D01*
X217890101Y-75179805D01*
X217824275Y-75293819D01*
X217807237Y-75357403D01*
X217174928Y-74725094D01*
X217174927Y-74725094D01*
X217135580Y-74779251D01*
X217039100Y-74968602D01*
X217037260Y-74973045D01*
X216993415Y-75027445D01*
X216927119Y-75049504D01*
X216859421Y-75032220D01*
X216812218Y-74981878D01*
X216755577Y-74870715D01*
X216733012Y-74839657D01*
X216646821Y-74721025D01*
X216515987Y-74590191D01*
X216366296Y-74481434D01*
X216201435Y-74397432D01*
X216201432Y-74397431D01*
X216025465Y-74340257D01*
X215934089Y-74325784D01*
X215842714Y-74311312D01*
X215657686Y-74311312D01*
X215596769Y-74320960D01*
X215474934Y-74340257D01*
X215298967Y-74397431D01*
X215298964Y-74397432D01*
X215134103Y-74481434D01*
X215048699Y-74543484D01*
X214984413Y-74590191D01*
X214984411Y-74590193D01*
X214984410Y-74590193D01*
X214853581Y-74721022D01*
X214853581Y-74721023D01*
X214853579Y-74721025D01*
X214850623Y-74725094D01*
X214744822Y-74870715D01*
X214660820Y-75035576D01*
X214660819Y-75035579D01*
X214603645Y-75211546D01*
X214574700Y-75394298D01*
X214574700Y-85790125D01*
X214603645Y-85972877D01*
X214660819Y-86148845D01*
X214660820Y-86148848D01*
X214717463Y-86260014D01*
X214744822Y-86313708D01*
X214853579Y-86463399D01*
X215009813Y-86619633D01*
X215159504Y-86728390D01*
X215235547Y-86767136D01*
X215324363Y-86812391D01*
X215324366Y-86812392D01*
X215412350Y-86840979D01*
X215500336Y-86869567D01*
X215683086Y-86898512D01*
X215683087Y-86898512D01*
X215868113Y-86898512D01*
X215868114Y-86898512D01*
X216050864Y-86869567D01*
X216226836Y-86812391D01*
X216391696Y-86728390D01*
X216541387Y-86619633D01*
X216672221Y-86488799D01*
X216741283Y-86393742D01*
X216796612Y-86351079D01*
X216866225Y-86345100D01*
X216928020Y-86377706D01*
X216962378Y-86438545D01*
X216965600Y-86466630D01*
X216965600Y-86620856D01*
X216972001Y-86680384D01*
X216972003Y-86680391D01*
X217022245Y-86815098D01*
X217022249Y-86815105D01*
X217108409Y-86930199D01*
X217108412Y-86930202D01*
X217223506Y-87016362D01*
X217223513Y-87016366D01*
X217358220Y-87066608D01*
X217358227Y-87066610D01*
X217417755Y-87073011D01*
X217417772Y-87073012D01*
X218065600Y-87073012D01*
X218065600Y-86156024D01*
X218122607Y-86188937D01*
X218249774Y-86223012D01*
X218381426Y-86223012D01*
X218508593Y-86188937D01*
X218565600Y-86156024D01*
X218565600Y-87073012D01*
X219213428Y-87073012D01*
X219213444Y-87073011D01*
X219272972Y-87066610D01*
X219272979Y-87066608D01*
X219407686Y-87016366D01*
X219407693Y-87016362D01*
X219522787Y-86930202D01*
X219522790Y-86930199D01*
X219608950Y-86815105D01*
X219608954Y-86815098D01*
X219659196Y-86680391D01*
X219659198Y-86680384D01*
X219665599Y-86620856D01*
X219665600Y-86620839D01*
X219665600Y-85973012D01*
X218748612Y-85973012D01*
X218781525Y-85916005D01*
X218815600Y-85788838D01*
X218815600Y-85657186D01*
X218781525Y-85530019D01*
X218748612Y-85473012D01*
X219665600Y-85473012D01*
X219665600Y-84825184D01*
X219665599Y-84825167D01*
X219659198Y-84765639D01*
X219659196Y-84765632D01*
X219608954Y-84630925D01*
X219608950Y-84630918D01*
X219522790Y-84515824D01*
X219522787Y-84515821D01*
X219407693Y-84429661D01*
X219407686Y-84429657D01*
X219272979Y-84379415D01*
X219272972Y-84379413D01*
X219213444Y-84373012D01*
X218565600Y-84373012D01*
X218565600Y-85290000D01*
X218508593Y-85257087D01*
X218381426Y-85223012D01*
X218249774Y-85223012D01*
X218122607Y-85257087D01*
X218065600Y-85290000D01*
X218065600Y-84373012D01*
X217417755Y-84373012D01*
X217358227Y-84379413D01*
X217358220Y-84379415D01*
X217223513Y-84429657D01*
X217223511Y-84429658D01*
X217124011Y-84504145D01*
X217058547Y-84528562D01*
X216990274Y-84513711D01*
X216940868Y-84464306D01*
X216925700Y-84404878D01*
X216925700Y-78827127D01*
X216945385Y-78760088D01*
X216998189Y-78714333D01*
X217067347Y-78704389D01*
X217130903Y-78733414D01*
X217150019Y-78754243D01*
X217174928Y-78788528D01*
X217807237Y-78156220D01*
X217824275Y-78219805D01*
X217890101Y-78333819D01*
X217983193Y-78426911D01*
X218097207Y-78492737D01*
X218160790Y-78509774D01*
X217528482Y-79142081D01*
X217528482Y-79142082D01*
X217582649Y-79181436D01*
X217771982Y-79277907D01*
X217974070Y-79343569D01*
X218183954Y-79376812D01*
X218396446Y-79376812D01*
X218606327Y-79343569D01*
X218606330Y-79343569D01*
X218808417Y-79277907D01*
X218997754Y-79181434D01*
X219051916Y-79142082D01*
X219051917Y-79142082D01*
X218419608Y-78509774D01*
X218483193Y-78492737D01*
X218597207Y-78426911D01*
X218690299Y-78333819D01*
X218756125Y-78219805D01*
X218773162Y-78156220D01*
X219405470Y-78788529D01*
X219405470Y-78788528D01*
X219444822Y-78734366D01*
X219449714Y-78724766D01*
X219497688Y-78673969D01*
X219565508Y-78657173D01*
X219631644Y-78679709D01*
X219670686Y-78724766D01*
X219675575Y-78734362D01*
X219714928Y-78788528D01*
X220347237Y-78156220D01*
X220364275Y-78219805D01*
X220430101Y-78333819D01*
X220523193Y-78426911D01*
X220637207Y-78492737D01*
X220700790Y-78509774D01*
X220068482Y-79142081D01*
X220068482Y-79142082D01*
X220122649Y-79181436D01*
X220311982Y-79277907D01*
X220514070Y-79343569D01*
X220723954Y-79376812D01*
X220936446Y-79376812D01*
X221146327Y-79343569D01*
X221146330Y-79343569D01*
X221348417Y-79277907D01*
X221537754Y-79181434D01*
X221591916Y-79142082D01*
X221591917Y-79142082D01*
X220959608Y-78509774D01*
X221023193Y-78492737D01*
X221137207Y-78426911D01*
X221230299Y-78333819D01*
X221296125Y-78219805D01*
X221313162Y-78156220D01*
X221945470Y-78788529D01*
X221945470Y-78788528D01*
X221984822Y-78734366D01*
X222081291Y-78545037D01*
X222083132Y-78540593D01*
X222126971Y-78486188D01*
X222193264Y-78464119D01*
X222260964Y-78481395D01*
X222308181Y-78531745D01*
X222349630Y-78613092D01*
X222364822Y-78642908D01*
X222473579Y-78792599D01*
X222604413Y-78923433D01*
X222754104Y-79032190D01*
X222834963Y-79073389D01*
X222918964Y-79116191D01*
X222918967Y-79116192D01*
X222991402Y-79139727D01*
X223094936Y-79173367D01*
X223277686Y-79202312D01*
X223277687Y-79202312D01*
X223462713Y-79202312D01*
X223462714Y-79202312D01*
X223645464Y-79173367D01*
X223821435Y-79116191D01*
X223986296Y-79032190D01*
X224135987Y-78923433D01*
X224266821Y-78792599D01*
X224375578Y-78642908D01*
X224459579Y-78478047D01*
X224516755Y-78302076D01*
X224545700Y-78119326D01*
X224545700Y-77035460D01*
X231340700Y-77035460D01*
X231340700Y-77240164D01*
X231344649Y-77265094D01*
X231372722Y-77442346D01*
X231435981Y-77637035D01*
X231528915Y-77819425D01*
X231649228Y-77985025D01*
X231793986Y-78129783D01*
X231948949Y-78242368D01*
X231959590Y-78250099D01*
X232075807Y-78309315D01*
X232141976Y-78343030D01*
X232141978Y-78343030D01*
X232141981Y-78343032D01*
X232246337Y-78376939D01*
X232336665Y-78406289D01*
X232437757Y-78422300D01*
X232538848Y-78438312D01*
X232538849Y-78438312D01*
X232743551Y-78438312D01*
X232743552Y-78438312D01*
X232945734Y-78406289D01*
X233140419Y-78343032D01*
X233322810Y-78250099D01*
X233459029Y-78151131D01*
X233488413Y-78129783D01*
X233488415Y-78129780D01*
X233488419Y-78129778D01*
X233633166Y-77985031D01*
X233633168Y-77985027D01*
X233633171Y-77985025D01*
X233725343Y-77858159D01*
X233753487Y-77819422D01*
X233846420Y-77637031D01*
X233909677Y-77442346D01*
X233941700Y-77240164D01*
X233941700Y-77035460D01*
X233922073Y-76911539D01*
X233909677Y-76833277D01*
X233848933Y-76646328D01*
X233846420Y-76638593D01*
X233846418Y-76638590D01*
X233846418Y-76638588D01*
X233811670Y-76570393D01*
X233753487Y-76456202D01*
X233745756Y-76445561D01*
X233633171Y-76290598D01*
X233488413Y-76145840D01*
X233322813Y-76025527D01*
X233322812Y-76025526D01*
X233322810Y-76025525D01*
X233246832Y-75986812D01*
X233140423Y-75932593D01*
X232945734Y-75869334D01*
X232762834Y-75840366D01*
X232743552Y-75837312D01*
X232538848Y-75837312D01*
X232519566Y-75840366D01*
X232336665Y-75869334D01*
X232141976Y-75932593D01*
X231959586Y-76025527D01*
X231793986Y-76145840D01*
X231649228Y-76290598D01*
X231528915Y-76456198D01*
X231435981Y-76638588D01*
X231372722Y-76833277D01*
X231358274Y-76924501D01*
X231340700Y-77035460D01*
X224545700Y-77035460D01*
X224545700Y-75394298D01*
X224545700Y-74192217D01*
X224516755Y-74009467D01*
X224461086Y-73838134D01*
X224460024Y-73834369D01*
X224440791Y-73796622D01*
X224375578Y-73668635D01*
X224368589Y-73659016D01*
X224266827Y-73518949D01*
X224266823Y-73518945D01*
X218451258Y-67703381D01*
X218451256Y-67703379D01*
X218301565Y-67594622D01*
X218276950Y-67582080D01*
X218136705Y-67510620D01*
X218136702Y-67510619D01*
X217960734Y-67453445D01*
X217869358Y-67438972D01*
X217777983Y-67424500D01*
X217777982Y-67424500D01*
X194945376Y-67424500D01*
X194878337Y-67404815D01*
X194857694Y-67388180D01*
X194807108Y-67337593D01*
X194807102Y-67337588D01*
X194632863Y-67203890D01*
X194632861Y-67203889D01*
X194632855Y-67203884D01*
X194442645Y-67094065D01*
X194442641Y-67094063D01*
X194239729Y-67010014D01*
X194027573Y-66953167D01*
X193809828Y-66924501D01*
X193809823Y-66924500D01*
X193809818Y-66924500D01*
X193590182Y-66924500D01*
X193590176Y-66924500D01*
X193590171Y-66924501D01*
X193372426Y-66953167D01*
X193160270Y-67010014D01*
X192957358Y-67094063D01*
X192957354Y-67094065D01*
X192767145Y-67203884D01*
X192767136Y-67203890D01*
X192592897Y-67337588D01*
X192592890Y-67337594D01*
X192437594Y-67492890D01*
X192437588Y-67492897D01*
X192303890Y-67667136D01*
X192303884Y-67667145D01*
X192194065Y-67857354D01*
X192194063Y-67857358D01*
X192110014Y-68060270D01*
X192053167Y-68272426D01*
X192024501Y-68490171D01*
X192024500Y-68490188D01*
X189475500Y-68490188D01*
X189475500Y-65847434D01*
X189475500Y-65845795D01*
X228831500Y-65845795D01*
X228831500Y-66081804D01*
X228831501Y-66081820D01*
X228859302Y-66292993D01*
X228862307Y-66315814D01*
X228895119Y-66438270D01*
X228923394Y-66543793D01*
X229013714Y-66761845D01*
X229013719Y-66761856D01*
X229073726Y-66865789D01*
X229131727Y-66966250D01*
X229131729Y-66966253D01*
X229131730Y-66966254D01*
X229275406Y-67153497D01*
X229275412Y-67153504D01*
X229442295Y-67320387D01*
X229442302Y-67320393D01*
X229464711Y-67337588D01*
X229629550Y-67464073D01*
X229760918Y-67539918D01*
X229833943Y-67582080D01*
X229833948Y-67582082D01*
X229833951Y-67582084D01*
X230052007Y-67672406D01*
X230279986Y-67733493D01*
X230513989Y-67764300D01*
X230513996Y-67764300D01*
X230750004Y-67764300D01*
X230750011Y-67764300D01*
X230984014Y-67733493D01*
X231211993Y-67672406D01*
X231430049Y-67582084D01*
X231634450Y-67464073D01*
X231821699Y-67320392D01*
X231988592Y-67153499D01*
X232132273Y-66966250D01*
X232250284Y-66761849D01*
X232340606Y-66543793D01*
X232401693Y-66315814D01*
X232432500Y-66081811D01*
X232432500Y-65845789D01*
X232401693Y-65611786D01*
X232340606Y-65383807D01*
X232250284Y-65165751D01*
X232250282Y-65165748D01*
X232250280Y-65165743D01*
X232191680Y-65064246D01*
X232132273Y-64961350D01*
X232013564Y-64806645D01*
X231988593Y-64774102D01*
X231988587Y-64774095D01*
X231821704Y-64607212D01*
X231821697Y-64607206D01*
X231634454Y-64463530D01*
X231634453Y-64463529D01*
X231634450Y-64463527D01*
X231552957Y-64416477D01*
X231430056Y-64345519D01*
X231430045Y-64345514D01*
X231211993Y-64255194D01*
X231163872Y-64242300D01*
X230984014Y-64194107D01*
X230984013Y-64194106D01*
X230984010Y-64194106D01*
X230750020Y-64163301D01*
X230750017Y-64163300D01*
X230750011Y-64163300D01*
X230513989Y-64163300D01*
X230513983Y-64163300D01*
X230513979Y-64163301D01*
X230279989Y-64194106D01*
X230052006Y-64255194D01*
X229833954Y-64345514D01*
X229833943Y-64345519D01*
X229629545Y-64463530D01*
X229442302Y-64607206D01*
X229442295Y-64607212D01*
X229275412Y-64774095D01*
X229275406Y-64774102D01*
X229131730Y-64961345D01*
X229013719Y-65165743D01*
X229013714Y-65165754D01*
X228923394Y-65383806D01*
X228862306Y-65611789D01*
X228831501Y-65845779D01*
X228831500Y-65845795D01*
X189475500Y-65845795D01*
X189475500Y-65807486D01*
X189467300Y-65755715D01*
X189446556Y-65624736D01*
X189389379Y-65448764D01*
X189315333Y-65303442D01*
X189305378Y-65283904D01*
X189196621Y-65134213D01*
X189065787Y-65003379D01*
X184965787Y-60903379D01*
X184816096Y-60794622D01*
X184651236Y-60710620D01*
X184651233Y-60710619D01*
X184475265Y-60653445D01*
X184383889Y-60638972D01*
X184292514Y-60624500D01*
X184292513Y-60624500D01*
X184245376Y-60624500D01*
X184178337Y-60604815D01*
X184157694Y-60588180D01*
X184107108Y-60537593D01*
X184107102Y-60537588D01*
X183932863Y-60403890D01*
X183932861Y-60403889D01*
X183932855Y-60403884D01*
X183742645Y-60294065D01*
X183742641Y-60294063D01*
X183539729Y-60210014D01*
X183327573Y-60153167D01*
X183109828Y-60124501D01*
X183109823Y-60124500D01*
X183109818Y-60124500D01*
X182890182Y-60124500D01*
X182890176Y-60124500D01*
X182890171Y-60124501D01*
X182672426Y-60153167D01*
X182460270Y-60210014D01*
X182257358Y-60294063D01*
X182257354Y-60294065D01*
X182067145Y-60403884D01*
X182067136Y-60403890D01*
X181892897Y-60537588D01*
X181892890Y-60537594D01*
X181737594Y-60692890D01*
X181737588Y-60692897D01*
X181603890Y-60867136D01*
X181603884Y-60867145D01*
X181494065Y-61057354D01*
X181494063Y-61057358D01*
X181410014Y-61260270D01*
X181353167Y-61472426D01*
X181324501Y-61690171D01*
X181324500Y-61690188D01*
X166775500Y-61690188D01*
X166775500Y-59947558D01*
X166795185Y-59880519D01*
X166799182Y-59874673D01*
X166799843Y-59873762D01*
X166819197Y-59847125D01*
X166921063Y-59647202D01*
X166990400Y-59433805D01*
X167025500Y-59212194D01*
X167025500Y-58987805D01*
X166990400Y-58766194D01*
X166921061Y-58552793D01*
X166884105Y-58480264D01*
X166819197Y-58352875D01*
X166802347Y-58329683D01*
X166687316Y-58171355D01*
X166687312Y-58171350D01*
X166528649Y-58012687D01*
X166528644Y-58012683D01*
X166347128Y-57880805D01*
X166347127Y-57880804D01*
X166347125Y-57880803D01*
X166284692Y-57848992D01*
X166147206Y-57778938D01*
X165933805Y-57709599D01*
X165712194Y-57674500D01*
X165712189Y-57674500D01*
X165487811Y-57674500D01*
X165487806Y-57674500D01*
X165266194Y-57709599D01*
X165052793Y-57778938D01*
X164852871Y-57880805D01*
X164671355Y-58012683D01*
X164671350Y-58012687D01*
X164512687Y-58171350D01*
X164512683Y-58171355D01*
X164380805Y-58352871D01*
X164278938Y-58552793D01*
X164209599Y-58766194D01*
X164174500Y-58987805D01*
X164174500Y-59212194D01*
X164209599Y-59433805D01*
X164278938Y-59647206D01*
X164373832Y-59833444D01*
X164380803Y-59847125D01*
X164380807Y-59847130D01*
X164400818Y-59874673D01*
X164424298Y-59940479D01*
X164424500Y-59947558D01*
X164424500Y-64531110D01*
X164404815Y-64598149D01*
X164352011Y-64643904D01*
X164313307Y-64650744D01*
X163675662Y-65288390D01*
X163658625Y-65224807D01*
X163592799Y-65110793D01*
X163499707Y-65017701D01*
X163385693Y-64951875D01*
X163322109Y-64934837D01*
X163954416Y-64302528D01*
X163900250Y-64263175D01*
X163710917Y-64166704D01*
X163508829Y-64101042D01*
X163298946Y-64067800D01*
X163086454Y-64067800D01*
X162876572Y-64101042D01*
X162876569Y-64101042D01*
X162674482Y-64166704D01*
X162485139Y-64263180D01*
X162430982Y-64302527D01*
X162430982Y-64302528D01*
X163063291Y-64934837D01*
X162999707Y-64951875D01*
X162885693Y-65017701D01*
X162792601Y-65110793D01*
X162726775Y-65224807D01*
X162709737Y-65288391D01*
X162077428Y-64656082D01*
X162077427Y-64656082D01*
X162038080Y-64710240D01*
X162033183Y-64719851D01*
X161985206Y-64770645D01*
X161917384Y-64787438D01*
X161851250Y-64764898D01*
X161812216Y-64719848D01*
X161807326Y-64710252D01*
X161767970Y-64656082D01*
X161767969Y-64656082D01*
X161135662Y-65288390D01*
X161118625Y-65224807D01*
X161052799Y-65110793D01*
X160959707Y-65017701D01*
X160845693Y-64951875D01*
X160782109Y-64934837D01*
X161414416Y-64302528D01*
X161360250Y-64263175D01*
X161170917Y-64166704D01*
X160968829Y-64101042D01*
X160758946Y-64067800D01*
X160546454Y-64067800D01*
X160336572Y-64101042D01*
X160336569Y-64101042D01*
X160134482Y-64166704D01*
X159945139Y-64263180D01*
X159890982Y-64302527D01*
X159890982Y-64302528D01*
X160523291Y-64934837D01*
X160459707Y-64951875D01*
X160345693Y-65017701D01*
X160252601Y-65110793D01*
X160186775Y-65224807D01*
X160169737Y-65288391D01*
X159537428Y-64656082D01*
X159537427Y-64656082D01*
X159498080Y-64710239D01*
X159401600Y-64899590D01*
X159399760Y-64904033D01*
X159355915Y-64958433D01*
X159289619Y-64980492D01*
X159221921Y-64963208D01*
X159174718Y-64912866D01*
X159155500Y-64875148D01*
X159118078Y-64801704D01*
X159009321Y-64652013D01*
X158878487Y-64521179D01*
X158728796Y-64412422D01*
X158563935Y-64328420D01*
X158563932Y-64328419D01*
X158387965Y-64271245D01*
X158286623Y-64255194D01*
X158205214Y-64242300D01*
X158020186Y-64242300D01*
X157959269Y-64251948D01*
X157837434Y-64271245D01*
X157661467Y-64328419D01*
X157661464Y-64328420D01*
X157496603Y-64412422D01*
X157426264Y-64463527D01*
X157346913Y-64521179D01*
X157346911Y-64521181D01*
X157346910Y-64521181D01*
X157216081Y-64652010D01*
X157216081Y-64652011D01*
X157216079Y-64652013D01*
X157213123Y-64656082D01*
X157107322Y-64801703D01*
X157023320Y-64966564D01*
X157023319Y-64966567D01*
X156966145Y-65142534D01*
X156937200Y-65325286D01*
X136109015Y-65325286D01*
X135871409Y-65087680D01*
X135837924Y-65026357D01*
X135842908Y-64956665D01*
X135871409Y-64912318D01*
X138129079Y-62654649D01*
X142612379Y-58171349D01*
X144866081Y-55917648D01*
X231300500Y-55917648D01*
X231300500Y-56122351D01*
X231332522Y-56324534D01*
X231395781Y-56519223D01*
X231488715Y-56701613D01*
X231609028Y-56867213D01*
X231753782Y-57011967D01*
X231753787Y-57011971D01*
X231919383Y-57132283D01*
X231923543Y-57134832D01*
X231923407Y-57135053D01*
X231933030Y-57140950D01*
X231934407Y-57141949D01*
X231934574Y-57142071D01*
X232050727Y-57201253D01*
X232116858Y-57234950D01*
X232116860Y-57234950D01*
X232116863Y-57234952D01*
X232221159Y-57268840D01*
X232311436Y-57298173D01*
X232412471Y-57314175D01*
X232513506Y-57330178D01*
X232513507Y-57330178D01*
X232718093Y-57330178D01*
X232718094Y-57330178D01*
X232920163Y-57298173D01*
X233114737Y-57234952D01*
X233297026Y-57142071D01*
X233462541Y-57021818D01*
X233607206Y-56877153D01*
X233727459Y-56711638D01*
X233820340Y-56529349D01*
X233883561Y-56334775D01*
X233915566Y-56132706D01*
X233915566Y-55928118D01*
X233883561Y-55726049D01*
X233880122Y-55715466D01*
X233834478Y-55574987D01*
X233820340Y-55531475D01*
X233820338Y-55531472D01*
X233820338Y-55531470D01*
X233786641Y-55465339D01*
X233727459Y-55349186D01*
X233646512Y-55237771D01*
X233607211Y-55183677D01*
X233607207Y-55183672D01*
X233462543Y-55039008D01*
X233462537Y-55039003D01*
X233456592Y-55034683D01*
X233448956Y-55028663D01*
X233448214Y-55028029D01*
X233282613Y-54907715D01*
X233282612Y-54907714D01*
X233282610Y-54907713D01*
X233225653Y-54878691D01*
X233100223Y-54814781D01*
X232905534Y-54751522D01*
X232730995Y-54723878D01*
X232703352Y-54719500D01*
X232498648Y-54719500D01*
X232474329Y-54723351D01*
X232296465Y-54751522D01*
X232101776Y-54814781D01*
X231919386Y-54907715D01*
X231753786Y-55028028D01*
X231609028Y-55172786D01*
X231488715Y-55338386D01*
X231395781Y-55520776D01*
X231332522Y-55715465D01*
X231300500Y-55917648D01*
X144866081Y-55917648D01*
X144958634Y-55825095D01*
X145071910Y-55711819D01*
X145133233Y-55678334D01*
X145159591Y-55675500D01*
X186950254Y-55675500D01*
X186965371Y-55673796D01*
X186980489Y-55672092D01*
X186980489Y-55672093D01*
X186980493Y-55672091D01*
X187161337Y-55651716D01*
X187248862Y-55641856D01*
X187248863Y-55641855D01*
X187248869Y-55641855D01*
X187402729Y-55606737D01*
X187541841Y-55574986D01*
X187825483Y-55475735D01*
X188096229Y-55345351D01*
X188267441Y-55237771D01*
X188350675Y-55185472D01*
X188585620Y-54998109D01*
X188798109Y-54785620D01*
X188798109Y-54785619D01*
X188803473Y-54780256D01*
X188803488Y-54780238D01*
X195698109Y-47885619D01*
X195885471Y-47650674D01*
X196045351Y-47396229D01*
X196045354Y-47396223D01*
X196175730Y-47125494D01*
X196175731Y-47125491D01*
X196175735Y-47125483D01*
X196274986Y-46841840D01*
X196341855Y-46548869D01*
X196375501Y-46250252D01*
X196375501Y-45949747D01*
X196341855Y-45651130D01*
X196274986Y-45358159D01*
X196175735Y-45074517D01*
X196175732Y-45074512D01*
X196175730Y-45074505D01*
X196045354Y-44803775D01*
X196045351Y-44803770D01*
X195885471Y-44549325D01*
X195698109Y-44314380D01*
X195485620Y-44101891D01*
X195479305Y-44096855D01*
X195439165Y-44039668D01*
X195436315Y-43969857D01*
X195471659Y-43909586D01*
X195533978Y-43877992D01*
X195603485Y-43885106D01*
X195624064Y-43895855D01*
X205957804Y-50594018D01*
X205957805Y-50594018D01*
X205968786Y-50601136D01*
X205982026Y-50614376D01*
X206001934Y-50622622D01*
X206011449Y-50628790D01*
X206011450Y-50628791D01*
X206020010Y-50634339D01*
X206020012Y-50634340D01*
X206025549Y-50635361D01*
X206025553Y-50635362D01*
X206038425Y-50637736D01*
X206055718Y-50644900D01*
X206077260Y-50644900D01*
X206098452Y-50648809D01*
X206103966Y-50647632D01*
X206129853Y-50644900D01*
X236175124Y-50644900D01*
X236242163Y-50664585D01*
X236287918Y-50717389D01*
X236299123Y-50768813D01*
X236302298Y-55349182D01*
X236324112Y-86826942D01*
X236304474Y-86893995D01*
X236251702Y-86939787D01*
X236222833Y-86948929D01*
X212898163Y-91296388D01*
X212898162Y-91296388D01*
X212884824Y-91298873D01*
X212866895Y-91298270D01*
X212846002Y-91306109D01*
X212835337Y-91308097D01*
X212835335Y-91308098D01*
X212824057Y-91310201D01*
X212824050Y-91310203D01*
X212820385Y-91312588D01*
X212820386Y-91312589D01*
X212811265Y-91318525D01*
X212809013Y-91319991D01*
X212792217Y-91326295D01*
X212775914Y-91341533D01*
X212766818Y-91347454D01*
X212766816Y-91347456D01*
X212757202Y-91353713D01*
X212754719Y-91357334D01*
X212737142Y-91377776D01*
X189833576Y-112787631D01*
X189771159Y-112819031D01*
X189770317Y-112819182D01*
X82985826Y-131546313D01*
X82916394Y-131538505D01*
X82862206Y-131494398D01*
X82842216Y-131445279D01*
X80941703Y-120438648D01*
X83258500Y-120438648D01*
X83258500Y-120643352D01*
X83262449Y-120668282D01*
X83290522Y-120845534D01*
X83353781Y-121040223D01*
X83417691Y-121165653D01*
X83434240Y-121198131D01*
X83446715Y-121222613D01*
X83567028Y-121388213D01*
X83711786Y-121532971D01*
X83842677Y-121628067D01*
X83877390Y-121653287D01*
X83993607Y-121712503D01*
X84059776Y-121746218D01*
X84059778Y-121746218D01*
X84059781Y-121746220D01*
X84164137Y-121780127D01*
X84254465Y-121809477D01*
X84355557Y-121825488D01*
X84456648Y-121841500D01*
X84456649Y-121841500D01*
X84661351Y-121841500D01*
X84661352Y-121841500D01*
X84863534Y-121809477D01*
X85058219Y-121746220D01*
X85240610Y-121653287D01*
X85333590Y-121585732D01*
X85406213Y-121532971D01*
X85406215Y-121532968D01*
X85406219Y-121532966D01*
X85550966Y-121388219D01*
X85550968Y-121388215D01*
X85550971Y-121388213D01*
X85651387Y-121250000D01*
X85671287Y-121222610D01*
X85764220Y-121040219D01*
X85827477Y-120845534D01*
X85859500Y-120643352D01*
X85859500Y-120438648D01*
X85839873Y-120314727D01*
X85827477Y-120236465D01*
X85766733Y-120049516D01*
X85764220Y-120041781D01*
X85764218Y-120041778D01*
X85764218Y-120041776D01*
X85729470Y-119973581D01*
X85671287Y-119859390D01*
X85622915Y-119792811D01*
X85550971Y-119693786D01*
X85406213Y-119549028D01*
X85240613Y-119428715D01*
X85240612Y-119428714D01*
X85240610Y-119428713D01*
X85164632Y-119390000D01*
X85058223Y-119335781D01*
X84863534Y-119272522D01*
X84680634Y-119243554D01*
X84661352Y-119240500D01*
X84456648Y-119240500D01*
X84437366Y-119243554D01*
X84254465Y-119272522D01*
X84059776Y-119335781D01*
X83877386Y-119428715D01*
X83711786Y-119549028D01*
X83567028Y-119693786D01*
X83446715Y-119859386D01*
X83353781Y-120041776D01*
X83290522Y-120236465D01*
X83278127Y-120314727D01*
X83258500Y-120438648D01*
X80941703Y-120438648D01*
X80658324Y-118797486D01*
X87574500Y-118797486D01*
X87574500Y-125738913D01*
X87603445Y-125921665D01*
X87660619Y-126097632D01*
X87660620Y-126097635D01*
X87744622Y-126262496D01*
X87853379Y-126412187D01*
X87984213Y-126543021D01*
X88133904Y-126651778D01*
X88214763Y-126692977D01*
X88298764Y-126735779D01*
X88298767Y-126735780D01*
X88386750Y-126764367D01*
X88474736Y-126792955D01*
X88657486Y-126821900D01*
X88657487Y-126821900D01*
X88842513Y-126821900D01*
X88842514Y-126821900D01*
X89025264Y-126792955D01*
X89201235Y-126735779D01*
X89366096Y-126651778D01*
X89515787Y-126543021D01*
X89646621Y-126412187D01*
X89715683Y-126317130D01*
X89771012Y-126274467D01*
X89840625Y-126268488D01*
X89902420Y-126301094D01*
X89936778Y-126361933D01*
X89940000Y-126390018D01*
X89940000Y-126544244D01*
X89946401Y-126603772D01*
X89946403Y-126603779D01*
X89996645Y-126738486D01*
X89996649Y-126738493D01*
X90082809Y-126853587D01*
X90082812Y-126853590D01*
X90197906Y-126939750D01*
X90197913Y-126939754D01*
X90332620Y-126989996D01*
X90332627Y-126989998D01*
X90392155Y-126996399D01*
X90392172Y-126996400D01*
X91040000Y-126996400D01*
X91040000Y-126079412D01*
X91097007Y-126112325D01*
X91224174Y-126146400D01*
X91355826Y-126146400D01*
X91482993Y-126112325D01*
X91540000Y-126079412D01*
X91540000Y-126996400D01*
X92187828Y-126996400D01*
X92187844Y-126996399D01*
X92247372Y-126989998D01*
X92247379Y-126989996D01*
X92382086Y-126939754D01*
X92382093Y-126939750D01*
X92497187Y-126853590D01*
X92497190Y-126853587D01*
X92583350Y-126738493D01*
X92583354Y-126738486D01*
X92633596Y-126603779D01*
X92633598Y-126603772D01*
X92639999Y-126544244D01*
X92640000Y-126544227D01*
X92640000Y-125896400D01*
X91723012Y-125896400D01*
X91755925Y-125839393D01*
X91790000Y-125712226D01*
X91790000Y-125580574D01*
X91755925Y-125453407D01*
X91723012Y-125396400D01*
X92640000Y-125396400D01*
X92640000Y-124748572D01*
X92639999Y-124748555D01*
X92633598Y-124689027D01*
X92633596Y-124689020D01*
X92583354Y-124554313D01*
X92583350Y-124554306D01*
X92497190Y-124439212D01*
X92497187Y-124439209D01*
X92382093Y-124353049D01*
X92382086Y-124353045D01*
X92247379Y-124302803D01*
X92247372Y-124302801D01*
X92187844Y-124296400D01*
X91540000Y-124296400D01*
X91540000Y-125213388D01*
X91482993Y-125180475D01*
X91355826Y-125146400D01*
X91224174Y-125146400D01*
X91097007Y-125180475D01*
X91040000Y-125213388D01*
X91040000Y-124296400D01*
X90392155Y-124296400D01*
X90332627Y-124302801D01*
X90332620Y-124302803D01*
X90197913Y-124353045D01*
X90197910Y-124353047D01*
X90123811Y-124408518D01*
X90058346Y-124432935D01*
X89990074Y-124418083D01*
X89940668Y-124368678D01*
X89925500Y-124309251D01*
X89925500Y-122230315D01*
X89945185Y-122163276D01*
X89997989Y-122117521D01*
X90067147Y-122107577D01*
X90130703Y-122136602D01*
X90149819Y-122157431D01*
X90174728Y-122191716D01*
X90807037Y-121559408D01*
X90824075Y-121622993D01*
X90889901Y-121737007D01*
X90982993Y-121830099D01*
X91097007Y-121895925D01*
X91160590Y-121912962D01*
X90528282Y-122545269D01*
X90528282Y-122545270D01*
X90582449Y-122584624D01*
X90771782Y-122681095D01*
X90973870Y-122746757D01*
X91183754Y-122780000D01*
X91396246Y-122780000D01*
X91606127Y-122746757D01*
X91606130Y-122746757D01*
X91808217Y-122681095D01*
X91997554Y-122584622D01*
X92051716Y-122545270D01*
X92051717Y-122545270D01*
X91419408Y-121912962D01*
X91482993Y-121895925D01*
X91597007Y-121830099D01*
X91690099Y-121737007D01*
X91755925Y-121622993D01*
X91772962Y-121559408D01*
X92405270Y-122191717D01*
X92405270Y-122191716D01*
X92444622Y-122137554D01*
X92449514Y-122127954D01*
X92497488Y-122077157D01*
X92565308Y-122060361D01*
X92631444Y-122082897D01*
X92670486Y-122127954D01*
X92675375Y-122137550D01*
X92714728Y-122191716D01*
X93347037Y-121559408D01*
X93364075Y-121622993D01*
X93429901Y-121737007D01*
X93522993Y-121830099D01*
X93637007Y-121895925D01*
X93700590Y-121912962D01*
X93068282Y-122545269D01*
X93068282Y-122545270D01*
X93122449Y-122584624D01*
X93311782Y-122681095D01*
X93513870Y-122746757D01*
X93723754Y-122780000D01*
X93936246Y-122780000D01*
X94146127Y-122746757D01*
X94146130Y-122746757D01*
X94348217Y-122681095D01*
X94537554Y-122584622D01*
X94591716Y-122545270D01*
X94591717Y-122545270D01*
X93959408Y-121912962D01*
X94022993Y-121895925D01*
X94137007Y-121830099D01*
X94230099Y-121737007D01*
X94295925Y-121622993D01*
X94312962Y-121559408D01*
X94945270Y-122191717D01*
X94945270Y-122191716D01*
X94984622Y-122137554D01*
X95081091Y-121948225D01*
X95082932Y-121943781D01*
X95126771Y-121889376D01*
X95193064Y-121867307D01*
X95260764Y-121884583D01*
X95307981Y-121934933D01*
X95343875Y-122005378D01*
X95364622Y-122046096D01*
X95473379Y-122195787D01*
X95604213Y-122326621D01*
X95753904Y-122435378D01*
X95834763Y-122476577D01*
X95918764Y-122519379D01*
X95918767Y-122519380D01*
X95998447Y-122545269D01*
X96094736Y-122576555D01*
X96277486Y-122605500D01*
X96277487Y-122605500D01*
X96462513Y-122605500D01*
X96462514Y-122605500D01*
X96645264Y-122576555D01*
X96821235Y-122519379D01*
X96986096Y-122435378D01*
X97135787Y-122326621D01*
X97266621Y-122195787D01*
X97375378Y-122046096D01*
X97459379Y-121881235D01*
X97516555Y-121705264D01*
X97545500Y-121522514D01*
X97545500Y-120438648D01*
X104340500Y-120438648D01*
X104340500Y-120643352D01*
X104344449Y-120668282D01*
X104372522Y-120845534D01*
X104435781Y-121040223D01*
X104499691Y-121165653D01*
X104516240Y-121198131D01*
X104528715Y-121222613D01*
X104649028Y-121388213D01*
X104793786Y-121532971D01*
X104924677Y-121628067D01*
X104959390Y-121653287D01*
X105075607Y-121712503D01*
X105141776Y-121746218D01*
X105141778Y-121746218D01*
X105141781Y-121746220D01*
X105246137Y-121780127D01*
X105336465Y-121809477D01*
X105437557Y-121825488D01*
X105538648Y-121841500D01*
X105538649Y-121841500D01*
X105743351Y-121841500D01*
X105743352Y-121841500D01*
X105945534Y-121809477D01*
X106140219Y-121746220D01*
X106322610Y-121653287D01*
X106415590Y-121585732D01*
X106488213Y-121532971D01*
X106488215Y-121532968D01*
X106488219Y-121532966D01*
X106632966Y-121388219D01*
X106632968Y-121388215D01*
X106632971Y-121388213D01*
X106733387Y-121250000D01*
X106753287Y-121222610D01*
X106846220Y-121040219D01*
X106909477Y-120845534D01*
X106941500Y-120643352D01*
X106941500Y-120438648D01*
X106921873Y-120314727D01*
X106909477Y-120236465D01*
X106848733Y-120049516D01*
X106846220Y-120041781D01*
X106846218Y-120041778D01*
X106846218Y-120041776D01*
X106811470Y-119973581D01*
X106753287Y-119859390D01*
X106704915Y-119792811D01*
X106632971Y-119693786D01*
X106488213Y-119549028D01*
X106322613Y-119428715D01*
X106322612Y-119428714D01*
X106322610Y-119428713D01*
X106246632Y-119390000D01*
X106140223Y-119335781D01*
X105945534Y-119272522D01*
X105762634Y-119243554D01*
X105743352Y-119240500D01*
X105538648Y-119240500D01*
X105519366Y-119243554D01*
X105336465Y-119272522D01*
X105141776Y-119335781D01*
X104959386Y-119428715D01*
X104793786Y-119549028D01*
X104649028Y-119693786D01*
X104528715Y-119859386D01*
X104435781Y-120041776D01*
X104372522Y-120236465D01*
X104360127Y-120314727D01*
X104340500Y-120438648D01*
X97545500Y-120438648D01*
X97545500Y-118797486D01*
X97545500Y-116054248D01*
X112491366Y-116054248D01*
X112491366Y-116258952D01*
X112495315Y-116283882D01*
X112523388Y-116461134D01*
X112586647Y-116655823D01*
X112679581Y-116838213D01*
X112799894Y-117003813D01*
X112944652Y-117148571D01*
X113099615Y-117261156D01*
X113110256Y-117268887D01*
X113226473Y-117328103D01*
X113292642Y-117361818D01*
X113292644Y-117361818D01*
X113292647Y-117361820D01*
X113397003Y-117395727D01*
X113487331Y-117425077D01*
X113588423Y-117441088D01*
X113689514Y-117457100D01*
X113689515Y-117457100D01*
X113894217Y-117457100D01*
X113894218Y-117457100D01*
X114096400Y-117425077D01*
X114291085Y-117361820D01*
X114473476Y-117268887D01*
X114566456Y-117201332D01*
X114639079Y-117148571D01*
X114639081Y-117148568D01*
X114639085Y-117148566D01*
X114783832Y-117003819D01*
X114783834Y-117003815D01*
X114783837Y-117003813D01*
X114836598Y-116931190D01*
X114904153Y-116838210D01*
X114997086Y-116655819D01*
X115060343Y-116461134D01*
X115092366Y-116258952D01*
X115092366Y-116054248D01*
X115072739Y-115930327D01*
X115060343Y-115852065D01*
X114999599Y-115665116D01*
X114997086Y-115657381D01*
X114997084Y-115657378D01*
X114997084Y-115657376D01*
X114962336Y-115589181D01*
X114904153Y-115474990D01*
X114896422Y-115464349D01*
X114783837Y-115309386D01*
X114639079Y-115164628D01*
X114473479Y-115044315D01*
X114473478Y-115044314D01*
X114473476Y-115044313D01*
X114397498Y-115005600D01*
X114291089Y-114951381D01*
X114096400Y-114888122D01*
X113911252Y-114858798D01*
X113894218Y-114856100D01*
X113689514Y-114856100D01*
X113672480Y-114858798D01*
X113487331Y-114888122D01*
X113292642Y-114951381D01*
X113110252Y-115044315D01*
X112944652Y-115164628D01*
X112799894Y-115309386D01*
X112679581Y-115474986D01*
X112586647Y-115657376D01*
X112523388Y-115852065D01*
X112510993Y-115930327D01*
X112491366Y-116054248D01*
X97545500Y-116054248D01*
X97545500Y-114413086D01*
X116807366Y-114413086D01*
X116807366Y-121015379D01*
X116836311Y-121198131D01*
X116893485Y-121374099D01*
X116893486Y-121374102D01*
X116969107Y-121522513D01*
X116977488Y-121538962D01*
X117086245Y-121688653D01*
X117294213Y-121896621D01*
X117443904Y-122005378D01*
X117523817Y-122046096D01*
X117608763Y-122089379D01*
X117608766Y-122089380D01*
X117664772Y-122107577D01*
X117784736Y-122146555D01*
X117967486Y-122175500D01*
X117967487Y-122175500D01*
X118152513Y-122175500D01*
X118152514Y-122175500D01*
X118335264Y-122146555D01*
X118511236Y-122089379D01*
X118676096Y-122005378D01*
X118825787Y-121896621D01*
X118956621Y-121765787D01*
X119025683Y-121670730D01*
X119081012Y-121628067D01*
X119150625Y-121622088D01*
X119212420Y-121654694D01*
X119246778Y-121715533D01*
X119250000Y-121743618D01*
X119250000Y-121897844D01*
X119256401Y-121957372D01*
X119256403Y-121957379D01*
X119306645Y-122092086D01*
X119306649Y-122092093D01*
X119392809Y-122207187D01*
X119392812Y-122207190D01*
X119507906Y-122293350D01*
X119507913Y-122293354D01*
X119642620Y-122343596D01*
X119642627Y-122343598D01*
X119702155Y-122349999D01*
X119702172Y-122350000D01*
X120350000Y-122350000D01*
X120350000Y-121433012D01*
X120407007Y-121465925D01*
X120534174Y-121500000D01*
X120665826Y-121500000D01*
X120792993Y-121465925D01*
X120850000Y-121433012D01*
X120850000Y-122350000D01*
X121497828Y-122350000D01*
X121497844Y-122349999D01*
X121557372Y-122343598D01*
X121557379Y-122343596D01*
X121692086Y-122293354D01*
X121692093Y-122293350D01*
X121807187Y-122207190D01*
X121807190Y-122207187D01*
X121893350Y-122092093D01*
X121893354Y-122092086D01*
X121943596Y-121957379D01*
X121943598Y-121957372D01*
X121949999Y-121897844D01*
X121950000Y-121897827D01*
X121950000Y-121250000D01*
X121033012Y-121250000D01*
X121065925Y-121192993D01*
X121100000Y-121065826D01*
X121100000Y-120934174D01*
X121065925Y-120807007D01*
X121033012Y-120750000D01*
X121950000Y-120750000D01*
X121950000Y-120102172D01*
X121949999Y-120102155D01*
X121943598Y-120042627D01*
X121943596Y-120042620D01*
X121893354Y-119907913D01*
X121893350Y-119907906D01*
X121807190Y-119792812D01*
X121807187Y-119792809D01*
X121692093Y-119706649D01*
X121692086Y-119706645D01*
X121557379Y-119656403D01*
X121557372Y-119656401D01*
X121497844Y-119650000D01*
X120850000Y-119650000D01*
X120850000Y-120566988D01*
X120792993Y-120534075D01*
X120665826Y-120500000D01*
X120534174Y-120500000D01*
X120407007Y-120534075D01*
X120350000Y-120566988D01*
X120350000Y-119650000D01*
X119702155Y-119650000D01*
X119642627Y-119656401D01*
X119642620Y-119656403D01*
X119507913Y-119706645D01*
X119507906Y-119706649D01*
X119392812Y-119792809D01*
X119392810Y-119792811D01*
X119381631Y-119807745D01*
X119325697Y-119849615D01*
X119256005Y-119854598D01*
X119194683Y-119821111D01*
X119161199Y-119759787D01*
X119158366Y-119733432D01*
X119158366Y-117845915D01*
X119178051Y-117778876D01*
X119230855Y-117733121D01*
X119300013Y-117723177D01*
X119363569Y-117752202D01*
X119382685Y-117773031D01*
X119407594Y-117807316D01*
X120039903Y-117175008D01*
X120056941Y-117238593D01*
X120122767Y-117352607D01*
X120215859Y-117445699D01*
X120329873Y-117511525D01*
X120393456Y-117528562D01*
X119761148Y-118160869D01*
X119761148Y-118160870D01*
X119815315Y-118200224D01*
X120004648Y-118296695D01*
X120206736Y-118362357D01*
X120416620Y-118395600D01*
X120629112Y-118395600D01*
X120838993Y-118362357D01*
X120838996Y-118362357D01*
X121041083Y-118296695D01*
X121230420Y-118200222D01*
X121284582Y-118160870D01*
X121284583Y-118160870D01*
X120652274Y-117528562D01*
X120715859Y-117511525D01*
X120829873Y-117445699D01*
X120922965Y-117352607D01*
X120988791Y-117238593D01*
X121005828Y-117175009D01*
X121638136Y-117807317D01*
X121638136Y-117807316D01*
X121677488Y-117753154D01*
X121682380Y-117743554D01*
X121730354Y-117692757D01*
X121798174Y-117675961D01*
X121864310Y-117698497D01*
X121903352Y-117743554D01*
X121908241Y-117753150D01*
X121947594Y-117807316D01*
X122579903Y-117175008D01*
X122596941Y-117238593D01*
X122662767Y-117352607D01*
X122755859Y-117445699D01*
X122869873Y-117511525D01*
X122933456Y-117528562D01*
X122301148Y-118160869D01*
X122301148Y-118160870D01*
X122355315Y-118200224D01*
X122544648Y-118296695D01*
X122746736Y-118362357D01*
X122956620Y-118395600D01*
X123169112Y-118395600D01*
X123378993Y-118362357D01*
X123378996Y-118362357D01*
X123581083Y-118296695D01*
X123770420Y-118200222D01*
X123824582Y-118160870D01*
X123824583Y-118160870D01*
X123192274Y-117528562D01*
X123255859Y-117511525D01*
X123369873Y-117445699D01*
X123462965Y-117352607D01*
X123528791Y-117238593D01*
X123545828Y-117175008D01*
X124178136Y-117807317D01*
X124178136Y-117807316D01*
X124217488Y-117753154D01*
X124313957Y-117563825D01*
X124315798Y-117559381D01*
X124359637Y-117504976D01*
X124425930Y-117482907D01*
X124493630Y-117500183D01*
X124540847Y-117550533D01*
X124547620Y-117563825D01*
X124597488Y-117661696D01*
X124706245Y-117811387D01*
X124837079Y-117942221D01*
X124986770Y-118050978D01*
X125062735Y-118089684D01*
X125151630Y-118134979D01*
X125151633Y-118134980D01*
X125231313Y-118160869D01*
X125327602Y-118192155D01*
X125510352Y-118221100D01*
X125510353Y-118221100D01*
X125695379Y-118221100D01*
X125695380Y-118221100D01*
X125878130Y-118192155D01*
X126054101Y-118134979D01*
X126218962Y-118050978D01*
X126368653Y-117942221D01*
X126499487Y-117811387D01*
X126608244Y-117661696D01*
X126692245Y-117496835D01*
X126749421Y-117320864D01*
X126778366Y-117138114D01*
X126778366Y-116054248D01*
X133573366Y-116054248D01*
X133573366Y-116258952D01*
X133577315Y-116283882D01*
X133605388Y-116461134D01*
X133668647Y-116655823D01*
X133761581Y-116838213D01*
X133881894Y-117003813D01*
X134026652Y-117148571D01*
X134181615Y-117261156D01*
X134192256Y-117268887D01*
X134308473Y-117328103D01*
X134374642Y-117361818D01*
X134374644Y-117361818D01*
X134374647Y-117361820D01*
X134479003Y-117395727D01*
X134569331Y-117425077D01*
X134670423Y-117441088D01*
X134771514Y-117457100D01*
X134771515Y-117457100D01*
X134976217Y-117457100D01*
X134976218Y-117457100D01*
X135178400Y-117425077D01*
X135373085Y-117361820D01*
X135555476Y-117268887D01*
X135648456Y-117201332D01*
X135721079Y-117148571D01*
X135721081Y-117148568D01*
X135721085Y-117148566D01*
X135865832Y-117003819D01*
X135865834Y-117003815D01*
X135865837Y-117003813D01*
X135918598Y-116931190D01*
X135986153Y-116838210D01*
X136079086Y-116655819D01*
X136142343Y-116461134D01*
X136174366Y-116258952D01*
X136174366Y-116054248D01*
X136154739Y-115930327D01*
X136142343Y-115852065D01*
X136081599Y-115665116D01*
X136079086Y-115657381D01*
X136079084Y-115657378D01*
X136079084Y-115657376D01*
X136044336Y-115589181D01*
X135986153Y-115474990D01*
X135978422Y-115464349D01*
X135865837Y-115309386D01*
X135721079Y-115164628D01*
X135555479Y-115044315D01*
X135555478Y-115044314D01*
X135555476Y-115044313D01*
X135479498Y-115005600D01*
X135373089Y-114951381D01*
X135178400Y-114888122D01*
X134993252Y-114858798D01*
X134976218Y-114856100D01*
X134771514Y-114856100D01*
X134754480Y-114858798D01*
X134569331Y-114888122D01*
X134374642Y-114951381D01*
X134192252Y-115044315D01*
X134026652Y-115164628D01*
X133881894Y-115309386D01*
X133761581Y-115474986D01*
X133668647Y-115657376D01*
X133605388Y-115852065D01*
X133592993Y-115930327D01*
X133573366Y-116054248D01*
X126778366Y-116054248D01*
X126778366Y-114912644D01*
X126788986Y-114875005D01*
X126784844Y-114873659D01*
X126804681Y-114812607D01*
X126846555Y-114683730D01*
X126875500Y-114500980D01*
X126875500Y-107748648D01*
X152608500Y-107748648D01*
X152608500Y-107953352D01*
X152611618Y-107973036D01*
X152640522Y-108155534D01*
X152703781Y-108350223D01*
X152767691Y-108475653D01*
X152795539Y-108530306D01*
X152796715Y-108532613D01*
X152917028Y-108698213D01*
X153061786Y-108842971D01*
X153200034Y-108943412D01*
X153227390Y-108963287D01*
X153343607Y-109022503D01*
X153409776Y-109056218D01*
X153409778Y-109056218D01*
X153409781Y-109056220D01*
X153514137Y-109090127D01*
X153604465Y-109119477D01*
X153705557Y-109135488D01*
X153806648Y-109151500D01*
X153806649Y-109151500D01*
X154011351Y-109151500D01*
X154011352Y-109151500D01*
X154213534Y-109119477D01*
X154408219Y-109056220D01*
X154590610Y-108963287D01*
X154716532Y-108871800D01*
X154756213Y-108842971D01*
X154756215Y-108842968D01*
X154756219Y-108842966D01*
X154900966Y-108698219D01*
X154900968Y-108698215D01*
X154900971Y-108698213D01*
X154978578Y-108591394D01*
X155021287Y-108532610D01*
X155114220Y-108350219D01*
X155177477Y-108155534D01*
X155209500Y-107953352D01*
X155209500Y-107748648D01*
X155183996Y-107587626D01*
X155177477Y-107546465D01*
X155116733Y-107359516D01*
X155114220Y-107351781D01*
X155114218Y-107351778D01*
X155114218Y-107351776D01*
X155079470Y-107283581D01*
X155021287Y-107169390D01*
X155013556Y-107158749D01*
X154900971Y-107003786D01*
X154756213Y-106859028D01*
X154590613Y-106738715D01*
X154590612Y-106738714D01*
X154590610Y-106738713D01*
X154514632Y-106700000D01*
X154408223Y-106645781D01*
X154213534Y-106582522D01*
X154030634Y-106553554D01*
X154011352Y-106550500D01*
X153806648Y-106550500D01*
X153787366Y-106553554D01*
X153604465Y-106582522D01*
X153409776Y-106645781D01*
X153227386Y-106738715D01*
X153061786Y-106859028D01*
X152917028Y-107003786D01*
X152796715Y-107169386D01*
X152703781Y-107351776D01*
X152640522Y-107546465D01*
X152616923Y-107695465D01*
X152608500Y-107748648D01*
X126875500Y-107748648D01*
X126875500Y-106107486D01*
X156924500Y-106107486D01*
X156924500Y-113480713D01*
X156953445Y-113663465D01*
X157010619Y-113839433D01*
X157010620Y-113839436D01*
X157049275Y-113915299D01*
X157094622Y-114004296D01*
X157203379Y-114153987D01*
X157461213Y-114411821D01*
X157610904Y-114520578D01*
X157691762Y-114561777D01*
X157775763Y-114604579D01*
X157775766Y-114604580D01*
X157863750Y-114633167D01*
X157951736Y-114661755D01*
X158134486Y-114690700D01*
X158134487Y-114690700D01*
X158319513Y-114690700D01*
X158319514Y-114690700D01*
X158502264Y-114661755D01*
X158678236Y-114604579D01*
X158843096Y-114520578D01*
X158992787Y-114411821D01*
X159123621Y-114280987D01*
X159192683Y-114185930D01*
X159248012Y-114143267D01*
X159317625Y-114137288D01*
X159379420Y-114169894D01*
X159413778Y-114230733D01*
X159417000Y-114258818D01*
X159417000Y-114413044D01*
X159423401Y-114472572D01*
X159423403Y-114472579D01*
X159473645Y-114607286D01*
X159473649Y-114607293D01*
X159559809Y-114722387D01*
X159559812Y-114722390D01*
X159674906Y-114808550D01*
X159674913Y-114808554D01*
X159809620Y-114858796D01*
X159809627Y-114858798D01*
X159869155Y-114865199D01*
X159869172Y-114865200D01*
X160517000Y-114865200D01*
X160517000Y-113948212D01*
X160574007Y-113981125D01*
X160701174Y-114015200D01*
X160832826Y-114015200D01*
X160959993Y-113981125D01*
X161017000Y-113948212D01*
X161017000Y-114865200D01*
X161664828Y-114865200D01*
X161664844Y-114865199D01*
X161724372Y-114858798D01*
X161724379Y-114858796D01*
X161859086Y-114808554D01*
X161859093Y-114808550D01*
X161974187Y-114722390D01*
X161974190Y-114722387D01*
X162060350Y-114607293D01*
X162060354Y-114607286D01*
X162110596Y-114472579D01*
X162110598Y-114472572D01*
X162116999Y-114413044D01*
X162117000Y-114413027D01*
X162117000Y-113765200D01*
X161200012Y-113765200D01*
X161232925Y-113708193D01*
X161267000Y-113581026D01*
X161267000Y-113449374D01*
X161232925Y-113322207D01*
X161200012Y-113265200D01*
X162117000Y-113265200D01*
X162117000Y-112617372D01*
X162116999Y-112617355D01*
X162110598Y-112557827D01*
X162110596Y-112557820D01*
X162060354Y-112423113D01*
X162060350Y-112423106D01*
X161974190Y-112308012D01*
X161974187Y-112308009D01*
X161859093Y-112221849D01*
X161859086Y-112221845D01*
X161724379Y-112171603D01*
X161724372Y-112171601D01*
X161664844Y-112165200D01*
X161017000Y-112165200D01*
X161017000Y-113082188D01*
X160959993Y-113049275D01*
X160832826Y-113015200D01*
X160701174Y-113015200D01*
X160574007Y-113049275D01*
X160517000Y-113082188D01*
X160517000Y-112165200D01*
X159869155Y-112165200D01*
X159809627Y-112171601D01*
X159809620Y-112171603D01*
X159674913Y-112221845D01*
X159674906Y-112221849D01*
X159559812Y-112308009D01*
X159498766Y-112389556D01*
X159442832Y-112431426D01*
X159373140Y-112436410D01*
X159311818Y-112402924D01*
X159278333Y-112341601D01*
X159275500Y-112315244D01*
X159275500Y-109540315D01*
X159295185Y-109473276D01*
X159347989Y-109427521D01*
X159417147Y-109417577D01*
X159480703Y-109446602D01*
X159499819Y-109467431D01*
X159524728Y-109501716D01*
X160157037Y-108869408D01*
X160174075Y-108932993D01*
X160239901Y-109047007D01*
X160332993Y-109140099D01*
X160447007Y-109205925D01*
X160510590Y-109222962D01*
X159878282Y-109855269D01*
X159878282Y-109855270D01*
X159932449Y-109894624D01*
X160121782Y-109991095D01*
X160323870Y-110056757D01*
X160533754Y-110090000D01*
X160746246Y-110090000D01*
X160956127Y-110056757D01*
X160956130Y-110056757D01*
X161158217Y-109991095D01*
X161347554Y-109894622D01*
X161401716Y-109855270D01*
X161401717Y-109855270D01*
X160769408Y-109222962D01*
X160832993Y-109205925D01*
X160947007Y-109140099D01*
X161040099Y-109047007D01*
X161105925Y-108932993D01*
X161122962Y-108869408D01*
X161755270Y-109501717D01*
X161755270Y-109501716D01*
X161794622Y-109447554D01*
X161799514Y-109437954D01*
X161847488Y-109387157D01*
X161915308Y-109370361D01*
X161981444Y-109392897D01*
X162020486Y-109437954D01*
X162025375Y-109447550D01*
X162064728Y-109501716D01*
X162697037Y-108869408D01*
X162714075Y-108932993D01*
X162779901Y-109047007D01*
X162872993Y-109140099D01*
X162987007Y-109205925D01*
X163050590Y-109222962D01*
X162418282Y-109855269D01*
X162418282Y-109855270D01*
X162472449Y-109894624D01*
X162661782Y-109991095D01*
X162863870Y-110056757D01*
X163073754Y-110090000D01*
X163286246Y-110090000D01*
X163496127Y-110056757D01*
X163496130Y-110056757D01*
X163698217Y-109991095D01*
X163887554Y-109894622D01*
X163941716Y-109855270D01*
X163941717Y-109855270D01*
X163309408Y-109222962D01*
X163372993Y-109205925D01*
X163487007Y-109140099D01*
X163580099Y-109047007D01*
X163645925Y-108932993D01*
X163662962Y-108869408D01*
X164295270Y-109501717D01*
X164295270Y-109501716D01*
X164334622Y-109447554D01*
X164431091Y-109258225D01*
X164432932Y-109253781D01*
X164476771Y-109199376D01*
X164543064Y-109177307D01*
X164610764Y-109194583D01*
X164657981Y-109244933D01*
X164684791Y-109297550D01*
X164714622Y-109356096D01*
X164823379Y-109505787D01*
X164954213Y-109636621D01*
X165103904Y-109745378D01*
X165184763Y-109786577D01*
X165268764Y-109829379D01*
X165268767Y-109829380D01*
X165348447Y-109855269D01*
X165444736Y-109886555D01*
X165627486Y-109915500D01*
X165627487Y-109915500D01*
X165812513Y-109915500D01*
X165812514Y-109915500D01*
X165995264Y-109886555D01*
X166171235Y-109829379D01*
X166336096Y-109745378D01*
X166485787Y-109636621D01*
X166616621Y-109505787D01*
X166725378Y-109356096D01*
X166809379Y-109191235D01*
X166866555Y-109015264D01*
X166895500Y-108832514D01*
X166895500Y-107748648D01*
X173690500Y-107748648D01*
X173690500Y-107953352D01*
X173693618Y-107973036D01*
X173722522Y-108155534D01*
X173785781Y-108350223D01*
X173849691Y-108475653D01*
X173877539Y-108530306D01*
X173878715Y-108532613D01*
X173999028Y-108698213D01*
X174143786Y-108842971D01*
X174282034Y-108943412D01*
X174309390Y-108963287D01*
X174425607Y-109022503D01*
X174491776Y-109056218D01*
X174491778Y-109056218D01*
X174491781Y-109056220D01*
X174596137Y-109090127D01*
X174686465Y-109119477D01*
X174787557Y-109135488D01*
X174888648Y-109151500D01*
X174888649Y-109151500D01*
X175093351Y-109151500D01*
X175093352Y-109151500D01*
X175295534Y-109119477D01*
X175490219Y-109056220D01*
X175672610Y-108963287D01*
X175798532Y-108871800D01*
X175838213Y-108842971D01*
X175838215Y-108842968D01*
X175838219Y-108842966D01*
X175982966Y-108698219D01*
X175982968Y-108698215D01*
X175982971Y-108698213D01*
X176060578Y-108591394D01*
X176103287Y-108532610D01*
X176196220Y-108350219D01*
X176259477Y-108155534D01*
X176291500Y-107953352D01*
X176291500Y-107748648D01*
X176265996Y-107587626D01*
X176259477Y-107546465D01*
X176198733Y-107359516D01*
X176196220Y-107351781D01*
X176196218Y-107351778D01*
X176196218Y-107351776D01*
X176161470Y-107283581D01*
X176103287Y-107169390D01*
X176095556Y-107158749D01*
X175982971Y-107003786D01*
X175838213Y-106859028D01*
X175672613Y-106738715D01*
X175672612Y-106738714D01*
X175672610Y-106738713D01*
X175596632Y-106700000D01*
X175490223Y-106645781D01*
X175295534Y-106582522D01*
X175112634Y-106553554D01*
X175093352Y-106550500D01*
X174888648Y-106550500D01*
X174869366Y-106553554D01*
X174686465Y-106582522D01*
X174491776Y-106645781D01*
X174309386Y-106738715D01*
X174143786Y-106859028D01*
X173999028Y-107003786D01*
X173878715Y-107169386D01*
X173785781Y-107351776D01*
X173722522Y-107546465D01*
X173698923Y-107695465D01*
X173690500Y-107748648D01*
X166895500Y-107748648D01*
X166895500Y-106107486D01*
X166895500Y-94052035D01*
X166899698Y-94020045D01*
X166900550Y-94016850D01*
X166946555Y-93875264D01*
X166953653Y-93830448D01*
X180691366Y-93830448D01*
X180691366Y-94035152D01*
X180694040Y-94052035D01*
X180723388Y-94237334D01*
X180786647Y-94432023D01*
X180879581Y-94614413D01*
X180999894Y-94780013D01*
X181144652Y-94924771D01*
X181299615Y-95037356D01*
X181310256Y-95045087D01*
X181426473Y-95104303D01*
X181492642Y-95138018D01*
X181492644Y-95138018D01*
X181492647Y-95138020D01*
X181597003Y-95171927D01*
X181687331Y-95201277D01*
X181788423Y-95217288D01*
X181889514Y-95233300D01*
X181889515Y-95233300D01*
X182094217Y-95233300D01*
X182094218Y-95233300D01*
X182296400Y-95201277D01*
X182491085Y-95138020D01*
X182673476Y-95045087D01*
X182773869Y-94972148D01*
X182839079Y-94924771D01*
X182839081Y-94924768D01*
X182839085Y-94924766D01*
X182983832Y-94780019D01*
X182983834Y-94780015D01*
X182983837Y-94780013D01*
X183036598Y-94707390D01*
X183104153Y-94614410D01*
X183197086Y-94432019D01*
X183260343Y-94237334D01*
X183292366Y-94035152D01*
X183292366Y-93830448D01*
X183270519Y-93692513D01*
X183260343Y-93628265D01*
X183199599Y-93441316D01*
X183197086Y-93433581D01*
X183197084Y-93433578D01*
X183197084Y-93433576D01*
X183162336Y-93365381D01*
X183104153Y-93251190D01*
X183060971Y-93191754D01*
X182983837Y-93085586D01*
X182839079Y-92940828D01*
X182673479Y-92820515D01*
X182673478Y-92820514D01*
X182673476Y-92820513D01*
X182597498Y-92781800D01*
X182491089Y-92727581D01*
X182296400Y-92664322D01*
X182113500Y-92635354D01*
X182094218Y-92632300D01*
X181889514Y-92632300D01*
X181870232Y-92635354D01*
X181687331Y-92664322D01*
X181492642Y-92727581D01*
X181310252Y-92820515D01*
X181144652Y-92940828D01*
X180999894Y-93085586D01*
X180879581Y-93251186D01*
X180786647Y-93433576D01*
X180723388Y-93628265D01*
X180697374Y-93792514D01*
X180691366Y-93830448D01*
X166953653Y-93830448D01*
X166975500Y-93692514D01*
X166975500Y-88338270D01*
X166995185Y-88271231D01*
X167011819Y-88250589D01*
X168595760Y-86666648D01*
X173715900Y-86666648D01*
X173715900Y-86871352D01*
X173716602Y-86875785D01*
X173716633Y-86885138D01*
X173716619Y-86885183D01*
X173716634Y-86885545D01*
X173716634Y-86896694D01*
X173721941Y-86930199D01*
X173748639Y-87098763D01*
X173748638Y-87098763D01*
X173811861Y-87293341D01*
X173904743Y-87475629D01*
X174024988Y-87641134D01*
X174024992Y-87641139D01*
X174169660Y-87785807D01*
X174169665Y-87785811D01*
X174262770Y-87853455D01*
X174335174Y-87906059D01*
X174451327Y-87965241D01*
X174517458Y-87998938D01*
X174517460Y-87998938D01*
X174517463Y-87998940D01*
X174621759Y-88032828D01*
X174712036Y-88062161D01*
X174813071Y-88078163D01*
X174914106Y-88094166D01*
X174914107Y-88094166D01*
X175118693Y-88094166D01*
X175118694Y-88094166D01*
X175320763Y-88062161D01*
X175515337Y-87998940D01*
X175697626Y-87906059D01*
X175863141Y-87785806D01*
X176007806Y-87641141D01*
X176128059Y-87475626D01*
X176220940Y-87293337D01*
X176284161Y-87098763D01*
X176316166Y-86896694D01*
X176316166Y-86885545D01*
X176316549Y-86875811D01*
X176316900Y-86871353D01*
X176316900Y-86666648D01*
X176284877Y-86464465D01*
X176235893Y-86313708D01*
X176221620Y-86269781D01*
X176221618Y-86269778D01*
X176221618Y-86269776D01*
X176160001Y-86148848D01*
X176128687Y-86087390D01*
X176120956Y-86076749D01*
X176008371Y-85921786D01*
X175863613Y-85777028D01*
X175698013Y-85656715D01*
X175698012Y-85656714D01*
X175698010Y-85656713D01*
X175641053Y-85627691D01*
X175515623Y-85563781D01*
X175320934Y-85500522D01*
X175129043Y-85470130D01*
X175118752Y-85468500D01*
X174914048Y-85468500D01*
X174903757Y-85470130D01*
X174711865Y-85500522D01*
X174517176Y-85563781D01*
X174334786Y-85656715D01*
X174169186Y-85777028D01*
X174024428Y-85921786D01*
X173904115Y-86087386D01*
X173811181Y-86269776D01*
X173747922Y-86464465D01*
X173715915Y-86666548D01*
X173715915Y-86666553D01*
X173715900Y-86666648D01*
X168595760Y-86666648D01*
X174950589Y-80311819D01*
X175011912Y-80278334D01*
X175038270Y-80275500D01*
X175109811Y-80275500D01*
X175109818Y-80275500D01*
X175327575Y-80246832D01*
X175539727Y-80189986D01*
X175742645Y-80105935D01*
X175932855Y-79996116D01*
X176107104Y-79862410D01*
X176262410Y-79707104D01*
X176396116Y-79532855D01*
X176505935Y-79342645D01*
X176589986Y-79139727D01*
X176646832Y-78927575D01*
X176675500Y-78709818D01*
X176675500Y-78490182D01*
X176646832Y-78272425D01*
X176589986Y-78060273D01*
X176505935Y-77857355D01*
X176396116Y-77667145D01*
X176262410Y-77492896D01*
X176262405Y-77492890D01*
X176107109Y-77337594D01*
X176107102Y-77337588D01*
X175932863Y-77203890D01*
X175932861Y-77203889D01*
X175932855Y-77203884D01*
X175742645Y-77094065D01*
X175742641Y-77094063D01*
X175539729Y-77010014D01*
X175327573Y-76953167D01*
X175109828Y-76924501D01*
X175109823Y-76924500D01*
X175109818Y-76924500D01*
X174890182Y-76924500D01*
X174890176Y-76924500D01*
X174890171Y-76924501D01*
X174672426Y-76953167D01*
X174460270Y-77010014D01*
X174257358Y-77094063D01*
X174257354Y-77094065D01*
X174067145Y-77203884D01*
X174067136Y-77203890D01*
X173892897Y-77337588D01*
X173892890Y-77337594D01*
X173737594Y-77492890D01*
X173737588Y-77492897D01*
X173603890Y-77667136D01*
X173603884Y-77667145D01*
X173494065Y-77857354D01*
X173494063Y-77857358D01*
X173410014Y-78060270D01*
X173353167Y-78272426D01*
X173324501Y-78490171D01*
X173324500Y-78490188D01*
X173324500Y-78561730D01*
X173304815Y-78628769D01*
X173288181Y-78649411D01*
X164903381Y-87034210D01*
X164903381Y-87034211D01*
X164903379Y-87034213D01*
X164879843Y-87066608D01*
X164794622Y-87183903D01*
X164710620Y-87348763D01*
X164710618Y-87348769D01*
X164669401Y-87475626D01*
X164662983Y-87495380D01*
X164658304Y-87509779D01*
X164653444Y-87524737D01*
X164624500Y-87707486D01*
X164624500Y-93191754D01*
X164611948Y-93244038D01*
X164612486Y-93244261D01*
X164611079Y-93247657D01*
X164610986Y-93248046D01*
X164610623Y-93248756D01*
X164610619Y-93248766D01*
X164553445Y-93424734D01*
X164527801Y-93586644D01*
X164524500Y-93607486D01*
X164524500Y-93792514D01*
X164536675Y-93869380D01*
X164542973Y-93909145D01*
X164544500Y-93928543D01*
X164544500Y-105399684D01*
X164524815Y-105466723D01*
X164472011Y-105512478D01*
X164402853Y-105522422D01*
X164339297Y-105493397D01*
X164320182Y-105472569D01*
X164295271Y-105438282D01*
X164295269Y-105438282D01*
X163662962Y-106070590D01*
X163645925Y-106007007D01*
X163580099Y-105892993D01*
X163487007Y-105799901D01*
X163372993Y-105734075D01*
X163309409Y-105717037D01*
X163941716Y-105084728D01*
X163887550Y-105045375D01*
X163698217Y-104948904D01*
X163496129Y-104883242D01*
X163286246Y-104850000D01*
X163073754Y-104850000D01*
X162863872Y-104883242D01*
X162863869Y-104883242D01*
X162661782Y-104948904D01*
X162472439Y-105045380D01*
X162418282Y-105084727D01*
X162418282Y-105084728D01*
X163050591Y-105717037D01*
X162987007Y-105734075D01*
X162872993Y-105799901D01*
X162779901Y-105892993D01*
X162714075Y-106007007D01*
X162697037Y-106070591D01*
X162064728Y-105438282D01*
X162064727Y-105438282D01*
X162025380Y-105492440D01*
X162020483Y-105502051D01*
X161972506Y-105552845D01*
X161904684Y-105569638D01*
X161838550Y-105547098D01*
X161799516Y-105502048D01*
X161794626Y-105492452D01*
X161755270Y-105438282D01*
X161755269Y-105438282D01*
X161122962Y-106070590D01*
X161105925Y-106007007D01*
X161040099Y-105892993D01*
X160947007Y-105799901D01*
X160832993Y-105734075D01*
X160769409Y-105717037D01*
X161401716Y-105084728D01*
X161347550Y-105045375D01*
X161158217Y-104948904D01*
X160956129Y-104883242D01*
X160746246Y-104850000D01*
X160533754Y-104850000D01*
X160323872Y-104883242D01*
X160323869Y-104883242D01*
X160121782Y-104948904D01*
X159932439Y-105045380D01*
X159878282Y-105084727D01*
X159878282Y-105084728D01*
X160510591Y-105717037D01*
X160447007Y-105734075D01*
X160332993Y-105799901D01*
X160239901Y-105892993D01*
X160174075Y-106007007D01*
X160157037Y-106070591D01*
X159524728Y-105438282D01*
X159524727Y-105438282D01*
X159485380Y-105492439D01*
X159388900Y-105681790D01*
X159387060Y-105686233D01*
X159343215Y-105740633D01*
X159276919Y-105762692D01*
X159209221Y-105745408D01*
X159162018Y-105695066D01*
X159105377Y-105583903D01*
X159082812Y-105552845D01*
X158996621Y-105434213D01*
X158865787Y-105303379D01*
X158716096Y-105194622D01*
X158551235Y-105110620D01*
X158551232Y-105110619D01*
X158375265Y-105053445D01*
X158283889Y-105038972D01*
X158192514Y-105024500D01*
X158007486Y-105024500D01*
X157946569Y-105034148D01*
X157824734Y-105053445D01*
X157648767Y-105110619D01*
X157648764Y-105110620D01*
X157483903Y-105194622D01*
X157398499Y-105256672D01*
X157334213Y-105303379D01*
X157334211Y-105303381D01*
X157334210Y-105303381D01*
X157203381Y-105434210D01*
X157203381Y-105434211D01*
X157203379Y-105434213D01*
X157200423Y-105438282D01*
X157094622Y-105583903D01*
X157010620Y-105748764D01*
X157010619Y-105748767D01*
X156953445Y-105924734D01*
X156924500Y-106107486D01*
X126875500Y-106107486D01*
X126875500Y-94972248D01*
X133598766Y-94972248D01*
X133598766Y-95176952D01*
X133599468Y-95181385D01*
X133599499Y-95190738D01*
X133599485Y-95190783D01*
X133599500Y-95191145D01*
X133599500Y-95202293D01*
X133631504Y-95404363D01*
X133694727Y-95598941D01*
X133787609Y-95781229D01*
X133907854Y-95946734D01*
X133907858Y-95946739D01*
X134052526Y-96091407D01*
X134052531Y-96091411D01*
X134117423Y-96138557D01*
X134218040Y-96211659D01*
X134334193Y-96270841D01*
X134400324Y-96304538D01*
X134400326Y-96304538D01*
X134400329Y-96304540D01*
X134504625Y-96338428D01*
X134594902Y-96367761D01*
X134695937Y-96383763D01*
X134796972Y-96399766D01*
X134796973Y-96399766D01*
X135001559Y-96399766D01*
X135001560Y-96399766D01*
X135203629Y-96367761D01*
X135398203Y-96304540D01*
X135580492Y-96211659D01*
X135746007Y-96091406D01*
X135890672Y-95946741D01*
X136010925Y-95781226D01*
X136103806Y-95598937D01*
X136167027Y-95404363D01*
X136199032Y-95202294D01*
X136199032Y-95191145D01*
X136199415Y-95181411D01*
X136199766Y-95176953D01*
X136199766Y-94972248D01*
X136167743Y-94770065D01*
X136104484Y-94575376D01*
X136031439Y-94432019D01*
X136011553Y-94392990D01*
X135959831Y-94321800D01*
X135891237Y-94227386D01*
X135746479Y-94082628D01*
X135580879Y-93962315D01*
X135580878Y-93962314D01*
X135580876Y-93962313D01*
X135495452Y-93918787D01*
X135398489Y-93869381D01*
X135203800Y-93806122D01*
X135029261Y-93778478D01*
X135001618Y-93774100D01*
X134796914Y-93774100D01*
X134772595Y-93777951D01*
X134594731Y-93806122D01*
X134400042Y-93869381D01*
X134217652Y-93962315D01*
X134052052Y-94082628D01*
X133907294Y-94227386D01*
X133786981Y-94392986D01*
X133694047Y-94575376D01*
X133630788Y-94770065D01*
X133598781Y-94972148D01*
X133598781Y-94972153D01*
X133598766Y-94972248D01*
X126875500Y-94972248D01*
X126875500Y-89095376D01*
X126895185Y-89028337D01*
X126911820Y-89007694D01*
X126962406Y-88957108D01*
X126962410Y-88957104D01*
X127096116Y-88782855D01*
X127205935Y-88592645D01*
X127289986Y-88389727D01*
X127346832Y-88177575D01*
X127375500Y-87959818D01*
X127375500Y-87740182D01*
X127346832Y-87522425D01*
X127289986Y-87310273D01*
X127284518Y-87297073D01*
X127214322Y-87127603D01*
X127205935Y-87107355D01*
X127096116Y-86917145D01*
X127015736Y-86812392D01*
X126962411Y-86742897D01*
X126962405Y-86742890D01*
X126807109Y-86587594D01*
X126807102Y-86587588D01*
X126632863Y-86453890D01*
X126632861Y-86453889D01*
X126632855Y-86453884D01*
X126442645Y-86344065D01*
X126442641Y-86344063D01*
X126239729Y-86260014D01*
X126027573Y-86203167D01*
X125809828Y-86174501D01*
X125809823Y-86174500D01*
X125809818Y-86174500D01*
X125590182Y-86174500D01*
X125590176Y-86174500D01*
X125590171Y-86174501D01*
X125372426Y-86203167D01*
X125160270Y-86260014D01*
X124957358Y-86344063D01*
X124957354Y-86344065D01*
X124767145Y-86453884D01*
X124767136Y-86453890D01*
X124592897Y-86587588D01*
X124592890Y-86587594D01*
X124437594Y-86742890D01*
X124437588Y-86742897D01*
X124303890Y-86917136D01*
X124303884Y-86917145D01*
X124194065Y-87107354D01*
X124194063Y-87107358D01*
X124110014Y-87310270D01*
X124053167Y-87522426D01*
X124024501Y-87740171D01*
X124024500Y-87740188D01*
X124024500Y-87959811D01*
X124024501Y-87959828D01*
X124053167Y-88177573D01*
X124110014Y-88389729D01*
X124131933Y-88442645D01*
X124194065Y-88592645D01*
X124303884Y-88782855D01*
X124303889Y-88782861D01*
X124303890Y-88782863D01*
X124437588Y-88957102D01*
X124437593Y-88957108D01*
X124488180Y-89007694D01*
X124521666Y-89069017D01*
X124524500Y-89095376D01*
X124524500Y-113884090D01*
X124504815Y-113951129D01*
X124452011Y-113996884D01*
X124382853Y-114006828D01*
X124319297Y-113977803D01*
X124290015Y-113940385D01*
X124217490Y-113798050D01*
X124178136Y-113743882D01*
X124178135Y-113743882D01*
X123545828Y-114376190D01*
X123528791Y-114312607D01*
X123462965Y-114198593D01*
X123369873Y-114105501D01*
X123255859Y-114039675D01*
X123192275Y-114022637D01*
X123824582Y-113390328D01*
X123770416Y-113350975D01*
X123581083Y-113254504D01*
X123378995Y-113188842D01*
X123169112Y-113155600D01*
X122956620Y-113155600D01*
X122746738Y-113188842D01*
X122746735Y-113188842D01*
X122544648Y-113254504D01*
X122355305Y-113350980D01*
X122301148Y-113390327D01*
X122301148Y-113390328D01*
X122933457Y-114022637D01*
X122869873Y-114039675D01*
X122755859Y-114105501D01*
X122662767Y-114198593D01*
X122596941Y-114312607D01*
X122579903Y-114376191D01*
X121947594Y-113743882D01*
X121947593Y-113743882D01*
X121908246Y-113798040D01*
X121903349Y-113807651D01*
X121855372Y-113858445D01*
X121787550Y-113875238D01*
X121721416Y-113852698D01*
X121682382Y-113807648D01*
X121677492Y-113798052D01*
X121638136Y-113743882D01*
X121638135Y-113743882D01*
X121005828Y-114376190D01*
X120988791Y-114312607D01*
X120922965Y-114198593D01*
X120829873Y-114105501D01*
X120715859Y-114039675D01*
X120652275Y-114022637D01*
X121284582Y-113390328D01*
X121230416Y-113350975D01*
X121041083Y-113254504D01*
X120838995Y-113188842D01*
X120629112Y-113155600D01*
X120416620Y-113155600D01*
X120206738Y-113188842D01*
X120206735Y-113188842D01*
X120004648Y-113254504D01*
X119815305Y-113350980D01*
X119761148Y-113390327D01*
X119761148Y-113390328D01*
X120393457Y-114022637D01*
X120329873Y-114039675D01*
X120215859Y-114105501D01*
X120122767Y-114198593D01*
X120056941Y-114312607D01*
X120039903Y-114376191D01*
X119407594Y-113743882D01*
X119407593Y-113743882D01*
X119368246Y-113798039D01*
X119271766Y-113987390D01*
X119269926Y-113991833D01*
X119226081Y-114046233D01*
X119159785Y-114068292D01*
X119092087Y-114051008D01*
X119044884Y-114000666D01*
X119027443Y-113966436D01*
X118988244Y-113889504D01*
X118879487Y-113739813D01*
X118748653Y-113608979D01*
X118598962Y-113500222D01*
X118434101Y-113416220D01*
X118434098Y-113416219D01*
X118258131Y-113359045D01*
X118166755Y-113344572D01*
X118075380Y-113330100D01*
X117890352Y-113330100D01*
X117829435Y-113339748D01*
X117707600Y-113359045D01*
X117531633Y-113416219D01*
X117531630Y-113416220D01*
X117366769Y-113500222D01*
X117281365Y-113562272D01*
X117217079Y-113608979D01*
X117217077Y-113608981D01*
X117217076Y-113608981D01*
X117086247Y-113739810D01*
X117086247Y-113739811D01*
X117086245Y-113739813D01*
X117049445Y-113790464D01*
X116977488Y-113889503D01*
X116893486Y-114054364D01*
X116893485Y-114054367D01*
X116836311Y-114230334D01*
X116807366Y-114413086D01*
X97545500Y-114413086D01*
X97545500Y-110181995D01*
X103799500Y-110181995D01*
X103799500Y-110418004D01*
X103799501Y-110418020D01*
X103830306Y-110652010D01*
X103891394Y-110879993D01*
X103981714Y-111098045D01*
X103981719Y-111098056D01*
X104052677Y-111220957D01*
X104099727Y-111302450D01*
X104099729Y-111302453D01*
X104099730Y-111302454D01*
X104243406Y-111489697D01*
X104243412Y-111489704D01*
X104410295Y-111656587D01*
X104410301Y-111656592D01*
X104597550Y-111800273D01*
X104728918Y-111876118D01*
X104801943Y-111918280D01*
X104801948Y-111918282D01*
X104801951Y-111918284D01*
X105020007Y-112008606D01*
X105247986Y-112069693D01*
X105481989Y-112100500D01*
X105481996Y-112100500D01*
X105718004Y-112100500D01*
X105718011Y-112100500D01*
X105952014Y-112069693D01*
X106179993Y-112008606D01*
X106398049Y-111918284D01*
X106602450Y-111800273D01*
X106789699Y-111656592D01*
X106956592Y-111489699D01*
X107100273Y-111302450D01*
X107218284Y-111098049D01*
X107308606Y-110879993D01*
X107369693Y-110652014D01*
X107400500Y-110418011D01*
X107400500Y-110181989D01*
X107369693Y-109947986D01*
X107308606Y-109720007D01*
X107218284Y-109501951D01*
X107218282Y-109501948D01*
X107218280Y-109501943D01*
X107169571Y-109417577D01*
X107100273Y-109297550D01*
X107018695Y-109191235D01*
X106956593Y-109110302D01*
X106956587Y-109110295D01*
X106789704Y-108943412D01*
X106789697Y-108943406D01*
X106602454Y-108799730D01*
X106602453Y-108799729D01*
X106602450Y-108799727D01*
X106498998Y-108739999D01*
X106398056Y-108681719D01*
X106398045Y-108681714D01*
X106179993Y-108591394D01*
X105952010Y-108530306D01*
X105718020Y-108499501D01*
X105718017Y-108499500D01*
X105718011Y-108499500D01*
X105481989Y-108499500D01*
X105481983Y-108499500D01*
X105481979Y-108499501D01*
X105247989Y-108530306D01*
X105020006Y-108591394D01*
X104801954Y-108681714D01*
X104801943Y-108681719D01*
X104597545Y-108799730D01*
X104410302Y-108943406D01*
X104410295Y-108943412D01*
X104243412Y-109110295D01*
X104243406Y-109110302D01*
X104099730Y-109297545D01*
X103981719Y-109501943D01*
X103981714Y-109501954D01*
X103891394Y-109720006D01*
X103830306Y-109947989D01*
X103799501Y-110181979D01*
X103799500Y-110181995D01*
X97545500Y-110181995D01*
X97545500Y-99382048D01*
X104289700Y-99382048D01*
X104289700Y-99586751D01*
X104321722Y-99788934D01*
X104384981Y-99983623D01*
X104477915Y-100166013D01*
X104598228Y-100331613D01*
X104742986Y-100476371D01*
X104897949Y-100588956D01*
X104908590Y-100596687D01*
X105024807Y-100655903D01*
X105090976Y-100689618D01*
X105090978Y-100689618D01*
X105090981Y-100689620D01*
X105195337Y-100723527D01*
X105285665Y-100752877D01*
X105386757Y-100768888D01*
X105487848Y-100784900D01*
X105487849Y-100784900D01*
X105692551Y-100784900D01*
X105692552Y-100784900D01*
X105894734Y-100752877D01*
X106089419Y-100689620D01*
X106271810Y-100596687D01*
X106364790Y-100529132D01*
X106437413Y-100476371D01*
X106437415Y-100476368D01*
X106437419Y-100476366D01*
X106582166Y-100331619D01*
X106582168Y-100331615D01*
X106582171Y-100331613D01*
X106634932Y-100258990D01*
X106702487Y-100166010D01*
X106795420Y-99983619D01*
X106858677Y-99788934D01*
X106890700Y-99586752D01*
X106890700Y-99382048D01*
X106858677Y-99179866D01*
X106795420Y-98985181D01*
X106795418Y-98985178D01*
X106795418Y-98985176D01*
X106761703Y-98919007D01*
X106702487Y-98802790D01*
X106613704Y-98680589D01*
X106582171Y-98637186D01*
X106437413Y-98492428D01*
X106271813Y-98372115D01*
X106271812Y-98372114D01*
X106271810Y-98372113D01*
X106214853Y-98343091D01*
X106089423Y-98279181D01*
X105894734Y-98215922D01*
X105720195Y-98188278D01*
X105692552Y-98183900D01*
X105487848Y-98183900D01*
X105463529Y-98187751D01*
X105285665Y-98215922D01*
X105090976Y-98279181D01*
X104908586Y-98372115D01*
X104742986Y-98492428D01*
X104598228Y-98637186D01*
X104477915Y-98802786D01*
X104384981Y-98985176D01*
X104321722Y-99179865D01*
X104289700Y-99382048D01*
X97545500Y-99382048D01*
X97545500Y-98768270D01*
X97565185Y-98701231D01*
X97581819Y-98680589D01*
X106850589Y-89411819D01*
X106911912Y-89378334D01*
X106938270Y-89375500D01*
X107009811Y-89375500D01*
X107009818Y-89375500D01*
X107227575Y-89346832D01*
X107439727Y-89289986D01*
X107642645Y-89205935D01*
X107832855Y-89096116D01*
X108007104Y-88962410D01*
X108162410Y-88807104D01*
X108296116Y-88632855D01*
X108405935Y-88442645D01*
X108489986Y-88239727D01*
X108546832Y-88027575D01*
X108575500Y-87809818D01*
X108575500Y-87590182D01*
X108546832Y-87372425D01*
X108489986Y-87160273D01*
X108455910Y-87078007D01*
X108405936Y-86957358D01*
X108405935Y-86957355D01*
X108296116Y-86767145D01*
X108196311Y-86637076D01*
X108162411Y-86592897D01*
X108162405Y-86592890D01*
X108007109Y-86437594D01*
X108007102Y-86437588D01*
X107832863Y-86303890D01*
X107832861Y-86303889D01*
X107832855Y-86303884D01*
X107642645Y-86194065D01*
X107642641Y-86194063D01*
X107439729Y-86110014D01*
X107227573Y-86053167D01*
X107009828Y-86024501D01*
X107009823Y-86024500D01*
X107009818Y-86024500D01*
X106790182Y-86024500D01*
X106790176Y-86024500D01*
X106790171Y-86024501D01*
X106572426Y-86053167D01*
X106360270Y-86110014D01*
X106157358Y-86194063D01*
X106157354Y-86194065D01*
X105967145Y-86303884D01*
X105967136Y-86303890D01*
X105792897Y-86437588D01*
X105792890Y-86437594D01*
X105637594Y-86592890D01*
X105637588Y-86592897D01*
X105503890Y-86767136D01*
X105503884Y-86767145D01*
X105394065Y-86957354D01*
X105394063Y-86957358D01*
X105310014Y-87160270D01*
X105253167Y-87372426D01*
X105224501Y-87590171D01*
X105224500Y-87590188D01*
X105224500Y-87661730D01*
X105204815Y-87728769D01*
X105188181Y-87749411D01*
X95473381Y-97464210D01*
X95473381Y-97464211D01*
X95473379Y-97464213D01*
X95426672Y-97528499D01*
X95364622Y-97613903D01*
X95280173Y-97779642D01*
X95279113Y-97783402D01*
X95223445Y-97954732D01*
X95194500Y-98137486D01*
X95194500Y-118089684D01*
X95174815Y-118156723D01*
X95122011Y-118202478D01*
X95052853Y-118212422D01*
X94989297Y-118183397D01*
X94970182Y-118162569D01*
X94945271Y-118128282D01*
X94945269Y-118128282D01*
X94312962Y-118760590D01*
X94295925Y-118697007D01*
X94230099Y-118582993D01*
X94137007Y-118489901D01*
X94022993Y-118424075D01*
X93959409Y-118407037D01*
X94591716Y-117774728D01*
X94537550Y-117735375D01*
X94348217Y-117638904D01*
X94146129Y-117573242D01*
X93936246Y-117540000D01*
X93723754Y-117540000D01*
X93513872Y-117573242D01*
X93513869Y-117573242D01*
X93311782Y-117638904D01*
X93122439Y-117735380D01*
X93068282Y-117774727D01*
X93068282Y-117774728D01*
X93700591Y-118407037D01*
X93637007Y-118424075D01*
X93522993Y-118489901D01*
X93429901Y-118582993D01*
X93364075Y-118697007D01*
X93347037Y-118760591D01*
X92714728Y-118128282D01*
X92714727Y-118128282D01*
X92675380Y-118182440D01*
X92670483Y-118192051D01*
X92622506Y-118242845D01*
X92554684Y-118259638D01*
X92488550Y-118237098D01*
X92449516Y-118192048D01*
X92444626Y-118182452D01*
X92405270Y-118128282D01*
X92405269Y-118128282D01*
X91772962Y-118760590D01*
X91755925Y-118697007D01*
X91690099Y-118582993D01*
X91597007Y-118489901D01*
X91482993Y-118424075D01*
X91419409Y-118407037D01*
X92051716Y-117774728D01*
X91997550Y-117735375D01*
X91808217Y-117638904D01*
X91606129Y-117573242D01*
X91396246Y-117540000D01*
X91183754Y-117540000D01*
X90973872Y-117573242D01*
X90973869Y-117573242D01*
X90771782Y-117638904D01*
X90582439Y-117735380D01*
X90528282Y-117774727D01*
X90528282Y-117774728D01*
X91160591Y-118407037D01*
X91097007Y-118424075D01*
X90982993Y-118489901D01*
X90889901Y-118582993D01*
X90824075Y-118697007D01*
X90807037Y-118760591D01*
X90174728Y-118128282D01*
X90174727Y-118128282D01*
X90135380Y-118182439D01*
X90038900Y-118371790D01*
X90037060Y-118376233D01*
X89993215Y-118430633D01*
X89926919Y-118452692D01*
X89859221Y-118435408D01*
X89812018Y-118385066D01*
X89800447Y-118362357D01*
X89755378Y-118273904D01*
X89646621Y-118124213D01*
X89515787Y-117993379D01*
X89366096Y-117884622D01*
X89201235Y-117800620D01*
X89201232Y-117800619D01*
X89025265Y-117743445D01*
X88897298Y-117723177D01*
X88842514Y-117714500D01*
X88657486Y-117714500D01*
X88602702Y-117723177D01*
X88474734Y-117743445D01*
X88298767Y-117800619D01*
X88298764Y-117800620D01*
X88133903Y-117884622D01*
X88054630Y-117942218D01*
X87984213Y-117993379D01*
X87984211Y-117993381D01*
X87984210Y-117993381D01*
X87853381Y-118124210D01*
X87853381Y-118124211D01*
X87853379Y-118124213D01*
X87829759Y-118156723D01*
X87744622Y-118273903D01*
X87660620Y-118438764D01*
X87660619Y-118438767D01*
X87603445Y-118614734D01*
X87574500Y-118797486D01*
X80658324Y-118797486D01*
X73229296Y-75773006D01*
X73229380Y-75772631D01*
X73222500Y-75733646D01*
X73215790Y-75694784D01*
X73215789Y-75694783D01*
X73213956Y-75684162D01*
X73213439Y-75682301D01*
X73190557Y-75552638D01*
X72669231Y-72598455D01*
X72676965Y-72529016D01*
X72721014Y-72474781D01*
X72769768Y-72454799D01*
X80052975Y-71168100D01*
X80075282Y-71168100D01*
X80091872Y-71161228D01*
X80109556Y-71158104D01*
X80128366Y-71146112D01*
X80148974Y-71137576D01*
X80161670Y-71124879D01*
X80176814Y-71115225D01*
X80189604Y-71096945D01*
X80205376Y-71081174D01*
X80212247Y-71064585D01*
X80222543Y-71049871D01*
X80227364Y-71028089D01*
X80235900Y-71007482D01*
X80235900Y-70989525D01*
X80239781Y-70971992D01*
X80237791Y-70960727D01*
X80235900Y-70939154D01*
X80235900Y-69951555D01*
X83901200Y-69951555D01*
X83901200Y-71149400D01*
X84958786Y-71149400D01*
X84926200Y-71313220D01*
X84926200Y-71485580D01*
X84958786Y-71649400D01*
X83901200Y-71649400D01*
X83901200Y-72847244D01*
X83907601Y-72906772D01*
X83907603Y-72906779D01*
X83957845Y-73041486D01*
X83957849Y-73041493D01*
X84044009Y-73156587D01*
X84044012Y-73156590D01*
X84159106Y-73242750D01*
X84159113Y-73242754D01*
X84293820Y-73292996D01*
X84293827Y-73292998D01*
X84353355Y-73299399D01*
X84353372Y-73299400D01*
X85551200Y-73299400D01*
X85551200Y-72241813D01*
X85715020Y-72274400D01*
X85887380Y-72274400D01*
X86051200Y-72241813D01*
X86051200Y-73299400D01*
X87249028Y-73299400D01*
X87249044Y-73299399D01*
X87308572Y-73292998D01*
X87308579Y-73292996D01*
X87443286Y-73242754D01*
X87443293Y-73242750D01*
X87558387Y-73156590D01*
X87558390Y-73156587D01*
X87644550Y-73041493D01*
X87644554Y-73041486D01*
X87694796Y-72906779D01*
X87694798Y-72906772D01*
X87701199Y-72847244D01*
X87701200Y-72847227D01*
X87701200Y-71649400D01*
X86643614Y-71649400D01*
X86676200Y-71485580D01*
X86676200Y-71313220D01*
X86643614Y-71149400D01*
X87701200Y-71149400D01*
X87701200Y-70646395D01*
X96751500Y-70646395D01*
X96751500Y-70882404D01*
X96751501Y-70882420D01*
X96782306Y-71116410D01*
X96843394Y-71344393D01*
X96933714Y-71562445D01*
X96933719Y-71562456D01*
X97004677Y-71685357D01*
X97051727Y-71766850D01*
X97051729Y-71766853D01*
X97051730Y-71766854D01*
X97195406Y-71954097D01*
X97195412Y-71954104D01*
X97362295Y-72120987D01*
X97362302Y-72120993D01*
X97465222Y-72199966D01*
X97549550Y-72264673D01*
X97680918Y-72340518D01*
X97753943Y-72382680D01*
X97753948Y-72382682D01*
X97753951Y-72382684D01*
X97972007Y-72473006D01*
X98199986Y-72534093D01*
X98433989Y-72564900D01*
X98433996Y-72564900D01*
X98670004Y-72564900D01*
X98670011Y-72564900D01*
X98904014Y-72534093D01*
X99131993Y-72473006D01*
X99350049Y-72382684D01*
X99554450Y-72264673D01*
X99741699Y-72120992D01*
X99908592Y-71954099D01*
X100052273Y-71766850D01*
X100170284Y-71562449D01*
X100260606Y-71344393D01*
X100321693Y-71116414D01*
X100352500Y-70882411D01*
X100352500Y-70646389D01*
X100321693Y-70412386D01*
X100260606Y-70184407D01*
X100170284Y-69966351D01*
X100170282Y-69966348D01*
X100170280Y-69966343D01*
X100110274Y-69862411D01*
X100052273Y-69761950D01*
X99908592Y-69574701D01*
X99908587Y-69574695D01*
X99741704Y-69407812D01*
X99741697Y-69407806D01*
X99554454Y-69264130D01*
X99554453Y-69264129D01*
X99554450Y-69264127D01*
X99472957Y-69217077D01*
X99350056Y-69146119D01*
X99350045Y-69146114D01*
X99131993Y-69055794D01*
X98904734Y-68994900D01*
X98904014Y-68994707D01*
X98904013Y-68994706D01*
X98904010Y-68994706D01*
X98670020Y-68963901D01*
X98670017Y-68963900D01*
X98670011Y-68963900D01*
X98433989Y-68963900D01*
X98433983Y-68963900D01*
X98433979Y-68963901D01*
X98199989Y-68994706D01*
X97972006Y-69055794D01*
X97753954Y-69146114D01*
X97753943Y-69146119D01*
X97549545Y-69264130D01*
X97362302Y-69407806D01*
X97362295Y-69407812D01*
X97195412Y-69574695D01*
X97195406Y-69574702D01*
X97051730Y-69761945D01*
X96933719Y-69966343D01*
X96933714Y-69966354D01*
X96843394Y-70184406D01*
X96782306Y-70412389D01*
X96751501Y-70646379D01*
X96751500Y-70646395D01*
X87701200Y-70646395D01*
X87701200Y-69951572D01*
X87701199Y-69951555D01*
X87694798Y-69892027D01*
X87694796Y-69892020D01*
X87644554Y-69757313D01*
X87644550Y-69757306D01*
X87558390Y-69642212D01*
X87558387Y-69642209D01*
X87443293Y-69556049D01*
X87443286Y-69556045D01*
X87308579Y-69505803D01*
X87308572Y-69505801D01*
X87249044Y-69499400D01*
X86051200Y-69499400D01*
X86051200Y-70556986D01*
X85887380Y-70524400D01*
X85715020Y-70524400D01*
X85551200Y-70556986D01*
X85551200Y-69499400D01*
X84353355Y-69499400D01*
X84293827Y-69505801D01*
X84293820Y-69505803D01*
X84159113Y-69556045D01*
X84159106Y-69556049D01*
X84044012Y-69642209D01*
X84044009Y-69642212D01*
X83957849Y-69757306D01*
X83957845Y-69757313D01*
X83907603Y-69892020D01*
X83907601Y-69892027D01*
X83901200Y-69951555D01*
X80235900Y-69951555D01*
X80235900Y-61995367D01*
X80255585Y-61928328D01*
X80308389Y-61882573D01*
X80359772Y-61871367D01*
X129598182Y-61820901D01*
X129636027Y-61821628D01*
X129637983Y-61820861D01*
X129640087Y-61820859D01*
X129675064Y-61806329D01*
X129710291Y-61792524D01*
X129711801Y-61791069D01*
X129713743Y-61790263D01*
X129713744Y-61790261D01*
X129713748Y-61790260D01*
X129740499Y-61763453D01*
X129767765Y-61737215D01*
X129768604Y-61735291D01*
X129770089Y-61733804D01*
X129770089Y-61733802D01*
X129770092Y-61733800D01*
X129784128Y-61699812D01*
X129784976Y-61697817D01*
X129799698Y-61664122D01*
X129799698Y-61664115D01*
X129800407Y-61660881D01*
X129800541Y-61660266D01*
X129800541Y-61660076D01*
X129800503Y-61623442D01*
X129800526Y-61620961D01*
X129801034Y-61594494D01*
X129994459Y-51516582D01*
X130015426Y-51449934D01*
X130069098Y-51405201D01*
X130116259Y-51394982D01*
X141202960Y-51200479D01*
X141242035Y-51200059D01*
X141242667Y-51199788D01*
X141243369Y-51199776D01*
X141243387Y-51199772D01*
X141243391Y-51199770D01*
X141243393Y-51199770D01*
X141279087Y-51184245D01*
X141279638Y-51184007D01*
X141315395Y-51168745D01*
X141315397Y-51168743D01*
X141316289Y-51168133D01*
X141316521Y-51167973D01*
X141316533Y-51167959D01*
X141316538Y-51167958D01*
X141343784Y-51139738D01*
X141371187Y-51111740D01*
X141371190Y-51111730D01*
X141371774Y-51110837D01*
X141371775Y-51110835D01*
X141371785Y-51110821D01*
X141371935Y-51110589D01*
X141371939Y-51110577D01*
X141371942Y-51110575D01*
X141386299Y-51074116D01*
X141400917Y-51037724D01*
X141400909Y-51037034D01*
X141401168Y-51036378D01*
X141400787Y-51014674D01*
X141400485Y-50997492D01*
X141400478Y-50996966D01*
X141273397Y-39178334D01*
X141204016Y-32725833D01*
X141222979Y-32658586D01*
X141275288Y-32612266D01*
X141328009Y-32600500D01*
X178161231Y-32600500D01*
X178228270Y-32620185D01*
G37*
%TD.AperFunction*%
%TD*%
M02*
