M48
; DRILL file {KiCad 9.0.6} date 2026-01-21T14:55:07-0600
; FORMAT={-:-/ absolute / metric / decimal}
; #@! TF.CreationDate,2026-01-21T14:55:07-06:00
; #@! TF.GenerationSoftware,Kicad,Pcbnew,9.0.6
; #@! TF.FileFunction,NonPlated,1,2,NPTH
FMAT,2
METRIC
; #@! TA.AperFunction,NonPlated,NPTH,ComponentDrill
T1C2.200
; #@! TA.AperFunction,NonPlated,NPTH,ComponentDrill
T2C3.200
%
G90
G05
T1
X84.559Y-120.541
X105.59Y-99.484
X105.641Y-120.541
X113.792Y-116.157
X134.874Y-116.157
X134.899Y-95.075
X153.909Y-107.851
X153.922Y-67.064
X174.991Y-107.851
X175.004Y-67.064
X175.016Y-86.769
X181.992Y-93.933
X203.074Y-93.933
X203.099Y-72.8
X211.559Y-77.138
X232.601Y-56.02
X232.641Y-77.138
T2
X98.552Y-70.764
X105.6Y-110.3
X230.632Y-65.964
M30
