M48
; DRILL file {KiCad 9.0.6} date 2026-01-21T14:55:07-0600
; FORMAT={-:-/ absolute / metric / decimal}
; #@! TF.CreationDate,2026-01-21T14:55:07-06:00
; #@! TF.GenerationSoftware,Kicad,Pcbnew,9.0.6
; #@! TF.FileFunction,Plated,1,2,PTH
FMAT,2
METRIC
; #@! TA.AperFunction,Plated,PTH,ComponentDrill
T1C1.000
; #@! TA.AperFunction,Plated,PTH,ViaDrill
T2C1.250
; #@! TA.AperFunction,Plated,PTH,ComponentDrill
T3C1.300
; #@! TA.AperFunction,Plated,PTH,ComponentDrill
T4C1.750
%
G90
G05
T1
X88.75Y-118.89
X88.75Y-121.43
X88.75Y-125.646
X91.29Y-118.89
X91.29Y-121.43
X91.29Y-125.646
X93.83Y-118.89
X93.83Y-121.43
X96.37Y-118.89
X96.37Y-121.43
X117.983Y-114.506
X117.983Y-117.046
X118.06Y-121.0
X120.523Y-114.506
X120.523Y-117.046
X120.6Y-121.0
X123.063Y-114.506
X123.063Y-117.046
X125.603Y-114.506
X125.603Y-117.046
X158.1Y-106.2
X158.1Y-108.74
X158.113Y-65.418
X158.113Y-67.958
X158.227Y-113.515
X160.64Y-106.2
X160.64Y-108.74
X160.653Y-65.418
X160.653Y-67.958
X160.767Y-113.515
X163.18Y-106.2
X163.18Y-108.74
X163.193Y-65.418
X163.193Y-67.958
X165.72Y-106.2
X165.72Y-108.74
X165.733Y-65.418
X165.733Y-67.958
X181.5Y-66.1
X184.04Y-66.1
X186.183Y-92.282
X186.183Y-94.822
X186.284Y-107.522
X188.723Y-92.282
X188.723Y-94.822
X188.824Y-107.522
X191.263Y-92.282
X191.263Y-94.822
X193.803Y-92.282
X193.803Y-94.822
X215.75Y-75.487
X215.75Y-78.027
X215.776Y-85.723
X218.29Y-75.487
X218.29Y-78.027
X218.316Y-85.723
X220.83Y-75.487
X220.83Y-78.027
X223.37Y-75.487
X223.37Y-78.027
T2
X165.6Y-47.1
X165.6Y-59.1
T3
X106.9Y-65.2
X106.9Y-87.7
X125.7Y-65.35
X125.7Y-87.85
X152.2Y-37.5
X152.5Y-78.6
X174.7Y-37.5
X175.0Y-78.6
X183.0Y-39.3
X183.0Y-61.8
X193.7Y-46.1
X193.7Y-68.6
T4
X85.801Y-66.319
X85.801Y-71.399
M30
