%TF.GenerationSoftware,KiCad,Pcbnew,9.0.6*%
%TF.CreationDate,2026-01-21T14:54:26-06:00*%
%TF.ProjectId,buckboard,6275636b-626f-4617-9264-2e6b69636164,rev?*%
%TF.SameCoordinates,Original*%
%TF.FileFunction,Profile,NP*%
%FSLAX46Y46*%
G04 Gerber Fmt 4.6, Leading zero omitted, Abs format (unit mm)*
G04 Created by KiCad (PCBNEW 9.0.6) date 2026-01-21 14:54:26*
%MOMM*%
%LPD*%
G01*
G04 APERTURE LIST*
%TA.AperFunction,Profile*%
%ADD10C,0.100000*%
%TD*%
%TA.AperFunction,Profile*%
%ADD11C,0.200000*%
%TD*%
G04 APERTURE END LIST*
D10*
X80035400Y-70967600D02*
X80035400Y-61671200D01*
D11*
X236499400Y-50444400D02*
X236524800Y-87096600D01*
X129800000Y-51200000D02*
X141200000Y-51000000D01*
X236524800Y-87096600D02*
X212900000Y-91500000D01*
D10*
X141200000Y-51000000D02*
X141000000Y-32400000D01*
D11*
X189900000Y-113000000D02*
X82700000Y-131800000D01*
D10*
X178257200Y-32400000D02*
X141000000Y-32400000D01*
D11*
X129600000Y-61620400D02*
X129800000Y-51200000D01*
X135998532Y-95100000D02*
G75*
G02*
X133800000Y-95100000I-1099266J0D01*
G01*
X133800000Y-95100000D02*
G75*
G02*
X135998532Y-95100000I1099266J0D01*
G01*
D10*
X73025000Y-75768200D02*
X72415400Y-72313800D01*
D11*
X204198532Y-72800000D02*
G75*
G02*
X202000000Y-72800000I-1099266J0D01*
G01*
X202000000Y-72800000D02*
G75*
G02*
X204198532Y-72800000I1099266J0D01*
G01*
D10*
X72415400Y-72313800D02*
X80035400Y-70967600D01*
D11*
X212900000Y-91500000D02*
X189900000Y-113000000D01*
D10*
X206095600Y-50444400D02*
X178257200Y-32400000D01*
D11*
X176115666Y-86794400D02*
G75*
G02*
X173917134Y-86794400I-1099266J0D01*
G01*
X173917134Y-86794400D02*
G75*
G02*
X176115666Y-86794400I1099266J0D01*
G01*
D10*
X80035400Y-61671200D02*
X129600000Y-61620400D01*
D11*
X233715066Y-56030412D02*
G75*
G02*
X231516534Y-56030412I-1099266J0D01*
G01*
X231516534Y-56030412D02*
G75*
G02*
X233715066Y-56030412I1099266J0D01*
G01*
X82700000Y-131800000D02*
X73025000Y-75768200D01*
D10*
X236499400Y-50444400D02*
X206095600Y-50444400D01*
M02*
