%TF.GenerationSoftware,KiCad,Pcbnew,9.0.6*%
%TF.CreationDate,2026-01-28T12:20:58-06:00*%
%TF.ProjectId,mainboard,6d61696e-626f-4617-9264-2e6b69636164,rev?*%
%TF.SameCoordinates,Original*%
%TF.FileFunction,Profile,NP*%
%FSLAX46Y46*%
G04 Gerber Fmt 4.6, Leading zero omitted, Abs format (unit mm)*
G04 Created by KiCad (PCBNEW 9.0.6) date 2026-01-28 12:20:58*
%MOMM*%
%LPD*%
G01*
G04 APERTURE LIST*
%TA.AperFunction,Profile*%
%ADD10C,0.100000*%
%TD*%
%TA.AperFunction,Profile*%
%ADD11C,0.200000*%
%TD*%
G04 APERTURE END LIST*
D10*
X342255970Y-119567605D02*
X328843220Y-119567605D01*
X262473395Y-32950205D02*
X407473395Y-32950205D01*
X292479795Y-163951005D02*
G75*
G02*
X288879795Y-163951005I-1800000J0D01*
G01*
X288879795Y-163951005D02*
G75*
G02*
X292479795Y-163951005I1800000J0D01*
G01*
X323738595Y-168665805D02*
X323739371Y-124622212D01*
X292480795Y-107451005D02*
G75*
G02*
X288880795Y-107451005I-1800000J0D01*
G01*
X288880795Y-107451005D02*
G75*
G02*
X292480795Y-107451005I1800000J0D01*
G01*
D11*
X274893233Y-36611205D02*
G75*
G02*
X271493233Y-36611205I-1700000J0D01*
G01*
X271493233Y-36611205D02*
G75*
G02*
X274893233Y-36611205I1700000J0D01*
G01*
X264402395Y-161981643D02*
G75*
G02*
X261002395Y-161981643I-1700000J0D01*
G01*
X261002395Y-161981643D02*
G75*
G02*
X264402395Y-161981643I1700000J0D01*
G01*
D10*
X262245195Y-155280005D02*
X262473395Y-32950205D01*
X262311628Y-168644873D02*
G75*
G02*
X262245194Y-155279995I416172J6684673D01*
G01*
X407456995Y-155356205D02*
G75*
G02*
X407390561Y-168721063I-482595J-6680195D01*
G01*
X323739370Y-124622212D02*
G75*
G02*
X328843220Y-119567562I5080030J-25388D01*
G01*
X342257520Y-119567598D02*
G75*
G02*
X347361395Y-124622205I23880J-5080002D01*
G01*
X323738595Y-168665805D02*
X262321395Y-168645473D01*
X407456995Y-155356206D02*
X407473395Y-32950205D01*
X347360595Y-168742005D02*
X347361370Y-124622205D01*
X273061795Y-107473805D02*
G75*
G02*
X269461795Y-107473805I-1800000J0D01*
G01*
X269461795Y-107473805D02*
G75*
G02*
X273061795Y-107473805I1800000J0D01*
G01*
X273108795Y-163951005D02*
G75*
G02*
X269508795Y-163951005I-1800000J0D01*
G01*
X269508795Y-163951005D02*
G75*
G02*
X273108795Y-163951005I1800000J0D01*
G01*
D11*
X408725195Y-162007043D02*
G75*
G02*
X405325195Y-162007043I-1700000J0D01*
G01*
X405325195Y-162007043D02*
G75*
G02*
X408725195Y-162007043I1700000J0D01*
G01*
D10*
X347360595Y-168742005D02*
X407390388Y-168721073D01*
D11*
X398293233Y-36611205D02*
G75*
G02*
X394893233Y-36611205I-1700000J0D01*
G01*
X394893233Y-36611205D02*
G75*
G02*
X398293233Y-36611205I1700000J0D01*
G01*
M02*
