%TF.GenerationSoftware,KiCad,Pcbnew,9.0.6*%
%TF.CreationDate,2026-01-28T12:20:58-06:00*%
%TF.ProjectId,mainboard,6d61696e-626f-4617-9264-2e6b69636164,rev?*%
%TF.SameCoordinates,Original*%
%TF.FileFunction,Paste,Bot*%
%TF.FilePolarity,Positive*%
%FSLAX46Y46*%
G04 Gerber Fmt 4.6, Leading zero omitted, Abs format (unit mm)*
G04 Created by KiCad (PCBNEW 9.0.6) date 2026-01-28 12:20:58*
%MOMM*%
%LPD*%
G01*
G04 APERTURE LIST*
G04 Aperture macros list*
%AMRoundRect*
0 Rectangle with rounded corners*
0 $1 Rounding radius*
0 $2 $3 $4 $5 $6 $7 $8 $9 X,Y pos of 4 corners*
0 Add a 4 corners polygon primitive as box body*
4,1,4,$2,$3,$4,$5,$6,$7,$8,$9,$2,$3,0*
0 Add four circle primitives for the rounded corners*
1,1,$1+$1,$2,$3*
1,1,$1+$1,$4,$5*
1,1,$1+$1,$6,$7*
1,1,$1+$1,$8,$9*
0 Add four rect primitives between the rounded corners*
20,1,$1+$1,$2,$3,$4,$5,0*
20,1,$1+$1,$4,$5,$6,$7,0*
20,1,$1+$1,$6,$7,$8,$9,0*
20,1,$1+$1,$8,$9,$2,$3,0*%
G04 Aperture macros list end*
%ADD10RoundRect,0.250000X-0.450000X0.262500X-0.450000X-0.262500X0.450000X-0.262500X0.450000X0.262500X0*%
%ADD11RoundRect,0.250000X0.262500X0.450000X-0.262500X0.450000X-0.262500X-0.450000X0.262500X-0.450000X0*%
%ADD12RoundRect,0.250000X-0.475000X0.250000X-0.475000X-0.250000X0.475000X-0.250000X0.475000X0.250000X0*%
%ADD13RoundRect,0.250000X0.159099X-0.512652X0.512652X-0.159099X-0.159099X0.512652X-0.512652X0.159099X0*%
%ADD14RoundRect,0.250000X-0.262500X-0.450000X0.262500X-0.450000X0.262500X0.450000X-0.262500X0.450000X0*%
%ADD15RoundRect,0.250000X0.450000X-0.262500X0.450000X0.262500X-0.450000X0.262500X-0.450000X-0.262500X0*%
%ADD16RoundRect,0.250000X0.475000X-0.250000X0.475000X0.250000X-0.475000X0.250000X-0.475000X-0.250000X0*%
%ADD17RoundRect,0.250000X0.512652X0.159099X0.159099X0.512652X-0.512652X-0.159099X-0.159099X-0.512652X0*%
%ADD18RoundRect,0.250000X-0.250000X-0.475000X0.250000X-0.475000X0.250000X0.475000X-0.250000X0.475000X0*%
G04 APERTURE END LIST*
D10*
%TO.C,R4*%
X343830795Y-69201005D03*
X343830795Y-71026005D03*
%TD*%
D11*
%TO.C,R11*%
X396530795Y-66001005D03*
X394705795Y-66001005D03*
%TD*%
D12*
%TO.C,C6*%
X344180795Y-85551005D03*
X344180795Y-87451005D03*
%TD*%
D10*
%TO.C,R14*%
X378652995Y-46234405D03*
X378652995Y-48059405D03*
%TD*%
D13*
%TO.C,C1*%
X293330795Y-96501005D03*
X294674297Y-95157503D03*
%TD*%
%TO.C,C1*%
X295030795Y-98201005D03*
X296374297Y-96857503D03*
%TD*%
D14*
%TO.C,R7*%
X394780795Y-84385205D03*
X396605795Y-84385205D03*
%TD*%
D15*
%TO.C,R10*%
X349180795Y-87322405D03*
X349180795Y-85497405D03*
%TD*%
D16*
%TO.C,C11*%
X328780195Y-63526805D03*
X328780195Y-61626805D03*
%TD*%
D15*
%TO.C,R13*%
X403568095Y-122845105D03*
X403568095Y-121020105D03*
%TD*%
D17*
%TO.C,C10*%
X379924297Y-51975956D03*
X378580795Y-50632454D03*
%TD*%
D11*
%TO.C,R6*%
X396605795Y-86451005D03*
X394780795Y-86451005D03*
%TD*%
%TO.C,R16*%
X387180795Y-49901005D03*
X385355795Y-49901005D03*
%TD*%
D16*
%TO.C,C7*%
X326367195Y-63526805D03*
X326367195Y-61626805D03*
%TD*%
D15*
%TO.C,R15*%
X393030795Y-124076005D03*
X393030795Y-122251005D03*
%TD*%
D12*
%TO.C,C9*%
X403580795Y-117351005D03*
X403580795Y-119251005D03*
%TD*%
D14*
%TO.C,R12*%
X394705795Y-70801005D03*
X396530795Y-70801005D03*
%TD*%
D18*
%TO.C,C5*%
X394780795Y-82251005D03*
X396680795Y-82251005D03*
%TD*%
D10*
%TO.C,R5*%
X351530795Y-69226005D03*
X351530795Y-71051005D03*
%TD*%
D18*
%TO.C,C8*%
X394630795Y-68351005D03*
X396530795Y-68351005D03*
%TD*%
M02*
