M48
; DRILL file {KiCad 9.0.6} date 2026-01-22T10:10:15-0600
; FORMAT={-:-/ absolute / metric / decimal}
; #@! TF.CreationDate,2026-01-22T10:10:15-06:00
; #@! TF.GenerationSoftware,Kicad,Pcbnew,9.0.6
; #@! TF.FileFunction,Plated,1,2,PTH
FMAT,2
METRIC
; #@! TA.AperFunction,Plated,PTH,ViaDrill
T1C0.500
; #@! TA.AperFunction,Plated,PTH,ViaDrill
T2C0.600
; #@! TA.AperFunction,Plated,PTH,ComponentDrill
T3C0.750
; #@! TA.AperFunction,Plated,PTH,ComponentDrill
T4C0.800
; #@! TA.AperFunction,Plated,PTH,ComponentDrill
T5C0.950
; #@! TA.AperFunction,Plated,PTH,ComponentDrill
T6C1.000
; #@! TA.AperFunction,Plated,PTH,ComponentDrill
T7C1.190
; #@! TA.AperFunction,Plated,PTH,ComponentDrill
T8C1.200
; #@! TA.AperFunction,Plated,PTH,ViaDrill
T9C1.250
%
G90
G05
T1
X384.931Y-62.801
T2
X325.381Y-49.651
X325.581Y-66.651
X326.381Y-70.701
X328.783Y-65.145
X346.631Y-71.801
X352.281Y-52.001
X353.731Y-73.001
X356.381Y-42.251
X360.081Y-81.751
X368.163Y-75.067
X368.531Y-84.901
X370.17Y-74.914
X370.983Y-85.203
X371.381Y-42.251
X375.831Y-61.551
X382.731Y-90.901
X382.77Y-88.941
X382.781Y-87.001
X382.921Y-96.758
X383.032Y-100.4
X384.931Y-73.451
X385.231Y-89.301
X392.581Y-52.451
X392.725Y-59.451
X392.995Y-67.584
X395.581Y-78.072
X400.802Y-53.502
X400.802Y-80.626
T3
X385.454Y-46.051
X387.181Y-46.051
X388.857Y-46.076
X392.174Y-123.251
X393.851Y-123.251
X395.603Y-123.251
T4
X356.53Y-45.041
X356.53Y-47.581
X356.53Y-50.121
X356.53Y-52.661
X356.53Y-55.201
X356.53Y-57.741
X356.53Y-60.281
X356.53Y-62.821
X356.53Y-65.361
X356.53Y-67.901
X356.53Y-70.441
X356.53Y-72.981
X356.53Y-75.521
X356.53Y-78.061
X364.15Y-45.041
X364.15Y-47.581
X364.15Y-50.121
X364.15Y-52.661
X364.15Y-55.201
X364.15Y-57.741
X364.15Y-60.281
X364.15Y-62.821
X364.15Y-65.361
X364.15Y-67.901
X364.15Y-70.441
X364.15Y-72.981
X364.15Y-75.521
X364.15Y-78.061
X372.024Y-57.693
X372.024Y-60.233
X372.024Y-62.773
X372.024Y-65.313
X372.024Y-67.853
X372.024Y-70.393
X372.024Y-72.933
X379.644Y-57.693
X379.644Y-60.233
X379.644Y-62.773
X379.644Y-65.313
X379.644Y-67.853
X379.644Y-70.393
X379.644Y-72.933
T5
X328.713Y-46.514
X331.213Y-46.514
X332.904Y-61.622
X333.713Y-46.514
X335.404Y-61.622
X336.213Y-46.514
X337.904Y-61.622
X338.713Y-46.514
X340.404Y-61.622
X341.213Y-46.514
T6
X277.973Y-65.292
X277.973Y-67.832
X277.973Y-70.372
X277.973Y-72.912
X277.973Y-75.452
X277.973Y-77.992
X278.056Y-48.622
X278.056Y-51.162
X278.056Y-53.702
X278.056Y-56.242
X278.056Y-58.782
X278.056Y-61.322
X287.184Y-39.676
X289.831Y-83.401
X289.831Y-86.401
X289.886Y-91.802
X289.912Y-94.342
X290.181Y-39.651
X293.347Y-48.597
X293.347Y-51.137
X293.347Y-53.677
X293.347Y-56.217
X293.347Y-58.757
X293.347Y-61.297
X293.467Y-65.292
X293.467Y-67.832
X293.467Y-70.372
X293.467Y-72.912
X293.467Y-75.452
X293.467Y-77.992
X303.507Y-43.898
X303.507Y-46.438
X303.507Y-48.978
X303.507Y-51.518
X303.507Y-54.058
X303.507Y-56.598
X303.507Y-59.138
X303.507Y-61.678
X303.507Y-64.218
X303.507Y-66.758
X303.507Y-69.298
X303.507Y-71.838
X303.507Y-74.378
X303.507Y-76.918
X303.507Y-79.458
X303.507Y-81.998
X303.507Y-84.538
X303.507Y-87.078
X303.507Y-89.618
X303.507Y-92.158
X321.287Y-43.898
X321.287Y-46.438
X321.287Y-48.978
X321.287Y-51.518
X321.287Y-54.058
X321.287Y-56.598
X321.287Y-59.138
X321.287Y-61.678
X321.287Y-64.218
X321.287Y-66.758
X321.287Y-69.298
X321.287Y-71.838
X321.287Y-74.378
X321.287Y-76.918
X321.287Y-79.458
X321.287Y-81.998
X321.287Y-84.538
X321.287Y-87.078
X321.287Y-89.618
X321.287Y-92.158
X326.355Y-92.034
X326.355Y-109.814
X328.895Y-92.034
X328.895Y-109.814
X331.435Y-92.034
X331.435Y-109.814
X333.975Y-92.034
X333.975Y-109.814
X336.515Y-92.034
X336.515Y-109.814
X339.055Y-92.034
X339.055Y-109.814
X341.595Y-92.034
X341.595Y-109.814
X343.581Y-35.851
X343.581Y-38.351
X344.135Y-92.034
X344.135Y-109.814
X345.837Y-80.744
X346.675Y-92.034
X346.675Y-109.814
X348.337Y-80.744
X349.215Y-92.034
X349.215Y-109.814
X351.755Y-92.034
X351.755Y-109.814
X351.781Y-35.851
X351.781Y-38.351
X354.295Y-92.034
X354.295Y-109.814
X356.835Y-92.034
X356.835Y-109.814
X359.375Y-92.034
X359.375Y-109.814
X359.756Y-35.9
X359.756Y-38.4
X361.915Y-92.034
X361.915Y-109.814
X364.455Y-92.034
X364.455Y-109.814
X366.995Y-92.034
X366.995Y-109.814
X367.757Y-35.9
X367.757Y-38.4
X369.535Y-92.034
X369.535Y-109.814
X372.075Y-92.034
X372.075Y-109.814
X374.615Y-92.034
X374.615Y-109.814
X381.726Y-45.833
X381.726Y-48.373
X385.663Y-117.38
X385.663Y-119.92
X387.441Y-59.773
X387.441Y-62.313
X387.441Y-64.853
X387.441Y-67.393
X387.441Y-69.933
X387.441Y-72.473
X387.441Y-75.013
X387.441Y-77.553
X387.441Y-80.093
X387.441Y-82.633
X387.441Y-85.173
X387.441Y-87.713
X387.441Y-90.253
X387.441Y-92.793
X387.441Y-95.333
X387.441Y-97.873
X387.441Y-100.413
X387.441Y-102.953
X387.441Y-105.493
X387.441Y-108.033
X389.981Y-59.773
X389.981Y-62.313
X389.981Y-64.853
X389.981Y-67.393
X389.981Y-69.933
X389.981Y-72.473
X389.981Y-75.013
X389.981Y-77.553
X389.981Y-80.093
X389.981Y-82.633
X389.981Y-85.173
X389.981Y-87.713
X389.981Y-90.253
X389.981Y-92.793
X389.981Y-95.333
X389.981Y-97.873
X389.981Y-100.413
X389.981Y-102.953
X389.981Y-105.493
X389.981Y-108.033
X392.572Y-45.984
X392.572Y-48.524
X392.581Y-132.251
X392.581Y-134.791
X392.581Y-137.331
X392.581Y-139.871
X398.516Y-150.654
X398.516Y-153.194
X400.581Y-119.251
X400.581Y-121.791
X404.256Y-150.651
X404.256Y-153.166
X404.282Y-128.505
X404.282Y-131.529
X404.381Y-140.627
X404.381Y-143.651
T7
X348.529Y-57.512
X348.529Y-60.052
X348.529Y-62.592
X348.529Y-65.132
T8
X272.295Y-48.625
X272.295Y-51.165
X272.295Y-53.705
X272.295Y-56.245
X272.295Y-58.785
X272.295Y-61.325
X272.295Y-65.389
X272.295Y-67.929
X272.295Y-70.469
X272.295Y-73.009
X272.295Y-75.549
X272.295Y-78.089
X304.363Y-148.905
X304.363Y-151.445
X304.363Y-153.985
X304.363Y-156.525
X304.363Y-159.065
X304.363Y-161.605
X305.179Y-121.193
X305.179Y-123.733
X305.179Y-126.273
X305.179Y-128.813
X305.179Y-131.353
X305.179Y-133.893
X317.802Y-148.905
X317.802Y-151.445
X317.802Y-153.985
X317.802Y-156.525
X317.802Y-159.065
X317.802Y-161.605
X318.76Y-121.219
X318.76Y-123.759
X318.76Y-126.299
X318.76Y-128.839
X318.76Y-131.379
X318.76Y-133.919
X352.517Y-148.905
X352.517Y-151.445
X352.517Y-153.985
X352.517Y-156.525
X352.517Y-159.065
X352.517Y-161.605
X352.797Y-121.222
X352.797Y-123.762
X352.797Y-126.302
X352.797Y-128.842
X352.797Y-131.382
X352.797Y-133.922
X365.801Y-148.905
X365.801Y-151.445
X365.801Y-153.985
X365.801Y-156.525
X365.801Y-159.065
X365.801Y-161.605
X366.073Y-121.222
X366.073Y-123.762
X366.073Y-126.302
X366.073Y-128.842
X366.073Y-131.382
X366.073Y-133.922
T9
X266.981Y-90.251
M30
